<svg width="500" height="500" viewBox="0 0 500 500" fill="none" xmlns="http://www.w3.org/2000/svg">
<rect width="500" height="500" fill="#E1E1E1" fill-opacity="0.76"/>
<path fill-rule="evenodd" clip-rule="evenodd" d="M144.774 216.226C144.003 216.226 143.378 216.84 143.378 217.597V275.177C143.378 275.935 144.003 276.548 144.774 276.548H150.36V284.774H144.774C139.376 284.774 135 280.478 135 275.177V217.597C135 212.297 139.376 208 144.774 208H203.421C208.819 208 213.195 212.297 213.195 217.597V275.177C213.195 280.478 208.819 284.774 203.421 284.774H197.835V276.548H203.421C204.192 276.548 204.817 275.935 204.817 275.177V217.597C204.817 216.84 204.192 216.226 203.421 216.226H144.774Z" fill="#3AAFA9"/>
<path fill-rule="evenodd" clip-rule="evenodd" d="M158.738 229.378V262.839H150.36V227.193C150.36 223.408 153.486 220.339 157.342 220.339H159.492C162.528 220.339 165.216 222.265 166.142 225.104L174.098 249.515L182.054 225.104C182.979 222.265 185.667 220.339 188.703 220.339H190.854C194.71 220.339 197.835 223.408 197.835 227.193V262.839H189.457V229.378L179.909 258.673C179.101 261.155 176.751 262.839 174.098 262.839C171.444 262.839 169.095 261.155 168.286 258.673L158.738 229.378Z" fill="#3AAFA9"/>
<path d="M171.305 279.976L150.36 291.255L150.36 268.697L171.305 279.976Z" fill="#3AAFA9"/>
<path d="M176.89 279.976L197.835 291.255L197.835 268.697L176.89 279.976Z" fill="#3AAFA9"/>
<path d="M259.986 245.573H254.566C253.071 245.573 251.912 245.058 251.09 244.028C250.479 243.259 250.174 242.353 250.174 241.311C250.174 240.952 250.211 240.573 250.286 240.176L250.865 237.478H256.285L255.725 240.176H261.145L262.303 234.761H256.865L258.023 229.365H263.443L264.602 223.969H259.182L258.603 226.667H253.183L253.744 223.969C254.067 222.48 254.884 221.196 256.192 220.117C257.45 219.087 258.827 218.573 260.322 218.573H265.761C267.256 218.573 268.415 219.087 269.237 220.117C269.835 220.874 270.134 221.773 270.134 222.815C270.134 223.187 270.097 223.572 270.022 223.969L269.443 226.667C269.081 228.193 268.272 229.477 267.013 230.519C265.755 231.548 264.372 232.063 262.864 232.063C264.372 232.063 265.53 232.584 266.34 233.626C266.951 234.395 267.256 235.301 267.256 236.343C267.256 236.703 267.219 237.081 267.144 237.478L266.565 240.176C266.203 241.702 265.387 242.986 264.116 244.028C262.858 245.058 261.481 245.573 259.986 245.573Z" fill="#3AAFA9"/>
<path d="M290.543 229.365H285.123L286.282 223.969H280.862L277.404 240.176H282.824L283.965 234.761H289.384L288.244 240.176C287.871 241.702 287.055 242.986 285.796 244.028C284.538 245.058 283.161 245.573 281.666 245.573H276.246C274.751 245.573 273.592 245.051 272.769 244.009C272.171 243.253 271.872 242.366 271.872 241.349C271.872 240.976 271.91 240.586 271.985 240.176L275.442 223.969C275.803 222.431 276.613 221.147 277.872 220.117C279.13 219.087 280.507 218.573 282.002 218.573H287.422C288.917 218.573 290.076 219.087 290.898 220.117C291.509 220.886 291.814 221.792 291.814 222.834C291.814 223.193 291.777 223.572 291.702 223.969L290.543 229.365Z" fill="#3AAFA9"/>
<path d="M298.262 218.573H314.522L308.766 245.573H303.346L307.962 223.969H302.542L297.926 245.573H292.506L298.262 218.573Z" fill="#3AAFA9"/>
<path d="M327.324 234.761L329.642 223.969H324.222L321.904 234.761H327.324ZM330.782 218.573C332.277 218.573 333.436 219.087 334.258 220.117C334.869 220.886 335.174 221.792 335.174 222.834C335.174 223.193 335.136 223.572 335.062 223.969L330.445 245.573H325.025L326.184 240.176H320.764L319.605 245.573H314.185L318.802 223.969C319.163 222.431 319.973 221.147 321.231 220.117C322.49 219.087 323.867 218.573 325.362 218.573H330.782Z" fill="#3AAFA9"/>
<path d="M253.318 261.717C252.526 261.717 251.882 261.485 251.386 261.021C250.898 260.557 250.654 259.925 250.654 259.125C250.654 258.165 250.97 257.345 251.602 256.665C252.234 255.977 253.006 255.633 253.918 255.633C254.934 255.633 255.658 255.993 256.09 256.713L255.406 257.229C255.11 256.701 254.622 256.437 253.942 256.437C253.238 256.437 252.67 256.701 252.238 257.229C251.806 257.757 251.59 258.385 251.59 259.113C251.59 259.689 251.758 260.133 252.094 260.445C252.438 260.757 252.874 260.913 253.402 260.913C253.978 260.913 254.466 260.685 254.866 260.229L255.382 260.829C254.806 261.421 254.118 261.717 253.318 261.717ZM258.323 261.573H257.423L258.515 256.569H256.835L257.015 255.777H261.287L261.107 256.569H259.415L258.323 261.573ZM264.459 255.633C264.899 255.633 265.295 255.729 265.647 255.921C266.007 256.105 266.283 256.361 266.475 256.689L266.679 255.777H267.579L266.295 261.573H265.395L265.575 260.745C265.055 261.393 264.419 261.717 263.667 261.717C262.987 261.717 262.443 261.505 262.035 261.081C261.627 260.657 261.423 260.073 261.423 259.329C261.423 258.337 261.703 257.473 262.263 256.737C262.831 256.001 263.563 255.633 264.459 255.633ZM264.579 256.437C263.939 256.437 263.411 256.709 262.995 257.253C262.579 257.797 262.371 258.433 262.371 259.161C262.371 259.697 262.519 260.125 262.815 260.445C263.111 260.757 263.503 260.913 263.991 260.913C264.335 260.913 264.667 260.821 264.987 260.637C265.307 260.445 265.563 260.209 265.755 259.929L266.331 257.373C266.179 257.101 265.947 256.877 265.635 256.701C265.331 256.525 264.979 256.437 264.579 256.437ZM267.378 261.717L267.546 260.973C267.818 260.973 268.078 260.793 268.326 260.433C268.582 260.073 268.858 259.473 269.154 258.633L270.162 255.777H274.194L272.922 261.573H272.022L273.114 256.569H270.774L270.03 258.741C269.67 259.805 269.278 260.569 268.854 261.033C268.438 261.489 267.946 261.717 267.378 261.717ZM275.991 255.777H276.891L276.387 258.021H278.271C278.807 258.021 279.231 258.161 279.543 258.441C279.855 258.721 280.011 259.093 280.011 259.557C280.011 260.109 279.815 260.585 279.423 260.985C279.039 261.377 278.531 261.573 277.899 261.573H274.719L275.991 255.777ZM278.115 258.813H276.219L275.787 260.781H277.935C278.279 260.781 278.555 260.673 278.763 260.457C278.979 260.233 279.087 259.957 279.087 259.629C279.087 259.373 279.003 259.173 278.835 259.029C278.667 258.885 278.427 258.813 278.115 258.813ZM281.888 261.573H280.988L282.308 255.777H283.208L282.668 258.153H285.692L286.232 255.777H287.132L285.812 261.573H284.912L285.512 258.945H282.488L281.888 261.573ZM294.342 261.573H293.442L294.714 255.777H295.614L294.342 261.573ZM288.87 255.777H289.77L289.266 258.021H291.15C291.686 258.021 292.11 258.161 292.422 258.441C292.734 258.721 292.89 259.093 292.89 259.557C292.89 260.109 292.694 260.585 292.302 260.985C291.918 261.377 291.41 261.573 290.778 261.573H287.598L288.87 255.777ZM290.994 258.813H289.098L288.666 260.781H290.814C291.158 260.781 291.434 260.673 291.642 260.457C291.858 260.233 291.966 259.957 291.966 259.629C291.966 259.373 291.882 259.173 291.714 259.029C291.546 258.885 291.306 258.813 290.994 258.813ZM299.201 261.717C298.329 261.717 297.637 261.485 297.125 261.021C296.621 260.557 296.369 259.933 296.369 259.149C296.369 258.181 296.685 257.353 297.317 256.665C297.949 255.977 298.721 255.633 299.633 255.633C300.385 255.633 300.989 255.869 301.445 256.341C301.901 256.813 302.129 257.421 302.129 258.165C302.129 258.405 302.097 258.673 302.033 258.969H297.305C297.305 258.985 297.301 259.029 297.293 259.101C297.293 259.165 297.293 259.213 297.293 259.245C297.293 259.725 297.465 260.133 297.809 260.469C298.153 260.805 298.637 260.973 299.261 260.973C299.901 260.973 300.457 260.785 300.929 260.409L301.229 261.033C300.653 261.489 299.977 261.717 299.201 261.717ZM297.401 258.309H301.289C301.305 258.245 301.313 258.169 301.313 258.081C301.313 257.585 301.157 257.177 300.845 256.857C300.541 256.537 300.109 256.377 299.549 256.377C299.029 256.377 298.565 256.569 298.157 256.953C297.749 257.329 297.497 257.781 297.401 258.309ZM305 263.049L305.468 260.829C305.764 260.773 306.032 260.593 306.272 260.289C306.512 259.985 306.772 259.433 307.052 258.633L308.06 255.777H312.092L310.988 260.781H311.66L311.156 263.049H310.256L310.592 261.573H306.212L305.888 263.049H305ZM308.672 256.569L307.928 258.741C307.568 259.765 307.14 260.445 306.644 260.781H310.088L311.012 256.569H308.672ZM315.783 261.717C314.911 261.717 314.219 261.485 313.707 261.021C313.203 260.557 312.951 259.933 312.951 259.149C312.951 258.181 313.267 257.353 313.899 256.665C314.531 255.977 315.303 255.633 316.215 255.633C316.967 255.633 317.571 255.869 318.027 256.341C318.483 256.813 318.711 257.421 318.711 258.165C318.711 258.405 318.679 258.673 318.615 258.969H313.887C313.887 258.985 313.883 259.029 313.875 259.101C313.875 259.165 313.875 259.213 313.875 259.245C313.875 259.725 314.047 260.133 314.391 260.469C314.735 260.805 315.219 260.973 315.843 260.973C316.483 260.973 317.039 260.785 317.511 260.409L317.811 261.033C317.235 261.489 316.559 261.717 315.783 261.717ZM313.983 258.309H317.871C317.887 258.245 317.895 258.169 317.895 258.081C317.895 257.585 317.739 257.177 317.427 256.857C317.123 256.537 316.691 256.377 316.131 256.377C315.611 256.377 315.147 256.569 314.739 256.953C314.331 257.329 314.079 257.781 313.983 258.309ZM321.44 261.573H320.54L321.632 256.569H319.952L320.132 255.777H324.404L324.224 256.569H322.532L321.44 261.573ZM327.577 255.633C328.017 255.633 328.413 255.729 328.765 255.921C329.125 256.105 329.401 256.361 329.593 256.689L329.797 255.777H330.697L329.413 261.573H328.513L328.693 260.745C328.173 261.393 327.537 261.717 326.785 261.717C326.105 261.717 325.561 261.505 325.153 261.081C324.745 260.657 324.541 260.073 324.541 259.329C324.541 258.337 324.821 257.473 325.381 256.737C325.949 256.001 326.681 255.633 327.577 255.633ZM327.697 256.437C327.057 256.437 326.529 256.709 326.113 257.253C325.697 257.797 325.489 258.433 325.489 259.161C325.489 259.697 325.637 260.125 325.933 260.445C326.229 260.757 326.621 260.913 327.109 260.913C327.453 260.913 327.785 260.821 328.105 260.637C328.425 260.445 328.681 260.209 328.873 259.929L329.449 257.373C329.297 257.101 329.065 256.877 328.753 256.701C328.449 256.525 328.097 256.437 327.697 256.437ZM330.495 261.717L330.663 260.973C330.935 260.973 331.195 260.793 331.443 260.433C331.699 260.073 331.975 259.473 332.271 258.633L333.279 255.777H337.311L336.039 261.573H335.139L336.231 256.569H333.891L333.147 258.741C332.787 259.805 332.395 260.569 331.971 261.033C331.555 261.489 331.063 261.717 330.495 261.717ZM338.7 261.573H337.836L339.108 255.777H340.008L339.036 260.205L343.044 255.777H343.932L342.66 261.573H341.76L342.744 257.061L338.7 261.573ZM252.382 273.573H251.482L252.574 268.569H250.894L251.074 267.777H255.346L255.166 268.569H253.474L252.382 273.573ZM258.374 273.717C257.926 273.717 257.526 273.625 257.174 273.441C256.83 273.249 256.558 272.989 256.358 272.661L255.662 275.781H254.762L256.538 267.777H257.438L257.246 268.605C257.774 267.957 258.414 267.633 259.166 267.633C259.838 267.633 260.378 267.845 260.786 268.269C261.202 268.693 261.41 269.277 261.41 270.021C261.41 271.005 261.126 271.869 260.558 272.613C259.998 273.349 259.27 273.717 258.374 273.717ZM258.254 272.913C258.894 272.913 259.422 272.641 259.838 272.097C260.254 271.553 260.462 270.917 260.462 270.189C260.462 269.653 260.314 269.229 260.018 268.917C259.722 268.597 259.33 268.437 258.842 268.437C258.49 268.437 258.158 268.533 257.846 268.725C257.534 268.909 257.274 269.145 257.066 269.433L256.502 271.977C256.654 272.257 256.882 272.485 257.186 272.661C257.498 272.829 257.854 272.913 258.254 272.913ZM261.317 275.793L261.629 274.989C261.773 275.053 261.961 275.085 262.193 275.085C262.513 275.085 262.801 274.893 263.057 274.509L263.645 273.609L262.541 267.777H263.489L264.353 272.529L267.341 267.777H268.349L263.885 274.749C263.381 275.533 262.777 275.925 262.073 275.925C261.785 275.925 261.533 275.881 261.317 275.793ZM270.908 272.913C271.548 272.913 272.084 272.645 272.516 272.109C272.948 271.565 273.164 270.941 273.164 270.237C273.164 269.685 273.012 269.249 272.708 268.929C272.404 268.601 271.98 268.437 271.436 268.437C270.796 268.437 270.26 268.709 269.828 269.253C269.396 269.789 269.18 270.409 269.18 271.113C269.18 271.665 269.332 272.105 269.636 272.433C269.94 272.753 270.364 272.913 270.908 272.913ZM270.884 273.717C270.068 273.717 269.42 273.485 268.94 273.021C268.468 272.549 268.232 271.925 268.232 271.149C268.232 270.413 268.408 269.681 268.76 268.953C269.144 268.073 269.632 267.413 270.224 266.973C270.816 266.533 271.576 266.257 272.504 266.145C273.064 266.057 273.46 265.969 273.692 265.881C273.932 265.793 274.064 265.689 274.088 265.569H274.964C274.812 266.257 273.956 266.701 272.396 266.901C271.564 267.013 270.928 267.233 270.488 267.561C270.056 267.889 269.72 268.325 269.48 268.869C270.112 268.045 270.868 267.633 271.748 267.633C272.484 267.633 273.06 267.869 273.476 268.341C273.9 268.805 274.112 269.429 274.112 270.213C274.112 271.149 273.8 271.969 273.176 272.673C272.56 273.369 271.796 273.717 270.884 273.717ZM277.81 273.717C276.994 273.717 276.346 273.485 275.866 273.021C275.394 272.549 275.158 271.925 275.158 271.149C275.158 270.213 275.466 269.393 276.082 268.689C276.706 267.985 277.474 267.633 278.386 267.633C279.202 267.633 279.846 267.869 280.318 268.341C280.798 268.813 281.038 269.437 281.038 270.213C281.038 271.149 280.726 271.969 280.102 272.673C279.486 273.369 278.722 273.717 277.81 273.717ZM277.834 272.913C278.474 272.913 279.01 272.645 279.442 272.109C279.874 271.565 280.09 270.941 280.09 270.237C280.09 269.685 279.938 269.249 279.634 268.929C279.33 268.601 278.906 268.437 278.362 268.437C277.722 268.437 277.186 268.709 276.754 269.253C276.322 269.789 276.106 270.409 276.106 271.113C276.106 271.665 276.258 272.105 276.562 272.433C276.866 272.753 277.29 272.913 277.834 272.913ZM286.621 273.573H285.721L286.861 268.569H283.837L282.697 273.573H281.797L283.117 267.777H287.941L286.621 273.573ZM291.526 273.717C291.078 273.717 290.678 273.625 290.326 273.441C289.982 273.249 289.71 272.989 289.51 272.661L288.814 275.781H287.914L289.69 267.777H290.59L290.398 268.605C290.926 267.957 291.566 267.633 292.318 267.633C292.99 267.633 293.53 267.845 293.938 268.269C294.354 268.693 294.562 269.277 294.562 270.021C294.562 271.005 294.278 271.869 293.71 272.613C293.15 273.349 292.422 273.717 291.526 273.717ZM291.406 272.913C292.046 272.913 292.574 272.641 292.99 272.097C293.406 271.553 293.614 270.917 293.614 270.189C293.614 269.653 293.466 269.229 293.17 268.917C292.874 268.597 292.482 268.437 291.994 268.437C291.642 268.437 291.31 268.533 290.998 268.725C290.686 268.909 290.426 269.145 290.218 269.433L289.654 271.977C289.806 272.257 290.034 272.485 290.338 272.661C290.65 272.829 291.006 272.913 291.406 272.913ZM298.153 273.717C297.337 273.717 296.689 273.485 296.209 273.021C295.737 272.549 295.501 271.925 295.501 271.149C295.501 270.213 295.809 269.393 296.425 268.689C297.049 267.985 297.817 267.633 298.729 267.633C299.545 267.633 300.189 267.869 300.661 268.341C301.141 268.813 301.381 269.437 301.381 270.213C301.381 271.149 301.069 271.969 300.445 272.673C299.829 273.369 299.065 273.717 298.153 273.717ZM298.177 272.913C298.817 272.913 299.353 272.645 299.785 272.109C300.217 271.565 300.433 270.941 300.433 270.237C300.433 269.685 300.281 269.249 299.977 268.929C299.673 268.601 299.249 268.437 298.705 268.437C298.065 268.437 297.529 268.709 297.097 269.253C296.665 269.789 296.449 270.409 296.449 271.113C296.449 271.665 296.601 272.105 296.905 272.433C297.209 272.753 297.633 272.913 298.177 272.913ZM305.501 273.573H302.141L303.413 267.777H306.365C306.829 267.777 307.201 267.889 307.481 268.113C307.761 268.337 307.901 268.649 307.901 269.049C307.901 269.441 307.781 269.781 307.541 270.069C307.309 270.357 306.993 270.545 306.593 270.633C306.841 270.729 307.037 270.881 307.181 271.089C307.333 271.297 307.409 271.545 307.409 271.833C307.409 272.321 307.237 272.733 306.893 273.069C306.549 273.405 306.085 273.573 305.501 273.573ZM303.209 272.781H305.405C305.733 272.781 305.997 272.685 306.197 272.493C306.405 272.301 306.509 272.061 306.509 271.773C306.509 271.541 306.429 271.353 306.269 271.209C306.109 271.065 305.885 270.993 305.597 270.993H303.605L303.209 272.781ZM303.773 270.201H305.969C306.265 270.201 306.501 270.109 306.677 269.925C306.861 269.741 306.953 269.521 306.953 269.265C306.953 269.041 306.869 268.869 306.701 268.749C306.541 268.629 306.321 268.569 306.041 268.569H304.133L303.773 270.201ZM311.665 273.717C310.849 273.717 310.201 273.485 309.721 273.021C309.249 272.549 309.013 271.925 309.013 271.149C309.013 270.213 309.321 269.393 309.937 268.689C310.561 267.985 311.329 267.633 312.241 267.633C313.057 267.633 313.701 267.869 314.173 268.341C314.653 268.813 314.893 269.437 314.893 270.213C314.893 271.149 314.581 271.969 313.957 272.673C313.341 273.369 312.577 273.717 311.665 273.717ZM311.689 272.913C312.329 272.913 312.865 272.645 313.297 272.109C313.729 271.565 313.945 270.941 313.945 270.237C313.945 269.685 313.793 269.249 313.489 268.929C313.185 268.601 312.761 268.437 312.217 268.437C311.577 268.437 311.041 268.709 310.609 269.253C310.177 269.789 309.961 270.409 309.961 271.113C309.961 271.665 310.113 272.105 310.417 272.433C310.721 272.753 311.145 272.913 311.689 272.913ZM314.656 275.049L315.124 272.829C315.42 272.773 315.688 272.593 315.928 272.289C316.168 271.985 316.428 271.433 316.708 270.633L317.716 267.777H321.748L320.644 272.781H321.316L320.812 275.049H319.912L320.248 273.573H315.868L315.544 275.049H314.656ZM318.328 268.569L317.584 270.741C317.224 271.765 316.796 272.445 316.3 272.781H319.744L320.668 268.569H318.328ZM325.259 273.717C324.443 273.717 323.795 273.485 323.315 273.021C322.843 272.549 322.607 271.925 322.607 271.149C322.607 270.213 322.915 269.393 323.531 268.689C324.155 267.985 324.923 267.633 325.835 267.633C326.651 267.633 327.295 267.869 327.767 268.341C328.247 268.813 328.487 269.437 328.487 270.213C328.487 271.149 328.175 271.969 327.551 272.673C326.935 273.369 326.171 273.717 325.259 273.717ZM325.283 272.913C325.923 272.913 326.459 272.645 326.891 272.109C327.323 271.565 327.539 270.941 327.539 270.237C327.539 269.685 327.387 269.249 327.083 268.929C326.779 268.601 326.355 268.437 325.811 268.437C325.171 268.437 324.635 268.709 324.203 269.253C323.771 269.789 323.555 270.409 323.555 271.113C323.555 271.665 323.707 272.105 324.011 272.433C324.315 272.753 324.739 272.913 325.283 272.913ZM332.606 273.573H329.246L330.518 267.777H333.47C333.934 267.777 334.306 267.889 334.586 268.113C334.866 268.337 335.006 268.649 335.006 269.049C335.006 269.441 334.886 269.781 334.646 270.069C334.414 270.357 334.098 270.545 333.698 270.633C333.946 270.729 334.142 270.881 334.286 271.089C334.438 271.297 334.514 271.545 334.514 271.833C334.514 272.321 334.342 272.733 333.998 273.069C333.654 273.405 333.19 273.573 332.606 273.573ZM330.314 272.781H332.51C332.838 272.781 333.102 272.685 333.302 272.493C333.51 272.301 333.614 272.061 333.614 271.773C333.614 271.541 333.534 271.353 333.374 271.209C333.214 271.065 332.99 270.993 332.702 270.993H330.71L330.314 272.781ZM330.878 270.201H333.074C333.37 270.201 333.606 270.109 333.782 269.925C333.966 269.741 334.058 269.521 334.058 269.265C334.058 269.041 333.974 268.869 333.806 268.749C333.646 268.629 333.426 268.569 333.146 268.569H331.238L330.878 270.201Z" fill="#16243E"/>
</svg>
