<?xml version="1.0" encoding="utf-8"?><svg xmlns="http://www.w3.org/2000/svg" xmlns:xlink="http://www.w3.org/1999/xlink"><symbol viewBox="0 0 24 24" id="arrow-next" xmlns="http://www.w3.org/2000/svg">
    <path d="M9 18L15 12L9 6" stroke-width="2" stroke-linecap="round" stroke-linejoin="round"/>
</symbol><symbol viewBox="0 0 24 24" id="arrow-prev" xmlns="http://www.w3.org/2000/svg">
    <path d="M15 18L9 12L15 6" stroke-width="2" stroke-linecap="round" stroke-linejoin="round"/>
</symbol><symbol viewBox="0 0 24 24" id="arrow-right" xmlns="http://www.w3.org/2000/svg">
    <path d="M4 12H20" stroke-width="2" stroke-linecap="square"/>
    <path d="M14 6L20 12L14 18" stroke-width="2" stroke-linecap="square" stroke-linejoin="round"/>
</symbol><symbol viewBox="0 0 48 48" id="check" xmlns="http://www.w3.org/2000/svg">
    <path d="M40 14L18 36L8 26" stroke-width="2" stroke-linecap="round"/>
</symbol><symbol viewBox="0 0 16 16" id="chevron-right" xmlns="http://www.w3.org/2000/svg">
    <path d="M6 12L10 8L6 4" stroke-width="3" stroke-linecap="square"/>
</symbol><symbol viewBox="0 0 27 20" id="copyright" xmlns="http://www.w3.org/2000/svg">
    <path d="M13.3337 1.25C6.89095 1.25 1.66699 5.16797 1.66699 10C1.66699 14.832 6.89095 18.75 13.3337 18.75C19.7764 18.75 25.0003 14.832 25.0003 10C25.0003 5.16797 19.7764 1.25 13.3337 1.25ZM13.4743 14.3359C10.6097 14.3359 8.95866 12.9062 8.95866 10.5293V9.50781C8.95866 7.11328 10.6097 5.66406 13.4717 5.66406C15.9274 5.66406 17.7087 6.84961 17.7087 8.54297C17.7087 8.59375 17.654 8.63477 17.5863 8.63477H16.1097C16.0003 8.63477 15.9118 8.57227 15.9014 8.49023C15.7972 7.52344 14.8597 6.86133 13.4795 6.86133C11.779 6.86133 10.8206 7.80859 10.8206 9.50781V10.5352C10.8206 12.209 11.7816 13.1445 13.4795 13.1445C14.8545 13.1445 15.7894 12.5254 15.9014 11.625C15.9118 11.5449 16.0003 11.4824 16.1097 11.4824H17.5889C17.6566 11.4824 17.7113 11.5234 17.7113 11.5742C17.7113 13.1875 15.9222 14.3359 13.4743 14.3359Z"/>
</symbol><symbol viewBox="0 0 40 41" id="feature-1" xmlns="http://www.w3.org/2000/svg">
    <path d="M3.33301 10.875V32.5417" stroke-linecap="round" stroke-linejoin="round"/>
    <path d="M36.667 10.875V32.5417" stroke-linecap="round" stroke-linejoin="round"/>
    <path d="M9.16634 27.5416H19.9997V39.2083H9.16634C8.94533 39.2083 8.73337 39.1205 8.57709 38.9642C8.42081 38.8079 8.33301 38.596 8.33301 38.375V28.375C8.33301 28.1539 8.42081 27.942 8.57709 27.7857C8.73337 27.6294 8.94533 27.5416 9.16634 27.5416V27.5416Z" stroke-linecap="round" stroke-linejoin="round"/>
    <path d="M20 27.5416H30.8333C31.0543 27.5416 31.2663 27.6294 31.4226 27.7857C31.5789 27.942 31.6667 28.1539 31.6667 28.375V38.375C31.6667 38.596 31.5789 38.8079 31.4226 38.9642C31.2663 39.1205 31.0543 39.2083 30.8333 39.2083H20V27.5416Z" stroke-linecap="round" stroke-linejoin="round"/>
    <path d="M14.1663 15.875H24.1663C24.3874 15.875 24.5993 15.9628 24.7556 16.1191C24.9119 16.2754 24.9997 16.4873 24.9997 16.7083V27.5417H13.333V16.7083C13.333 16.4873 13.4208 16.2754 13.5771 16.1191C13.7334 15.9628 13.9453 15.875 14.1663 15.875V15.875Z" stroke-linecap="round" stroke-linejoin="round"/>
    <path d="M16.667 15.875H21.667V20.0417C21.667 20.2627 21.5792 20.4746 21.4229 20.6309C21.2666 20.7872 21.0547 20.875 20.8337 20.875H17.5003C17.2793 20.875 17.0673 20.7872 16.9111 20.6309C16.7548 20.4746 16.667 20.2627 16.667 20.0417V15.875Z" stroke-linecap="round" stroke-linejoin="round"/>
    <path d="M11.667 27.5416H16.667V31.7083C16.667 31.9293 16.5792 32.1413 16.4229 32.2975C16.2666 32.4538 16.0547 32.5416 15.8337 32.5416H12.5003C12.2793 32.5416 12.0674 32.4538 11.9111 32.2975C11.7548 32.1413 11.667 31.9293 11.667 31.7083V27.5416Z" stroke-linecap="round" stroke-linejoin="round"/>
    <path d="M23.333 27.5416H28.333V31.7083C28.333 31.9293 28.2452 32.1413 28.0889 32.2975C27.9327 32.4538 27.7207 32.5416 27.4997 32.5416H24.1663C23.9453 32.5416 23.7334 32.4538 23.5771 32.2975C23.4208 32.1413 23.333 31.9293 23.333 31.7083V27.5416Z" stroke-linecap="round" stroke-linejoin="round"/>
    <path d="M37.5004 10.875C37.7214 10.875 37.9333 10.7872 38.0896 10.6309C38.2459 10.4746 38.3337 10.2627 38.3337 10.0416V8.14331C38.3339 7.9682 38.279 7.79746 38.1766 7.65535C38.0743 7.51324 37.9298 7.40698 37.7637 7.35164L20.5004 1.86998C20.1718 1.76551 19.8189 1.76551 19.4904 1.86998L2.25703 7.36164C2.08497 7.41416 1.93453 7.52095 1.82819 7.66605C1.72184 7.81114 1.66531 7.98676 1.66703 8.16664V10.0416C1.66703 10.2627 1.75483 10.4746 1.91111 10.6309C2.06739 10.7872 2.27935 10.875 2.50036 10.875H37.5004Z" stroke-linecap="round" stroke-linejoin="round"/>
</symbol><symbol viewBox="0 0 40 41" id="feature-2" xmlns="http://www.w3.org/2000/svg">
    <path d="M0.799805 31.7936H23.9998V39.6064L28.7998 36.7264L33.5998 39.6064V31.7936H39.1998V1.39355H0.799805V31.7936ZM32.2118 26.3648C32.1398 26.4376 32.063 26.5048 31.987 26.5728C31.9438 26.6112 31.9038 26.652 31.859 26.6888C31.8094 26.7304 31.7566 26.7656 31.7054 26.8048C31.031 27.3208 30.2182 27.664 29.331 27.7624C29.3166 27.764 29.3022 27.7672 29.287 27.7688C29.1262 27.7848 28.963 27.7936 28.7982 27.7936C28.6334 27.7936 28.4702 27.7848 28.3094 27.7688C28.295 27.7672 28.2806 27.764 28.2654 27.7624C27.3782 27.664 26.5662 27.3208 25.891 26.8048C25.8398 26.7656 25.787 26.7296 25.7374 26.6888C25.6934 26.652 25.6526 26.6112 25.6094 26.5728C25.5334 26.5048 25.4574 26.4376 25.3846 26.3648C24.5278 25.4976 23.9966 24.3072 23.9966 22.9936C23.9966 20.3464 26.1494 18.1936 28.7966 18.1936C31.4438 18.1936 33.5966 20.3464 33.5966 22.9936C33.5998 24.3064 33.0694 25.4968 32.2118 26.3648ZM31.9998 36.7808L28.7998 34.8608L25.5998 36.7808V31.7936V28.5376C25.627 28.5536 25.6574 28.564 25.6854 28.5792C25.8974 28.6976 26.1158 28.8064 26.3414 28.9008C26.351 28.9048 26.3614 28.908 26.3718 28.912C27.1214 29.2208 27.9406 29.3936 28.8006 29.3936C29.6606 29.3936 30.4798 29.2208 31.2294 28.912C31.239 28.908 31.2494 28.9048 31.2598 28.9008C31.4854 28.8064 31.7038 28.6984 31.9158 28.5792C31.9438 28.564 31.9742 28.5536 32.0014 28.5376V31.7936V36.7808H31.9998ZM2.3998 2.99355H37.5998V30.1936H33.5998V27.2128C34.5926 26.0848 35.1998 24.6104 35.1998 22.9936C35.1998 19.4648 32.3286 16.5936 28.7998 16.5936C25.271 16.5936 22.3998 19.4648 22.3998 22.9936C22.3998 24.6104 23.007 26.0848 23.9998 27.2128V30.1936H2.3998V2.99355Z"/>
    <path d="M30.3996 6.1936H9.59961V7.7936H30.3996V6.1936Z"/>
    <path d="M26.3996 10.9935H13.5996V12.5935H26.3996V10.9935Z"/>
    <path d="M14.3996 25.3936H5.59961V26.9936H14.3996V25.3936Z"/>
</symbol><symbol viewBox="0 0 40 40" id="feature-3" xmlns="http://www.w3.org/2000/svg">
    <path d="M33.1656 14.4008L30.6072 11.854C30.549 11.7953 30.4787 11.7484 30.4006 11.7162C30.3224 11.684 30.2381 11.6671 30.1528 11.6666H27.2895C27.1244 11.6666 26.966 11.7283 26.8493 11.8381C26.7326 11.9479 26.667 12.0968 26.667 12.2521V16.0811C26.667 16.2364 26.7326 16.3853 26.8493 16.4951C26.966 16.6049 27.1244 16.6666 27.2895 16.6666H32.7112C32.8763 16.6666 33.0346 16.6049 33.1513 16.4951C33.2681 16.3853 33.3337 16.2364 33.3337 16.0811V14.8048C33.3329 14.6552 33.273 14.5112 33.1656 14.4008ZM32.0887 15.4957H27.9119V12.8376H29.8852L32.0887 15.0331V15.4957Z"/>
    <path d="M39.6632 17.6851L32.4211 8.65505C32.2836 8.48356 32.1121 8.34514 31.9182 8.24935C31.7244 8.15356 31.5128 8.10269 31.2982 8.10025H24.7789C24.3905 8.10217 24.0186 8.26353 23.7439 8.54924C23.4692 8.83494 23.3141 9.2219 23.3123 9.62594V19.2327H22.4281V12.013C22.4281 11.8194 22.3541 11.6337 22.2225 11.4968C22.0909 11.3599 21.9124 11.283 21.7263 11.283H17.0737V4.06337C17.0737 3.86976 16.9998 3.68409 16.8681 3.54719C16.7365 3.41028 16.558 3.33337 16.3719 3.33337H8.72982C8.54371 3.33337 8.36521 3.41028 8.23361 3.54719C8.10201 3.68409 8.02807 3.86976 8.02807 4.06337V11.283H3.38246C3.19634 11.283 3.01785 11.3599 2.88624 11.4968C2.75464 11.6337 2.6807 11.8194 2.6807 12.013V19.2327H0.701754C0.515638 19.2327 0.337144 19.3096 0.205539 19.4465C0.0739346 19.5834 0 19.7691 0 19.9627V27.9123C0 28.106 0.0739346 28.2916 0.205539 28.4285C0.337144 28.5654 0.515638 28.6423 0.701754 28.6423H4.8C4.43256 29.3825 4.23153 30.1999 4.21209 31.0327C4.19265 31.8655 4.3553 32.692 4.68777 33.4498C5.02025 34.2077 5.51385 34.8771 6.13135 35.4075C6.74884 35.938 7.47409 36.3156 8.25236 36.5118C9.03063 36.7081 9.84159 36.718 10.624 36.5406C11.4065 36.3632 12.14 36.0033 12.7692 35.488C13.3984 34.9727 13.9069 34.3154 14.2563 33.5658C14.6056 32.8162 14.7867 31.9939 14.786 31.1608C14.785 30.2836 14.5804 29.4196 14.1895 28.6423H26.9754C26.6076 29.3821 26.4061 30.1991 26.3862 31.0317C26.3663 31.8643 26.5285 32.6907 26.8606 33.4486C27.1927 34.2064 27.686 34.8758 28.3032 35.4063C28.9204 35.9368 29.6454 36.3145 30.4234 36.5109C31.2015 36.7073 32.0123 36.7172 32.7946 36.5399C33.5768 36.3626 34.3102 36.0027 34.9392 35.4874C35.5682 34.9721 36.0764 34.3149 36.4255 33.5654C36.7746 32.8159 36.9555 31.9937 36.9544 31.1608C36.9558 30.2842 36.7536 29.4202 36.3649 28.6423H39.2982C39.4844 28.6423 39.6629 28.5654 39.7945 28.4285C39.9261 28.2916 40 28.106 40 27.9123V18.6633C39.9996 18.3066 39.8806 17.961 39.6632 17.6851ZM21.0246 12.743V19.2327H14.786V12.743H21.0246ZM9.43158 4.79337H15.6702V11.283H9.43158V4.79337ZM13.3825 12.743V19.2327H11.7263V12.743H13.3825ZM4.08421 12.743H10.3228V19.2327H4.08421V12.743ZM9.49474 35.205C8.74317 35.2064 8.00744 34.9803 7.37721 34.5543C6.74698 34.1284 6.24945 33.5209 5.94524 32.806C5.64103 32.0911 5.54328 31.2996 5.6639 30.5279C5.78452 29.7562 6.11829 29.0377 6.62456 28.4598C6.652 28.4298 6.67777 28.3981 6.70175 28.3649C7.14687 27.8839 7.69968 27.5251 8.31073 27.3207C8.92178 27.1164 9.57201 27.0728 10.2032 27.1938C10.8344 27.3149 11.427 27.5968 11.9278 28.0144C12.4286 28.4321 12.8221 28.9723 13.073 29.5869C13.3239 30.2014 13.4245 30.8711 13.3657 31.536C13.3069 32.2008 13.0906 32.8402 12.7361 33.3968C12.3816 33.9534 11.8999 34.4099 11.3343 34.7255C10.7686 35.041 10.1366 35.2058 9.49474 35.205ZM23.3123 27.1824H13.1368C12.1573 26.2074 10.8539 25.6632 9.49825 25.6632C8.14257 25.6632 6.83917 26.2074 5.85965 27.1824H1.40351V20.6927H23.3123V27.1824ZM31.6702 35.205C30.902 35.2057 30.1508 34.9695 29.5116 34.5261C28.8725 34.0827 28.3741 33.4521 28.0795 32.7141C27.7848 31.9761 27.7072 31.1637 27.8564 30.3798C28.0056 29.5959 28.3749 28.8756 28.9176 28.31C29.4604 27.7444 30.1521 27.3589 30.9055 27.2023C31.6588 27.0457 32.4398 27.125 33.1498 27.4301C33.8599 27.7353 34.4669 28.2526 34.8943 28.9167C35.3217 29.5807 35.5502 30.3617 35.5509 31.1608C35.5514 32.2323 35.143 33.2602 34.4153 34.0186C33.6876 34.7769 32.7002 35.2037 31.6702 35.205ZM38.5965 24.0069H36.9403V22.2841H38.5965V24.0069ZM38.5965 20.8241H36.9403C36.5685 20.8252 36.2121 20.9794 35.9491 21.253C35.6862 21.5265 35.538 21.8972 35.5368 22.2841V24.0069C35.538 24.3937 35.6862 24.7644 35.9491 25.038C36.2121 25.3115 36.5685 25.4657 36.9403 25.4669H38.5965V27.1824H35.3053C34.3269 26.2079 33.0247 25.6639 31.6702 25.6639C30.3157 25.6639 29.0134 26.2079 28.0351 27.1824H24.7158V9.62594C24.7173 9.60907 24.7245 9.59328 24.736 9.58129C24.7475 9.5693 24.7627 9.56186 24.7789 9.56024L31.3404 9.58944L38.5965 18.6633V20.8241Z"/>
</symbol><symbol viewBox="0 0 40 40" id="feature-4" xmlns="http://www.w3.org/2000/svg">
    <g clip-path="url(#jclip0_2080_679)">
        <path d="M2.23929 5.00025H2.25518H37.7587C38.074 5.00025 38.331 5.24947 38.331 5.5552V5.57062V9.98455V9.99997V10.0154V34.4436C38.331 34.7493 38.074 34.9986 37.7587 34.9986H37.7428H2.23929C1.924 34.9986 1.66699 34.7493 1.66699 34.4436V34.4282V10.0128V9.9974V9.98198V5.55263C1.66699 5.2469 1.924 4.99768 2.23929 4.99768V5.00025ZM27.4468 32.7762C27.1315 32.7762 26.8745 32.527 26.8745 32.2212C26.8745 31.9155 27.1315 31.6663 27.4468 31.6663H33.13C33.4453 31.6663 33.7023 31.9155 33.7023 32.2212C33.7023 32.527 33.4453 32.7762 33.13 32.7762H27.4468ZM29.7386 29.9988C29.4233 29.9988 29.1663 29.7496 29.1663 29.4439C29.1663 29.1382 29.4233 28.8889 29.7386 28.8889H35.4218C35.7371 28.8889 35.9941 29.1382 35.9941 29.4439C35.9941 29.7496 35.7371 29.9988 35.4218 29.9988H29.7386ZM4.53112 12.7773C4.21583 12.7773 3.95882 12.5281 3.95882 12.2224C3.95882 11.9166 4.21583 11.6674 4.53112 11.6674H10.2143C10.5296 11.6674 10.7866 11.9166 10.7866 12.2224C10.7866 12.5281 10.5296 12.7773 10.2143 12.7773H4.53112ZM6.82295 15.5546C6.50766 15.5546 6.25066 15.3054 6.25066 14.9997C6.25066 14.6939 6.50766 14.4447 6.82295 14.4447H12.5062C12.8215 14.4447 13.0785 14.6939 13.0785 14.9997C13.0785 15.3054 12.8215 15.5546 12.5062 15.5546H6.82295ZM21.5675 17.777L24.5827 20.3206L26.8056 17.777H21.5675ZM28.0005 18.1239L25.8783 20.5544H29.7784L28.0005 18.1239ZM23.1122 20.5544L20.0361 17.9569L16.96 20.5544H23.1122ZM19.9116 32.2161L19.9063 32.2135H19.8983H19.8957L19.8798 32.211L19.8718 32.2084H19.8692H19.8665L19.8559 32.2058H19.8533H19.8506L19.84 32.2032H19.8374H19.8347L19.8241 32.2007H19.8215H19.8188L19.8082 32.1981L19.795 32.1955L19.7817 32.1904H19.7791L19.7685 32.1853H19.7658L19.7552 32.1801H19.7526H19.7499L19.7393 32.175H19.7367H19.734L19.7235 32.1698H19.7208L19.7182 32.1673L19.7102 32.1621L19.7076 32.1596L19.6996 32.1544L19.6943 32.1519L19.6864 32.1467L19.6811 32.1441L19.6731 32.139L19.6678 32.1364L19.6599 32.1313L19.6546 32.1287L19.6493 32.1236L19.644 32.121L19.6387 32.1159L19.6334 32.1133L19.6281 32.1082L19.6254 32.1056L19.6201 32.103L19.6148 32.0979L19.6122 32.0953L19.6069 32.0928L19.6016 32.0876L19.5989 32.0851L19.5936 32.0825L19.5883 32.0774L19.5857 32.0748L19.583 32.0722L19.5777 32.0696L19.5751 32.0671L19.5724 32.0645L19.5671 32.0594L19.5645 32.0542L19.5618 32.0517L19.5539 32.044L19.5512 32.0414L19.5486 32.0362L19.5433 32.0311L19.538 32.026L19.5327 32.0208L8.72001 21.5153C8.59813 21.4125 8.52129 21.2635 8.52129 21.0965C8.52129 20.9629 8.56898 20.8421 8.65112 20.7445L11.5364 16.8983L11.5444 16.8881L11.5497 16.8829L11.555 16.8778L11.5576 16.8752L11.5629 16.8675L11.5656 16.8649L11.5682 16.8624L11.5735 16.8547L11.5788 16.8495L11.5841 16.8444L11.5868 16.8418L11.5921 16.8341L11.5947 16.8315L11.6 16.8264L11.6053 16.8213L11.6106 16.8161L11.6159 16.811L11.6186 16.8084L11.6239 16.8033L11.6265 16.8007L11.6292 16.7981L11.6371 16.793L11.6424 16.7879L11.6477 16.7827H11.6504L11.6557 16.7776L11.661 16.775L11.6636 16.7725L11.6716 16.7673L11.6742 16.7647L11.6795 16.7622L11.6875 16.757L11.6954 16.7519L11.7007 16.7493L11.7034 16.7468L11.7113 16.7416L11.714 16.7391L11.7166 16.7365L11.7193 16.7339L11.7299 16.7262H11.7325L11.7405 16.7236L11.7484 16.7185L11.7537 16.7159L11.7564 16.7134L11.7643 16.7082L11.767 16.7057L11.7723 16.7031L11.7802 16.6979L11.7881 16.6954L11.7934 16.6928H11.7961L11.804 16.6902L11.8067 16.6877L11.812 16.6851L11.8199 16.6825L11.8279 16.68L11.8332 16.6774H11.8358L11.8438 16.6748L11.8464 16.6723L11.8517 16.6697L11.8676 16.6645L11.8756 16.662H11.8782L11.8862 16.6594L11.8888 16.6568H11.8941L11.9021 16.6543L11.9153 16.6517H11.918L11.9259 16.6491L11.9339 16.6466L11.9418 16.644H11.9445H11.9524L11.9604 16.6414H11.963L11.9763 16.6389H11.9816H11.9895H11.9975H12.0028H12.0054H12.0134H12.0187H12.024H12.0319H12.0399V16.6363H28.0482C28.2205 16.6363 28.3741 16.7108 28.4801 16.829H28.4828L28.5092 16.8624L28.5119 16.8649L28.5251 16.8855L28.5278 16.8881L28.5437 16.9112L31.3416 20.7368L31.3495 20.7471L31.3575 20.7573L31.3601 20.7625L31.3654 20.7676L31.3681 20.7727L31.3734 20.7779L31.376 20.783L31.3813 20.7882L31.3866 20.7959L31.3893 20.801L31.3919 20.8087L31.3946 20.8139L31.3999 20.8216L31.4025 20.8267L31.4078 20.8344L31.4105 20.8395L31.4158 20.8473L31.4184 20.8524L31.4237 20.8601L31.4264 20.8652L31.4317 20.8729L31.4343 20.8781L31.437 20.8858L31.4396 20.8909L31.4423 20.9012V20.9038L31.4449 20.9141L31.4476 20.9192L31.4502 20.9295V20.932L31.4529 20.9423V20.9449L31.4555 20.9552V20.9577L31.4582 20.968V20.9706L31.4608 20.9809V20.9834L31.4635 20.9937V20.9963L31.4661 21.0065V21.0091L31.4688 21.0194V21.022L31.4714 21.0322V21.0348L31.4741 21.0451V21.0477V21.0579V21.0605V21.0708V21.0733V21.0836V21.0862V21.0965V21.099V21.1093V21.1119V21.1222V21.1247V21.135V21.1376L31.4714 21.1479V21.1504L31.4688 21.1607V21.1633L31.4661 21.1735V21.1761L31.4635 21.1864V21.189L31.4608 21.1992V21.2018L31.4582 21.2121V21.2147L31.4555 21.2249V21.2275L31.4529 21.2378V21.2403L31.4502 21.2506V21.2532L31.4476 21.2635V21.266L31.4423 21.2763V21.2789L31.437 21.2892V21.2917L31.4317 21.302L31.429 21.3046L31.4237 21.3149L31.4211 21.3174L31.4158 21.3277L31.4131 21.3303L31.4078 21.338L31.4052 21.3405L31.3999 21.3483L31.3972 21.3534L31.3919 21.3611L31.3893 21.3662L31.384 21.3739L31.3813 21.3791L31.376 21.3868L31.3734 21.3919L31.3681 21.3996L31.3654 21.4048L31.3601 21.4125L31.3575 21.4176L31.3522 21.4253L31.3495 21.4305L31.3442 21.4356L31.3416 21.4407L31.3363 21.4459L31.331 21.451L31.3257 21.4562L31.3204 21.4613L31.3151 21.4664L31.3098 21.4716L31.3045 21.4767L31.2992 21.4819L31.2939 21.487L31.2833 21.4973L20.4176 32.0131L20.415 32.0183L20.4097 32.0234L20.4044 32.0285L20.3991 32.0337L20.3964 32.0388L20.3938 32.0414L20.3911 32.044L20.3885 32.0465L20.3832 32.0491L20.3779 32.0542V32.0568L20.3673 32.0645L20.3646 32.0671L20.3567 32.0722L20.3514 32.0774L20.3461 32.0825L20.3408 32.0851L20.3355 32.0902H20.3328L20.3275 32.0928L20.3222 32.0979L20.3196 32.1005L20.3169 32.103L20.3116 32.1082L20.309 32.1108L20.3037 32.1133L20.2984 32.1159L20.2957 32.1185L20.2931 32.121L20.2878 32.1236L20.2851 32.1262L20.2799 32.1287L20.2745 32.1313L20.2719 32.1339L20.2666 32.1364L20.2613 32.139L20.2587 32.1416L20.2534 32.1441L20.2481 32.1467L20.2428 32.1493L20.2375 32.1519L20.2348 32.1544L20.2295 32.157L20.2242 32.1596L20.2216 32.1621L20.2163 32.1647L20.211 32.1673H20.2083L20.203 32.1698L20.1951 32.1724L20.1898 32.175L20.1818 32.1776L20.1765 32.1801L20.1686 32.1827L20.1553 32.1878L20.15 32.1904L20.1421 32.193L20.1394 32.1955H20.1368L20.1288 32.1981L20.1262 32.2007H20.1235L20.1156 32.2032L20.1129 32.2058H20.1103L20.1023 32.2084L20.097 32.211H20.0944L20.0864 32.2135L20.0811 32.2161L20.0732 32.2187L20.0599 32.2212H20.0546H20.0467H20.0414H20.0361H20.0334H20.0281H20.0202H20.0149H20.0069H20.0016H19.9937H19.9884H19.9858H19.9778H19.9725H19.9699H19.9619H19.9487H19.9434H19.9407H19.9328H19.9195H19.9142H19.9116H19.9036L19.9116 32.2161ZM19.9778 30.2275L23.6686 21.6643H16.2897L19.9805 30.2275H19.9778ZM24.9059 21.6643L21.6179 29.2923L29.5028 21.6643H24.9059ZM18.3298 29.2795L15.0497 21.6643H10.4952L18.3325 29.2795H18.3298ZM14.1939 20.5518L12.0663 18.1162L10.2382 20.5518H14.1939ZM13.2666 17.7745L15.4895 20.318L18.5047 17.7745H13.2666ZM10.2594 7.22006H11.404V8.33254H10.2594V7.22006ZM7.39525 7.22006H8.53984V8.33254H7.39525V7.22006ZM4.53112 7.22006H5.67571V8.33254H4.53112V7.22006ZM37.1864 10.5549H2.81423V33.8861H37.1864V10.5549ZM2.81423 9.44245H37.1864V6.11016H2.81423V9.44245Z"/>
    </g>
    <defs>
        <clipPath id="jclip0_2080_679">
            <rect width="36.6667" height="30" transform="translate(1.66699 5)"/>
        </clipPath>
    </defs>
</symbol><symbol viewBox="0 0 40 40" id="feature-5" xmlns="http://www.w3.org/2000/svg">
    <path d="M36.6671 36.6666H10.9727V35.2777H35.2782V10.9721H36.6671V36.6666Z"/>
    <path d="M33.889 33.8888H6.80566V32.4999H32.5001V6.80548H33.889V33.8888Z"/>
    <path d="M29.7219 4.7222V29.7222H4.7219V4.7222H29.7219ZM31.1108 3.33331H3.33301V31.1111H31.1108V3.33331Z"/>
    <path d="M10.1783 25.2188L8.9873 24.5042L13.154 17.5598C13.2699 17.3674 13.472 17.2417 13.6956 17.225C13.9227 17.2056 14.1394 17.3 14.2824 17.4729L17.1595 20.925L22.1991 13.3653C22.3436 13.1486 22.5977 13.032 22.8561 13.0604C23.1151 13.0903 23.3352 13.2625 23.4269 13.507L27.5936 24.6181L26.2929 25.1056L22.6026 15.2639L17.7991 22.4688C17.6776 22.6514 17.4769 22.7653 17.2581 22.7771C17.0401 22.7861 16.8276 22.6966 16.688 22.5285L13.8415 19.1132L10.1783 25.2188Z"/>
    <path d="M11.6664 13.0556C10.1345 13.0556 8.88867 11.8097 8.88867 10.2778C8.88867 8.74583 10.1345 7.5 11.6664 7.5C13.1984 7.5 14.4442 8.74583 14.4442 10.2778C14.4442 11.8097 13.1984 13.0556 11.6664 13.0556ZM11.6664 8.88889C10.9005 8.88889 10.2776 9.51181 10.2776 10.2778C10.2776 11.0437 10.9005 11.6667 11.6664 11.6667C12.4324 11.6667 13.0553 11.0437 13.0553 10.2778C13.0553 9.51181 12.4324 8.88889 11.6664 8.88889Z"/>
    <path d="M31.1108 24.1666H3.33301V25.5555H31.1108V24.1666Z"/>
</symbol><symbol viewBox="0 0 24 25" id="heart" xmlns="http://www.w3.org/2000/svg">
    <path fill-rule="evenodd" clip-rule="evenodd" d="M12.6924 7.58373C12.3055 7.95505 11.6945 7.95505 11.3076 7.58373L10.6152 6.91927C9.80477 6.14154 8.70994 5.66667 7.5 5.66667C5.01472 5.66667 3 7.68139 3 10.1667C3 12.5493 4.28979 14.5167 6.15176 16.1332C8.01532 17.7511 10.2434 18.8241 11.5746 19.3717C11.853 19.4862 12.147 19.4862 12.4254 19.3717C13.7566 18.8241 15.9847 17.7511 17.8482 16.1332C19.7102 14.5167 21 12.5493 21 10.1667C21 7.68139 18.9853 5.66667 16.5 5.66667C15.2901 5.66667 14.1952 6.14154 13.3848 6.91927L12.6924 7.58373ZM12 5.47624C10.8321 4.35548 9.24649 3.66667 7.5 3.66667C3.91015 3.66667 1 6.57682 1 10.1667C1 16.5349 7.97034 20.0517 10.8138 21.2214C11.5796 21.5364 12.4204 21.5364 13.1862 21.2214C16.0297 20.0517 23 16.5349 23 10.1667C23 6.57682 20.0899 3.66667 16.5 3.66667C14.7535 3.66667 13.1679 4.35548 12 5.47624Z"/>
</symbol><symbol viewBox="0 0 24 24" id="heart-line" xmlns="http://www.w3.org/2000/svg">
    <path d="M12.001 4.52853C14.35 2.42 17.98 2.49 20.2426 4.75736C22.5053 7.02472 22.583 10.637 20.4786 12.993L11.9999 21.485L3.52138 12.993C1.41705 10.637 1.49571 7.01901 3.75736 4.75736C6.02157 2.49315 9.64519 2.41687 12.001 4.52853ZM18.827 6.1701C17.3279 4.66794 14.9076 4.60701 13.337 6.01687L12.0019 7.21524L10.6661 6.01781C9.09098 4.60597 6.67506 4.66808 5.17157 6.17157C3.68183 7.66131 3.60704 10.0473 4.97993 11.6232L11.9999 18.6543L19.0201 11.6232C20.3935 10.0467 20.319 7.66525 18.827 6.1701Z"/>
</symbol><symbol viewBox="0 0 24 24" id="id-card-line" xmlns="http://www.w3.org/2000/svg">
    <path d="M3 6H21V18H3V6ZM2 4C1.44772 4 1 4.44772 1 5V19C1 19.5523 1.44772 20 2 20H22C22.5523 20 23 19.5523 23 19V5C23 4.44772 22.5523 4 22 4H2ZM13 8H19V10H13V8ZM18 12H13V14H18V12ZM10.5 10C10.5 11.3807 9.38071 12.5 8 12.5C6.61929 12.5 5.5 11.3807 5.5 10C5.5 8.61929 6.61929 7.5 8 7.5C9.38071 7.5 10.5 8.61929 10.5 10ZM8 13.5C6.067 13.5 4.5 15.067 4.5 17H11.5C11.5 15.067 9.933 13.5 8 13.5Z"/>
</symbol><symbol viewBox="0 0 16 16" id="info" xmlns="http://www.w3.org/2000/svg">
    <path fill-rule="evenodd" clip-rule="evenodd" d="M7.99967 14.6667C11.6816 14.6667 14.6663 11.6819 14.6663 8.00004C14.6663 4.31814 11.6816 1.33337 7.99967 1.33337C4.31778 1.33337 1.33301 4.31814 1.33301 8.00004C1.33301 11.6819 4.31778 14.6667 7.99967 14.6667Z" stroke-width="2" stroke-linecap="round" stroke-linejoin="round"/>
    <path d="M8 10.6667V8" stroke-width="3" stroke-linecap="square"/>
    <circle cx="7.99967" cy="5.33329" r="0.666667"/>
</symbol><symbol viewBox="0 0 24 24" id="mail" xmlns="http://www.w3.org/2000/svg">
    <path fill-rule="evenodd" clip-rule="evenodd" d="M4 4H20C21.1 4 22 4.9 22 6V18C22 19.1 21.1 20 20 20H4C2.9 20 2 19.1 2 18V6C2 4.9 2.9 4 4 4Z" stroke-width="2" stroke-linecap="round"/>
    <path d="M22 6L12 13L2 6" stroke-width="2" stroke-linecap="round" stroke-linejoin="round"/>
</symbol><symbol viewBox="0 0 24 24" id="phone" xmlns="http://www.w3.org/2000/svg">
    <path fill-rule="evenodd" clip-rule="evenodd" d="M21.0004 16.9201V19.9201C21.0027 20.4832 20.7675 21.0213 20.3525 21.402C19.9375 21.7827 19.3813 21.9708 18.8204 21.9201C15.7433 21.5857 12.7874 20.5342 10.1904 18.8501C7.77426 17.3148 5.72576 15.2663 4.19043 12.8501C2.50041 10.2413 1.44867 7.27109 1.12043 4.1801C1.0699 3.62097 1.2567 3.06635 1.63519 2.65172C2.01369 2.23709 2.54902 2.00063 3.11043 2.0001H6.11043C7.11429 1.99022 7.96993 2.72607 8.11043 3.7201C8.23705 4.68016 8.47188 5.62283 8.81043 6.5301C9.08516 7.26097 8.90944 8.0849 8.36043 8.6401L7.09043 9.9101C8.51398 12.4136 10.5869 14.4865 13.0904 15.9101L14.3604 14.6401C14.9156 14.0911 15.7396 13.9154 16.4704 14.1901C17.3777 14.5286 18.3204 14.7635 19.2804 14.8901C20.286 15.032 21.0256 15.9049 21.0004 16.9201Z" stroke-width="2" stroke-linecap="round"/>
</symbol><symbol viewBox="0 0 16 17" id="search" xmlns="http://www.w3.org/2000/svg">
    <path fill-rule="evenodd" clip-rule="evenodd" d="M7 12.5C9.76142 12.5 12 10.2614 12 7.5C12 4.73858 9.76142 2.5 7 2.5C4.23858 2.5 2 4.73858 2 7.5C2 10.2614 4.23858 12.5 7 12.5Z" stroke-width="2" stroke-linecap="round" stroke-linejoin="round"/>
    <path d="M13.9999 14.5001L10.5332 11.0334" stroke-width="2" stroke-linecap="square" stroke-linejoin="round"/>
</symbol><symbol viewBox="0 0 24 24" id="search-line" xmlns="http://www.w3.org/2000/svg">
    <path d="M18.031 16.6168L22.3137 20.8995L20.8995 22.3137L16.6168 18.031C15.0769 19.263 13.124 20 11 20C6.032 20 2 15.968 2 11C2 6.032 6.032 2 11 2C15.968 2 20 6.032 20 11C20 13.124 19.263 15.0769 18.031 16.6168ZM16.0247 15.8748C17.2475 14.6146 18 12.8956 18 11C18 7.1325 14.8675 4 11 4C7.1325 4 4 7.1325 4 11C4 14.8675 7.1325 18 11 18C12.8956 18 14.6146 17.2475 15.8748 16.0247L16.0247 15.8748Z"/>
</symbol><symbol viewBox="0 0 24 24" id="user" xmlns="http://www.w3.org/2000/svg">
    <path d="M18.5588 19.5488C17.5654 16.8918 15.0036 15 12 15C8.99638 15 6.4346 16.8918 5.44117 19.5488M18.5588 19.5488C20.6672 17.7154 22 15.0134 22 12C22 6.47715 17.5228 2 12 2C6.47715 2 2 6.47715 2 12C2 15.0134 3.33285 17.7154 5.44117 19.5488M18.5588 19.5488C16.8031 21.0756 14.5095 22 12 22C9.49052 22 7.19694 21.0756 5.44117 19.5488M15 9C15 10.6569 13.6569 12 12 12C10.3431 12 9 10.6569 9 9C9 7.34315 10.3431 6 12 6C13.6569 6 15 7.34315 15 9Z" stroke-width="1.5" stroke-linejoin="round"/>
</symbol><symbol viewBox="0 0 24 24" id="user-star-line" xmlns="http://www.w3.org/2000/svg">
    <path d="M12 14V16C8.68629 16 6 18.6863 6 22H4C4 17.5817 7.58172 14 12 14ZM12 13C8.685 13 6 10.315 6 7C6 3.685 8.685 1 12 1C15.315 1 18 3.685 18 7C18 10.315 15.315 13 12 13ZM12 11C14.21 11 16 9.21 16 7C16 4.79 14.21 3 12 3C9.79 3 8 4.79 8 7C8 9.21 9.79 11 12 11ZM18 21.5L15.0611 23.0451L15.6224 19.7725L13.2447 17.4549L16.5305 16.9775L18 14L19.4695 16.9775L22.7553 17.4549L20.3776 19.7725L20.9389 23.0451L18 21.5Z"/>
</symbol><symbol id="website" enable-background="new 0 0 497 497" viewBox="0 0 497 497" xmlns="http://www.w3.org/2000/svg">
    <g>
        <path d="m497 128.5v312c0 11.046-8.954 20-20 20h-457c-11.046 0-20-8.954-20-20v-312z"/>
        <g>
            <path d="m290.498 294.5c0-23.196-18.804-42-42-42-7.031 0-13.659 1.728-19.482 4.782-13.386 7.021-19.327 21.053-19.327 37.218 0 23.196 15.613 36.457 38.809 36.457 16.214 0 30.282-3.645 37.282-17.099 3.014-5.792 4.718-12.376 4.718-19.358z"/>
            <path d="m286.468 312.47c-6.73 14.21-21.2 24.03-37.97 24.03-23.2 0-42-18.8-42-42 0-16.77 9.82-31.24 24.03-37.97-2.59 5.45-4.03 11.54-4.03 17.97 0 23.2 18.8 42 42 42 6.43 0 12.52-1.44 17.97-4.03z"/>
        </g>
        <g>
            <path d="m429.496 294.5c0-23.196-18.804-42-42-42-7.031 0-13.659 1.728-19.482 4.782-13.386 7.021-19.327 21.053-19.327 37.218 0 23.196 15.613 36.457 38.809 36.457 16.214 0 30.282-3.645 37.282-17.099 3.014-5.792 4.718-12.376 4.718-19.358z"/>
            <path d="m425.466 312.47c-6.73 14.21-21.2 24.03-37.97 24.03-23.2 0-42-18.8-42-42 0-16.77 9.82-31.24 24.03-37.97-2.59 5.45-4.03 11.54-4.03 17.97 0 23.2 18.8 42 42 42 6.43 0 12.52-1.44 17.97-4.03z"/>
        </g>
        <path d="m497 148.5v-20l-276.011-12.798-220.989 12.798v20 292c0 11.046 8.954 20 20 20h15c-8.28 0-15-6.72-15-15v-291c0-3.314 2.686-6 6-6z"/>
        <g>
            <path d="m497 56.5v72.5h-497v-72.5c0-11.046 8.954-20 20-20h457c11.046 0 20 8.954 20 20z"/>
            <g>
                <path d="m227.758 108.5c-8.255 0-14.947-6.716-14.947-15s6.692-15 14.947-15h208.315c8.255 0 14.947 6.716 14.947 15s-6.692 15-14.947 15z"/>
                <ellipse cx="160.869" cy="93.5" rx="14.947" ry="15"/>
                <path d="m171.361 104.184 12.874-12.869-13.139 1.179z"/>
                <path d="m150.592 82.608 12.562-12.516-2.693 10.408z"/>
                <ellipse cx="98.034" cy="93.5" rx="14.947" ry="15"/>
                <path d="m108.553 104.157 12.382-12.499-12.674.836z"/>
                <path d="m87.757 82.608 12.371-12.459-2.502 10.351z"/>
                <ellipse cx="32.947" cy="93.5" rx="14.947" ry="15"/>
                <path d="m43.769 103.846 12.721-13.186-13.139 1.381z"/>
                <path d="m22.67 82.608 11.622-12.038-1.753 9.93z"/>
            </g>
            <ellipse cx="173.849" cy="80.5" rx="14.947" ry="15"/>
            <path d="m217.514 82.577 12.971-12.991-3.025 14.276z"/>
            <path d="m446.83 103.915 13.149-13.179-10.185 3.381z"/>
            <ellipse cx="110.946" cy="80.5" rx="14.947" ry="15"/>
            <ellipse cx="45.495" cy="80.5" rx="14.947" ry="15"/>
            <path d="m240.737 95.5c-8.255 0-14.947-6.716-14.947-15s6.692-15 14.947-15h208.315c8.255 0 14.947 6.716 14.947 15s-6.692 15-14.947 15z"/>
        </g>
        <path d="m135.893 215 226.628 2c5.523 0 10-4.477 10-10l3.479-7v-30c0-5.523-4.477-10-10-10h-224l-6.107 5c-5.523 0-10 4.477-10 10v30c0 5.523 4.477 10 10 10z"/>
        <path d="m376 200v10c0 5.523-4.477 10-10 10h-234c-5.523 0-10-4.477-10-10v-40c0-5.523 4.477-10 10-10h10v33c0 3.866 3.134 7 7 7z"/>
        <g>
            <path d="m151.5 294.5c0-23.196-18.804-42-42-42-7.031 0-13.659 1.728-19.482 4.782-13.386 7.021-19.327 21.053-19.327 37.218 0 23.196 15.613 36.457 38.809 36.457 16.214 0 30.282-3.645 37.282-17.099 3.014-5.792 4.718-12.376 4.718-19.358z"/>
            <path d="m147.47 312.47c-6.73 14.21-21.2 24.03-37.97 24.03-23.2 0-42-18.8-42-42 0-16.77 9.82-31.24 24.03-37.97-2.59 5.45-4.03 11.54-4.03 17.97 0 23.2 18.8 42 42 42 6.43 0 12.52-1.44 17.97-4.03z"/>
        </g>
        <g>
            <g>
                <path d="m149.5 374h-70c-4.142 0-7.5-3.358-7.5-7.5s3.358-7.5 7.5-7.5h70c4.142 0 7.5 3.358 7.5 7.5s-3.358 7.5-7.5 7.5z"/>
            </g>
            <g>
                <path d="m149.5 404h-80c-4.142 0-7.5-3.358-7.5-7.5s3.358-7.5 7.5-7.5h80c4.142 0 7.5 3.358 7.5 7.5s-3.358 7.5-7.5 7.5z"/>
            </g>
            <g>
                <path d="m149.5 434h-80c-4.142 0-7.5-3.358-7.5-7.5s3.358-7.5 7.5-7.5h80c4.142 0 7.5 3.358 7.5 7.5s-3.358 7.5-7.5 7.5z"/>
            </g>
        </g>
        <g>
            <g>
                <path d="m288.5 374h-70c-4.142 0-7.5-3.358-7.5-7.5s3.358-7.5 7.5-7.5h70c4.143 0 7.5 3.358 7.5 7.5s-3.357 7.5-7.5 7.5z"/>
            </g>
            <g>
                <path d="m288.5 404h-80c-4.142 0-7.5-3.358-7.5-7.5s3.358-7.5 7.5-7.5h80c4.143 0 7.5 3.358 7.5 7.5s-3.357 7.5-7.5 7.5z"/>
            </g>
            <g>
                <path d="m288.5 434h-80c-4.142 0-7.5-3.358-7.5-7.5s3.358-7.5 7.5-7.5h80c4.143 0 7.5 3.358 7.5 7.5s-3.357 7.5-7.5 7.5z"/>
            </g>
        </g>
        <g>
            <g>
                <path d="m427.5 374h-70c-4.143 0-7.5-3.358-7.5-7.5s3.357-7.5 7.5-7.5h70c4.143 0 7.5 3.358 7.5 7.5s-3.357 7.5-7.5 7.5z"/>
            </g>
            <g>
                <path d="m427.5 404h-80c-4.143 0-7.5-3.358-7.5-7.5s3.357-7.5 7.5-7.5h80c4.143 0 7.5 3.358 7.5 7.5s-3.357 7.5-7.5 7.5z"/>
            </g>
            <g>
                <path d="m427.5 434h-80c-4.143 0-7.5-3.358-7.5-7.5s3.357-7.5 7.5-7.5h80c4.143 0 7.5 3.358 7.5 7.5s-3.357 7.5-7.5 7.5z"/>
            </g>
        </g>
    </g>
</symbol><symbol viewBox="0 0 24 24" id="zoom" xmlns="http://www.w3.org/2000/svg">
    <path fill-rule="evenodd" clip-rule="evenodd" d="M10.5 18C14.6421 18 18 14.6421 18 10.5C18 6.35786 14.6421 3 10.5 3C6.35786 3 3 6.35786 3 10.5C3 14.6421 6.35786 18 10.5 18Z" stroke-width="2" stroke-linecap="round" stroke-linejoin="round"/>
    <path d="M21 21L15.8 15.8" stroke-width="2" stroke-linecap="round" stroke-linejoin="round"/>
</symbol></svg>