<svg width="40" height="40" viewBox="0 0 40 40" fill="none" xmlns="http://www.w3.org/2000/svg">
<path d="M33.1656 14.4008L30.6072 11.854C30.549 11.7953 30.4787 11.7484 30.4006 11.7162C30.3224 11.684 30.2381 11.6671 30.1528 11.6666H27.2895C27.1244 11.6666 26.966 11.7283 26.8493 11.8381C26.7326 11.9479 26.667 12.0968 26.667 12.2521V16.0811C26.667 16.2364 26.7326 16.3853 26.8493 16.4951C26.966 16.6049 27.1244 16.6666 27.2895 16.6666H32.7112C32.8763 16.6666 33.0346 16.6049 33.1513 16.4951C33.2681 16.3853 33.3337 16.2364 33.3337 16.0811V14.8048C33.3329 14.6552 33.273 14.5112 33.1656 14.4008ZM32.0887 15.4957H27.9119V12.8376H29.8852L32.0887 15.0331V15.4957Z" fill="#3AAFA9"/>
<path d="M39.6632 17.6851L32.4211 8.65505C32.2836 8.48356 32.1121 8.34514 31.9182 8.24935C31.7244 8.15356 31.5128 8.10269 31.2982 8.10025H24.7789C24.3905 8.10217 24.0186 8.26353 23.7439 8.54924C23.4692 8.83494 23.3141 9.2219 23.3123 9.62594V19.2327H22.4281V12.013C22.4281 11.8194 22.3541 11.6337 22.2225 11.4968C22.0909 11.3599 21.9124 11.283 21.7263 11.283H17.0737V4.06337C17.0737 3.86976 16.9998 3.68409 16.8681 3.54719C16.7365 3.41028 16.558 3.33337 16.3719 3.33337H8.72982C8.54371 3.33337 8.36521 3.41028 8.23361 3.54719C8.10201 3.68409 8.02807 3.86976 8.02807 4.06337V11.283H3.38246C3.19634 11.283 3.01785 11.3599 2.88624 11.4968C2.75464 11.6337 2.6807 11.8194 2.6807 12.013V19.2327H0.701754C0.515638 19.2327 0.337144 19.3096 0.205539 19.4465C0.0739346 19.5834 0 19.7691 0 19.9627V27.9123C0 28.106 0.0739346 28.2916 0.205539 28.4285C0.337144 28.5654 0.515638 28.6423 0.701754 28.6423H4.8C4.43256 29.3825 4.23153 30.1999 4.21209 31.0327C4.19265 31.8655 4.3553 32.692 4.68777 33.4498C5.02025 34.2077 5.51385 34.8771 6.13135 35.4075C6.74884 35.938 7.47409 36.3156 8.25236 36.5118C9.03063 36.7081 9.84159 36.718 10.624 36.5406C11.4065 36.3632 12.14 36.0033 12.7692 35.488C13.3984 34.9727 13.9069 34.3154 14.2563 33.5658C14.6056 32.8162 14.7867 31.9939 14.786 31.1608C14.785 30.2836 14.5804 29.4196 14.1895 28.6423H26.9754C26.6076 29.3821 26.4061 30.1991 26.3862 31.0317C26.3663 31.8643 26.5285 32.6907 26.8606 33.4486C27.1927 34.2064 27.686 34.8758 28.3032 35.4063C28.9204 35.9368 29.6454 36.3145 30.4234 36.5109C31.2015 36.7073 32.0123 36.7172 32.7946 36.5399C33.5768 36.3626 34.3102 36.0027 34.9392 35.4874C35.5682 34.9721 36.0764 34.3149 36.4255 33.5654C36.7746 32.8159 36.9555 31.9937 36.9544 31.1608C36.9558 30.2842 36.7536 29.4202 36.3649 28.6423H39.2982C39.4844 28.6423 39.6629 28.5654 39.7945 28.4285C39.9261 28.2916 40 28.106 40 27.9123V18.6633C39.9996 18.3066 39.8806 17.961 39.6632 17.6851ZM21.0246 12.743V19.2327H14.786V12.743H21.0246ZM9.43158 4.79337H15.6702V11.283H9.43158V4.79337ZM13.3825 12.743V19.2327H11.7263V12.743H13.3825ZM4.08421 12.743H10.3228V19.2327H4.08421V12.743ZM9.49474 35.205C8.74317 35.2064 8.00744 34.9803 7.37721 34.5543C6.74698 34.1284 6.24945 33.5209 5.94524 32.806C5.64103 32.0911 5.54328 31.2996 5.6639 30.5279C5.78452 29.7562 6.11829 29.0377 6.62456 28.4598C6.652 28.4298 6.67777 28.3981 6.70175 28.3649C7.14687 27.8839 7.69968 27.5251 8.31073 27.3207C8.92178 27.1164 9.57201 27.0728 10.2032 27.1938C10.8344 27.3149 11.427 27.5968 11.9278 28.0144C12.4286 28.4321 12.8221 28.9723 13.073 29.5869C13.3239 30.2014 13.4245 30.8711 13.3657 31.536C13.3069 32.2008 13.0906 32.8402 12.7361 33.3968C12.3816 33.9534 11.8999 34.4099 11.3343 34.7255C10.7686 35.041 10.1366 35.2058 9.49474 35.205ZM23.3123 27.1824H13.1368C12.1573 26.2074 10.8539 25.6632 9.49825 25.6632C8.14257 25.6632 6.83917 26.2074 5.85965 27.1824H1.40351V20.6927H23.3123V27.1824ZM31.6702 35.205C30.902 35.2057 30.1508 34.9695 29.5116 34.5261C28.8725 34.0827 28.3741 33.4521 28.0795 32.7141C27.7848 31.9761 27.7072 31.1637 27.8564 30.3798C28.0056 29.5959 28.3749 28.8756 28.9176 28.31C29.4604 27.7444 30.1521 27.3589 30.9055 27.2023C31.6588 27.0457 32.4398 27.125 33.1498 27.4301C33.8599 27.7353 34.4669 28.2526 34.8943 28.9167C35.3217 29.5807 35.5502 30.3617 35.5509 31.1608C35.5514 32.2323 35.143 33.2602 34.4153 34.0186C33.6876 34.7769 32.7002 35.2037 31.6702 35.205ZM38.5965 24.0069H36.9403V22.2841H38.5965V24.0069ZM38.5965 20.8241H36.9403C36.5685 20.8252 36.2121 20.9794 35.9491 21.253C35.6862 21.5265 35.538 21.8972 35.5368 22.2841V24.0069C35.538 24.3937 35.6862 24.7644 35.9491 25.038C36.2121 25.3115 36.5685 25.4657 36.9403 25.4669H38.5965V27.1824H35.3053C34.3269 26.2079 33.0247 25.6639 31.6702 25.6639C30.3157 25.6639 29.0134 26.2079 28.0351 27.1824H24.7158V9.62594C24.7173 9.60907 24.7245 9.59328 24.736 9.58129C24.7475 9.5693 24.7627 9.56186 24.7789 9.56024L31.3404 9.58944L38.5965 18.6633V20.8241Z" fill="#3AAFA9"/>
</svg>
