<svg width="40" height="41" viewBox="0 0 40 41" fill="none" xmlns="http://www.w3.org/2000/svg">
<path d="M3.33301 10.875V32.5417" stroke="#3AAFA9" stroke-linecap="round" stroke-linejoin="round"/>
<path d="M36.667 10.875V32.5417" stroke="#3AAFA9" stroke-linecap="round" stroke-linejoin="round"/>
<path d="M9.16634 27.5416H19.9997V39.2083H9.16634C8.94533 39.2083 8.73337 39.1205 8.57709 38.9642C8.42081 38.8079 8.33301 38.596 8.33301 38.375V28.375C8.33301 28.1539 8.42081 27.942 8.57709 27.7857C8.73337 27.6294 8.94533 27.5416 9.16634 27.5416V27.5416Z" stroke="#3AAFA9" stroke-linecap="round" stroke-linejoin="round"/>
<path d="M20 27.5416H30.8333C31.0543 27.5416 31.2663 27.6294 31.4226 27.7857C31.5789 27.942 31.6667 28.1539 31.6667 28.375V38.375C31.6667 38.596 31.5789 38.8079 31.4226 38.9642C31.2663 39.1205 31.0543 39.2083 30.8333 39.2083H20V27.5416Z" stroke="#3AAFA9" stroke-linecap="round" stroke-linejoin="round"/>
<path d="M14.1663 15.875H24.1663C24.3874 15.875 24.5993 15.9628 24.7556 16.1191C24.9119 16.2754 24.9997 16.4873 24.9997 16.7083V27.5417H13.333V16.7083C13.333 16.4873 13.4208 16.2754 13.5771 16.1191C13.7334 15.9628 13.9453 15.875 14.1663 15.875V15.875Z" stroke="#3AAFA9" stroke-linecap="round" stroke-linejoin="round"/>
<path d="M16.667 15.875H21.667V20.0417C21.667 20.2627 21.5792 20.4746 21.4229 20.6309C21.2666 20.7872 21.0547 20.875 20.8337 20.875H17.5003C17.2793 20.875 17.0673 20.7872 16.9111 20.6309C16.7548 20.4746 16.667 20.2627 16.667 20.0417V15.875Z" stroke="#3AAFA9" stroke-linecap="round" stroke-linejoin="round"/>
<path d="M11.667 27.5416H16.667V31.7083C16.667 31.9293 16.5792 32.1413 16.4229 32.2975C16.2666 32.4538 16.0547 32.5416 15.8337 32.5416H12.5003C12.2793 32.5416 12.0674 32.4538 11.9111 32.2975C11.7548 32.1413 11.667 31.9293 11.667 31.7083V27.5416Z" stroke="#3AAFA9" stroke-linecap="round" stroke-linejoin="round"/>
<path d="M23.333 27.5416H28.333V31.7083C28.333 31.9293 28.2452 32.1413 28.0889 32.2975C27.9327 32.4538 27.7207 32.5416 27.4997 32.5416H24.1663C23.9453 32.5416 23.7334 32.4538 23.5771 32.2975C23.4208 32.1413 23.333 31.9293 23.333 31.7083V27.5416Z" stroke="#3AAFA9" stroke-linecap="round" stroke-linejoin="round"/>
<path d="M37.5004 10.875C37.7214 10.875 37.9333 10.7872 38.0896 10.6309C38.2459 10.4746 38.3337 10.2627 38.3337 10.0416V8.14331C38.3339 7.9682 38.279 7.79746 38.1766 7.65535C38.0743 7.51324 37.9298 7.40698 37.7637 7.35164L20.5004 1.86998C20.1718 1.76551 19.8189 1.76551 19.4904 1.86998L2.25703 7.36164C2.08497 7.41416 1.93453 7.52095 1.82819 7.66605C1.72184 7.81114 1.66531 7.98676 1.66703 8.16664V10.0416C1.66703 10.2627 1.75483 10.4746 1.91111 10.6309C2.06739 10.7872 2.27935 10.875 2.50036 10.875H37.5004Z" stroke="#3AAFA9" stroke-linecap="round" stroke-linejoin="round"/>
</svg>
