<svg width="40" height="40" viewBox="0 0 40 40" fill="none" xmlns="http://www.w3.org/2000/svg">
<g clip-path="url(#clip0_2080_679)">
<path d="M2.23929 5.00025H2.25518H37.7587C38.074 5.00025 38.331 5.24947 38.331 5.5552V5.57062V9.98455V9.99997V10.0154V34.4436C38.331 34.7493 38.074 34.9986 37.7587 34.9986H37.7428H2.23929C1.924 34.9986 1.66699 34.7493 1.66699 34.4436V34.4282V10.0128V9.9974V9.98198V5.55263C1.66699 5.2469 1.924 4.99768 2.23929 4.99768V5.00025ZM27.4468 32.7762C27.1315 32.7762 26.8745 32.527 26.8745 32.2212C26.8745 31.9155 27.1315 31.6663 27.4468 31.6663H33.13C33.4453 31.6663 33.7023 31.9155 33.7023 32.2212C33.7023 32.527 33.4453 32.7762 33.13 32.7762H27.4468ZM29.7386 29.9988C29.4233 29.9988 29.1663 29.7496 29.1663 29.4439C29.1663 29.1382 29.4233 28.8889 29.7386 28.8889H35.4218C35.7371 28.8889 35.9941 29.1382 35.9941 29.4439C35.9941 29.7496 35.7371 29.9988 35.4218 29.9988H29.7386ZM4.53112 12.7773C4.21583 12.7773 3.95882 12.5281 3.95882 12.2224C3.95882 11.9166 4.21583 11.6674 4.53112 11.6674H10.2143C10.5296 11.6674 10.7866 11.9166 10.7866 12.2224C10.7866 12.5281 10.5296 12.7773 10.2143 12.7773H4.53112ZM6.82295 15.5546C6.50766 15.5546 6.25066 15.3054 6.25066 14.9997C6.25066 14.6939 6.50766 14.4447 6.82295 14.4447H12.5062C12.8215 14.4447 13.0785 14.6939 13.0785 14.9997C13.0785 15.3054 12.8215 15.5546 12.5062 15.5546H6.82295ZM21.5675 17.777L24.5827 20.3206L26.8056 17.777H21.5675ZM28.0005 18.1239L25.8783 20.5544H29.7784L28.0005 18.1239ZM23.1122 20.5544L20.0361 17.9569L16.96 20.5544H23.1122ZM19.9116 32.2161L19.9063 32.2135H19.8983H19.8957L19.8798 32.211L19.8718 32.2084H19.8692H19.8665L19.8559 32.2058H19.8533H19.8506L19.84 32.2032H19.8374H19.8347L19.8241 32.2007H19.8215H19.8188L19.8082 32.1981L19.795 32.1955L19.7817 32.1904H19.7791L19.7685 32.1853H19.7658L19.7552 32.1801H19.7526H19.7499L19.7393 32.175H19.7367H19.734L19.7235 32.1698H19.7208L19.7182 32.1673L19.7102 32.1621L19.7076 32.1596L19.6996 32.1544L19.6943 32.1519L19.6864 32.1467L19.6811 32.1441L19.6731 32.139L19.6678 32.1364L19.6599 32.1313L19.6546 32.1287L19.6493 32.1236L19.644 32.121L19.6387 32.1159L19.6334 32.1133L19.6281 32.1082L19.6254 32.1056L19.6201 32.103L19.6148 32.0979L19.6122 32.0953L19.6069 32.0928L19.6016 32.0876L19.5989 32.0851L19.5936 32.0825L19.5883 32.0774L19.5857 32.0748L19.583 32.0722L19.5777 32.0696L19.5751 32.0671L19.5724 32.0645L19.5671 32.0594L19.5645 32.0542L19.5618 32.0517L19.5539 32.044L19.5512 32.0414L19.5486 32.0362L19.5433 32.0311L19.538 32.026L19.5327 32.0208L8.72001 21.5153C8.59813 21.4125 8.52129 21.2635 8.52129 21.0965C8.52129 20.9629 8.56898 20.8421 8.65112 20.7445L11.5364 16.8983L11.5444 16.8881L11.5497 16.8829L11.555 16.8778L11.5576 16.8752L11.5629 16.8675L11.5656 16.8649L11.5682 16.8624L11.5735 16.8547L11.5788 16.8495L11.5841 16.8444L11.5868 16.8418L11.5921 16.8341L11.5947 16.8315L11.6 16.8264L11.6053 16.8213L11.6106 16.8161L11.6159 16.811L11.6186 16.8084L11.6239 16.8033L11.6265 16.8007L11.6292 16.7981L11.6371 16.793L11.6424 16.7879L11.6477 16.7827H11.6504L11.6557 16.7776L11.661 16.775L11.6636 16.7725L11.6716 16.7673L11.6742 16.7647L11.6795 16.7622L11.6875 16.757L11.6954 16.7519L11.7007 16.7493L11.7034 16.7468L11.7113 16.7416L11.714 16.7391L11.7166 16.7365L11.7193 16.7339L11.7299 16.7262H11.7325L11.7405 16.7236L11.7484 16.7185L11.7537 16.7159L11.7564 16.7134L11.7643 16.7082L11.767 16.7057L11.7723 16.7031L11.7802 16.6979L11.7881 16.6954L11.7934 16.6928H11.7961L11.804 16.6902L11.8067 16.6877L11.812 16.6851L11.8199 16.6825L11.8279 16.68L11.8332 16.6774H11.8358L11.8438 16.6748L11.8464 16.6723L11.8517 16.6697L11.8676 16.6645L11.8756 16.662H11.8782L11.8862 16.6594L11.8888 16.6568H11.8941L11.9021 16.6543L11.9153 16.6517H11.918L11.9259 16.6491L11.9339 16.6466L11.9418 16.644H11.9445H11.9524L11.9604 16.6414H11.963L11.9763 16.6389H11.9816H11.9895H11.9975H12.0028H12.0054H12.0134H12.0187H12.024H12.0319H12.0399V16.6363H28.0482C28.2205 16.6363 28.3741 16.7108 28.4801 16.829H28.4828L28.5092 16.8624L28.5119 16.8649L28.5251 16.8855L28.5278 16.8881L28.5437 16.9112L31.3416 20.7368L31.3495 20.7471L31.3575 20.7573L31.3601 20.7625L31.3654 20.7676L31.3681 20.7727L31.3734 20.7779L31.376 20.783L31.3813 20.7882L31.3866 20.7959L31.3893 20.801L31.3919 20.8087L31.3946 20.8139L31.3999 20.8216L31.4025 20.8267L31.4078 20.8344L31.4105 20.8395L31.4158 20.8473L31.4184 20.8524L31.4237 20.8601L31.4264 20.8652L31.4317 20.8729L31.4343 20.8781L31.437 20.8858L31.4396 20.8909L31.4423 20.9012V20.9038L31.4449 20.9141L31.4476 20.9192L31.4502 20.9295V20.932L31.4529 20.9423V20.9449L31.4555 20.9552V20.9577L31.4582 20.968V20.9706L31.4608 20.9809V20.9834L31.4635 20.9937V20.9963L31.4661 21.0065V21.0091L31.4688 21.0194V21.022L31.4714 21.0322V21.0348L31.4741 21.0451V21.0477V21.0579V21.0605V21.0708V21.0733V21.0836V21.0862V21.0965V21.099V21.1093V21.1119V21.1222V21.1247V21.135V21.1376L31.4714 21.1479V21.1504L31.4688 21.1607V21.1633L31.4661 21.1735V21.1761L31.4635 21.1864V21.189L31.4608 21.1992V21.2018L31.4582 21.2121V21.2147L31.4555 21.2249V21.2275L31.4529 21.2378V21.2403L31.4502 21.2506V21.2532L31.4476 21.2635V21.266L31.4423 21.2763V21.2789L31.437 21.2892V21.2917L31.4317 21.302L31.429 21.3046L31.4237 21.3149L31.4211 21.3174L31.4158 21.3277L31.4131 21.3303L31.4078 21.338L31.4052 21.3405L31.3999 21.3483L31.3972 21.3534L31.3919 21.3611L31.3893 21.3662L31.384 21.3739L31.3813 21.3791L31.376 21.3868L31.3734 21.3919L31.3681 21.3996L31.3654 21.4048L31.3601 21.4125L31.3575 21.4176L31.3522 21.4253L31.3495 21.4305L31.3442 21.4356L31.3416 21.4407L31.3363 21.4459L31.331 21.451L31.3257 21.4562L31.3204 21.4613L31.3151 21.4664L31.3098 21.4716L31.3045 21.4767L31.2992 21.4819L31.2939 21.487L31.2833 21.4973L20.4176 32.0131L20.415 32.0183L20.4097 32.0234L20.4044 32.0285L20.3991 32.0337L20.3964 32.0388L20.3938 32.0414L20.3911 32.044L20.3885 32.0465L20.3832 32.0491L20.3779 32.0542V32.0568L20.3673 32.0645L20.3646 32.0671L20.3567 32.0722L20.3514 32.0774L20.3461 32.0825L20.3408 32.0851L20.3355 32.0902H20.3328L20.3275 32.0928L20.3222 32.0979L20.3196 32.1005L20.3169 32.103L20.3116 32.1082L20.309 32.1108L20.3037 32.1133L20.2984 32.1159L20.2957 32.1185L20.2931 32.121L20.2878 32.1236L20.2851 32.1262L20.2799 32.1287L20.2745 32.1313L20.2719 32.1339L20.2666 32.1364L20.2613 32.139L20.2587 32.1416L20.2534 32.1441L20.2481 32.1467L20.2428 32.1493L20.2375 32.1519L20.2348 32.1544L20.2295 32.157L20.2242 32.1596L20.2216 32.1621L20.2163 32.1647L20.211 32.1673H20.2083L20.203 32.1698L20.1951 32.1724L20.1898 32.175L20.1818 32.1776L20.1765 32.1801L20.1686 32.1827L20.1553 32.1878L20.15 32.1904L20.1421 32.193L20.1394 32.1955H20.1368L20.1288 32.1981L20.1262 32.2007H20.1235L20.1156 32.2032L20.1129 32.2058H20.1103L20.1023 32.2084L20.097 32.211H20.0944L20.0864 32.2135L20.0811 32.2161L20.0732 32.2187L20.0599 32.2212H20.0546H20.0467H20.0414H20.0361H20.0334H20.0281H20.0202H20.0149H20.0069H20.0016H19.9937H19.9884H19.9858H19.9778H19.9725H19.9699H19.9619H19.9487H19.9434H19.9407H19.9328H19.9195H19.9142H19.9116H19.9036L19.9116 32.2161ZM19.9778 30.2275L23.6686 21.6643H16.2897L19.9805 30.2275H19.9778ZM24.9059 21.6643L21.6179 29.2923L29.5028 21.6643H24.9059ZM18.3298 29.2795L15.0497 21.6643H10.4952L18.3325 29.2795H18.3298ZM14.1939 20.5518L12.0663 18.1162L10.2382 20.5518H14.1939ZM13.2666 17.7745L15.4895 20.318L18.5047 17.7745H13.2666ZM10.2594 7.22006H11.404V8.33254H10.2594V7.22006ZM7.39525 7.22006H8.53984V8.33254H7.39525V7.22006ZM4.53112 7.22006H5.67571V8.33254H4.53112V7.22006ZM37.1864 10.5549H2.81423V33.8861H37.1864V10.5549ZM2.81423 9.44245H37.1864V6.11016H2.81423V9.44245Z" fill="#3AAFA9"/>
</g>
<defs>
<clipPath id="clip0_2080_679">
<rect width="36.6667" height="30" fill="white" transform="translate(1.66699 5)"/>
</clipPath>
</defs>
</svg>
