<svg width="40" height="41" viewBox="0 0 40 41" fill="none" xmlns="http://www.w3.org/2000/svg">
<path d="M0.799805 31.7936H23.9998V39.6064L28.7998 36.7264L33.5998 39.6064V31.7936H39.1998V1.39355H0.799805V31.7936ZM32.2118 26.3648C32.1398 26.4376 32.063 26.5048 31.987 26.5728C31.9438 26.6112 31.9038 26.652 31.859 26.6888C31.8094 26.7304 31.7566 26.7656 31.7054 26.8048C31.031 27.3208 30.2182 27.664 29.331 27.7624C29.3166 27.764 29.3022 27.7672 29.287 27.7688C29.1262 27.7848 28.963 27.7936 28.7982 27.7936C28.6334 27.7936 28.4702 27.7848 28.3094 27.7688C28.295 27.7672 28.2806 27.764 28.2654 27.7624C27.3782 27.664 26.5662 27.3208 25.891 26.8048C25.8398 26.7656 25.787 26.7296 25.7374 26.6888C25.6934 26.652 25.6526 26.6112 25.6094 26.5728C25.5334 26.5048 25.4574 26.4376 25.3846 26.3648C24.5278 25.4976 23.9966 24.3072 23.9966 22.9936C23.9966 20.3464 26.1494 18.1936 28.7966 18.1936C31.4438 18.1936 33.5966 20.3464 33.5966 22.9936C33.5998 24.3064 33.0694 25.4968 32.2118 26.3648ZM31.9998 36.7808L28.7998 34.8608L25.5998 36.7808V31.7936V28.5376C25.627 28.5536 25.6574 28.564 25.6854 28.5792C25.8974 28.6976 26.1158 28.8064 26.3414 28.9008C26.351 28.9048 26.3614 28.908 26.3718 28.912C27.1214 29.2208 27.9406 29.3936 28.8006 29.3936C29.6606 29.3936 30.4798 29.2208 31.2294 28.912C31.239 28.908 31.2494 28.9048 31.2598 28.9008C31.4854 28.8064 31.7038 28.6984 31.9158 28.5792C31.9438 28.564 31.9742 28.5536 32.0014 28.5376V31.7936V36.7808H31.9998ZM2.3998 2.99355H37.5998V30.1936H33.5998V27.2128C34.5926 26.0848 35.1998 24.6104 35.1998 22.9936C35.1998 19.4648 32.3286 16.5936 28.7998 16.5936C25.271 16.5936 22.3998 19.4648 22.3998 22.9936C22.3998 24.6104 23.007 26.0848 23.9998 27.2128V30.1936H2.3998V2.99355Z" fill="#3AAFA9"/>
<path d="M30.3996 6.1936H9.59961V7.7936H30.3996V6.1936Z" fill="#3AAFA9"/>
<path d="M26.3996 10.9935H13.5996V12.5935H26.3996V10.9935Z" fill="#3AAFA9"/>
<path d="M14.3996 25.3936H5.59961V26.9936H14.3996V25.3936Z" fill="#3AAFA9"/>
</svg>
