<svg width="34" height="34" viewBox="0 0 34 34" fill="none" xmlns="http://www.w3.org/2000/svg">
<path d="M19.8215 8.74193L20.013 7.76044C19.5813 7.67622 19.1453 7.88391 18.9387 8.27215C18.7321 8.6604 18.8034 9.13806 19.1144 9.44904L19.8215 8.74193ZM25.258 14.1785L24.5509 14.8856C24.8619 15.1966 25.3396 15.2679 25.7278 15.0613C26.1161 14.8547 26.3237 14.4187 26.2395 13.987L25.258 14.1785ZM19.8215 3.23656L19.9319 2.24267C19.5097 2.19577 19.1039 2.42073 18.92 2.80366C18.7361 3.18659 18.8142 3.64392 19.1148 3.94411L19.8215 3.23656ZM30.7634 14.1647L30.0567 14.8723C30.3573 15.1725 30.8147 15.25 31.1974 15.0656C31.5801 14.8812 31.8046 14.4752 31.7571 14.0531L30.7634 14.1647ZM29.3871 29.277H28.3871L28.3871 29.281L29.3871 29.277ZM26.3866 32.0297L26.2786 33.0238C26.2846 33.0245 26.2906 33.0251 26.2966 33.0256L26.3866 32.0297ZM14.5088 27.8043L15.0529 26.9652L15.0451 26.9603L14.5088 27.8043ZM6.25072 19.5462L7.09476 19.0099L7.09 19.0025L6.25072 19.5462ZM2.02534 7.61333L1.0294 7.70333C1.02987 7.70854 1.03038 7.71374 1.03093 7.71893L2.02534 7.61333ZM4.76427 4.6129V3.6129L4.76332 3.6129L4.76427 4.6129ZM8.8933 4.6129V5.61295L8.90314 5.61285L8.8933 4.6129ZM11.646 6.98021L12.6374 6.84945L12.6361 6.84026L11.646 6.98021ZM12.6094 10.8477L11.6725 11.1973L11.6734 11.1996L12.6094 10.8477ZM11.9901 13.7518L12.6972 14.4589L12.7011 14.455L11.9901 13.7518ZM10.2421 15.4998L9.53501 14.7927C9.2167 15.111 9.15031 15.6028 9.37282 15.9941L10.2421 15.4998ZM18.5002 23.7578L18.0059 24.6271C18.3972 24.8497 18.889 24.7833 19.2073 24.465L18.5002 23.7578ZM20.2481 22.0099L19.545 21.2988L19.541 21.3028L20.2481 22.0099ZM23.1522 21.3905L22.8004 22.3266L22.8026 22.3274L23.1522 21.3905ZM27.0197 22.354L27.1594 21.3637L27.1505 21.3626L27.0197 22.354ZM29.3871 25.148L28.3874 25.1231C28.3872 25.1314 28.3871 25.1397 28.3871 25.148H29.3871ZM19.63 9.72343C21.9803 10.182 23.818 12.0197 24.2765 14.37L26.2395 13.987C25.625 10.8375 23.1625 8.37492 20.013 7.76044L19.63 9.72343ZM25.9651 13.4714L20.5286 8.03483L19.1144 9.44904L24.5509 14.8856L25.9651 13.4714ZM19.7111 4.23044C24.9992 4.81791 29.1755 8.98903 29.7697 14.2764L31.7571 14.0531C31.0587 7.83705 26.1488 2.93332 19.9319 2.24267L19.7111 4.23044ZM31.4701 13.4572L20.5281 2.52901L19.1148 3.94411L30.0567 14.8723L31.4701 13.4572ZM28.3871 25.148V29.277H30.3871V25.148H28.3871ZM28.3871 29.281C28.3891 29.7746 28.1829 30.246 27.8193 30.5797L29.1713 32.0534C29.95 31.3391 30.3913 30.3296 30.3871 29.2729L28.3871 29.281ZM27.8193 30.5797C27.4556 30.9133 26.9681 31.0782 26.4766 31.0337L26.2966 33.0256C27.349 33.1207 28.3927 32.7677 29.1713 32.0534L27.8193 30.5797ZM26.4947 31.0355C22.4149 30.5922 18.496 29.1981 15.0529 26.9653L13.9647 28.6433C17.6703 31.0464 21.8879 32.5467 26.2786 33.0238L26.4947 31.0355ZM15.0451 26.9603C11.8435 24.9259 9.12915 22.2115 7.09473 19.0099L5.4067 20.0826C7.59859 23.5319 10.5231 26.4564 13.9725 28.6483L15.0451 26.9603ZM7.09 19.0025C4.84934 15.5438 3.45494 11.6058 3.01975 7.50773L1.03093 7.71893C1.49929 12.1294 2.99999 16.3675 5.41144 20.0899L7.09 19.0025ZM3.02128 7.52333C2.977 7.03334 3.1407 6.5473 3.47239 6.18394L1.99528 4.83557C1.28509 5.61356 0.934594 6.65422 1.0294 7.70333L3.02128 7.52333ZM3.47239 6.18394C3.80409 5.82059 4.27322 5.61336 4.76521 5.6129L4.76332 3.6129C3.70993 3.61389 2.70546 4.05758 1.99528 4.83557L3.47239 6.18394ZM4.76427 5.6129H8.8933V3.6129H4.76427V5.6129ZM8.90314 5.61285C9.78287 5.60419 10.5327 6.24905 10.6558 7.12016L12.6361 6.84026C12.3725 4.97511 10.7671 3.59441 8.88346 3.61295L8.90314 5.61285ZM10.6546 7.11097C10.8387 8.50712 11.1802 9.87796 11.6725 11.1973L13.5463 10.4981C13.1067 9.32007 12.8018 8.09607 12.6374 6.84946L10.6546 7.11097ZM11.6734 11.1996C11.9141 11.8401 11.7601 12.5621 11.279 13.0487L12.7011 14.455C13.7313 13.4132 14.061 11.8673 13.5455 10.4959L11.6734 11.1996ZM11.283 13.0447L9.53501 14.7927L10.9492 16.2069L12.6972 14.4589L11.283 13.0447ZM9.37282 15.9941C11.4211 19.5963 14.4037 22.5789 18.0059 24.6271L18.9945 22.8886C15.7052 21.0182 12.9817 18.2948 11.1114 15.0055L9.37282 15.9941ZM19.2073 24.465L20.9552 22.717L19.541 21.3028L17.7931 23.0507L19.2073 24.465ZM20.9513 22.7209C21.4378 22.2398 22.1599 22.0858 22.8004 22.3266L23.5041 20.4545C22.1327 19.939 20.5867 20.2687 19.545 21.2988L20.9513 22.7209ZM22.8026 22.3274C24.122 22.8198 25.4928 23.1613 26.889 23.3454L27.1505 21.3626C25.9039 21.1981 24.6799 20.8932 23.5018 20.4536L22.8026 22.3274ZM26.8801 23.3442C27.7613 23.4685 28.4094 24.2335 28.3874 25.1231L30.3868 25.1728C30.434 23.2679 29.0462 21.63 27.1594 21.3638L26.8801 23.3442Z" fill="white"/>
</svg>
