<svg width="164" height="62" viewBox="0 0 164 62" fill="none" xmlns="http://www.w3.org/2000/svg">
<path fill-rule="evenodd" clip-rule="evenodd" d="M7 6C6.44771 6 6 6.44771 6 7V49C6 49.5523 6.44771 50 7 50H11V56H7C3.13401 56 0 52.866 0 49V7C0 3.13401 3.13401 0 7 0H49C52.866 0 56 3.134 56 7V49C56 52.866 52.866 56 49 56H45V50H49C49.5523 50 50 49.5523 50 49V7C50 6.44772 49.5523 6 49 6H7Z" fill="#3AAFA9"/>
<path fill-rule="evenodd" clip-rule="evenodd" d="M17 15.5933V40H11V14C11 11.2386 13.2386 9 16 9H17.5401C19.7144 9 21.6395 10.4052 22.3022 12.4761L28 30.2817L33.6978 12.4761C34.3605 10.4052 36.2856 9 38.4599 9H40C42.7614 9 45 11.2386 45 14V40H39V15.5933L32.162 36.9619C31.5829 38.7718 29.9004 40 28 40C26.0996 40 24.4171 38.7718 23.838 36.9619L17 15.5933Z" fill="#3AAFA9"/>
<path d="M26 52.5L11 60.7272L11 44.2728L26 52.5Z" fill="#3AAFA9"/>
<path d="M30 52.5L45 60.7272L45 44.2728L30 52.5Z" fill="#3AAFA9"/>
<path d="M78.812 27H73.392C71.8969 27 70.7381 26.4852 69.9158 25.4555C69.3053 24.6864 69 23.7808 69 22.7388C69 22.379 69.0374 22.0007 69.1121 21.6037L69.6915 18.9056H75.1115L74.5508 21.6037H79.9708L81.1295 16.1888H75.6909L76.8496 10.7926H82.2696L83.4283 5.39628H78.0084L77.429 8.09442H72.009L72.5697 5.39628C72.8937 3.90765 73.7098 2.62371 75.018 1.54445C76.2765 0.514817 77.6533 0 79.1484 0H84.5871C86.0822 0 87.241 0.514817 88.0633 1.54445C88.6614 2.30117 88.9604 3.20055 88.9604 4.24259C88.9604 4.61475 88.923 4.99931 88.8483 5.39628L88.2689 8.09442C87.9076 9.62026 87.0977 10.9042 85.8393 11.9462C84.5808 12.9759 83.1978 13.4907 81.6902 13.4907C83.1978 13.4907 84.3566 14.0117 85.1664 15.0538C85.777 15.8229 86.0822 16.7285 86.0822 17.7705C86.0822 18.1303 86.0449 18.5086 85.9701 18.9056L85.3907 21.6037C85.0294 23.1296 84.2133 24.4135 82.9424 25.4555C81.684 26.4852 80.3072 27 78.812 27Z" fill="#3AAFA9"/>
<path d="M109.369 10.7926H103.949L105.108 5.39628H99.6882L96.2306 21.6037H101.651L102.791 16.1888H108.211L107.071 21.6037C106.697 23.1296 105.881 24.4135 104.622 25.4555C103.364 26.4852 101.987 27 100.492 27H95.0719C93.5767 27 92.418 26.479 91.5956 25.4369C90.9976 24.6802 90.6985 23.7932 90.6985 22.776C90.6985 22.4039 90.7359 22.0131 90.8107 21.6037L94.2682 5.39628C94.6296 3.85803 95.4395 2.57409 96.6979 1.54445C97.9563 0.514817 99.3331 0 100.828 0H106.248C107.743 0 108.902 0.514817 109.724 1.54445C110.335 2.31358 110.64 3.21916 110.64 4.2612C110.64 4.62095 110.603 4.99931 110.528 5.39628L109.369 10.7926Z" fill="#3AAFA9"/>
<path d="M117.088 0H133.348L127.592 27H122.172L126.788 5.39628H121.368L116.752 27H111.332L117.088 0Z" fill="#3AAFA9"/>
<path d="M146.15 16.1888L148.468 5.39628H143.048L140.73 16.1888H146.15ZM149.608 0C151.103 0 152.262 0.514817 153.084 1.54445C153.695 2.31358 154 3.21916 154 4.2612C154 4.62095 153.963 4.99931 153.888 5.39628L149.272 27H143.852L145.01 21.6037H139.59L138.432 27H133.012L137.628 5.39628C137.989 3.85803 138.799 2.57409 140.058 1.54445C141.316 0.514817 142.693 0 144.188 0H149.608Z" fill="#3AAFA9"/>
<path d="M72.144 43.144C71.352 43.144 70.708 42.912 70.212 42.448C69.724 41.984 69.48 41.352 69.48 40.552C69.48 39.592 69.796 38.772 70.428 38.092C71.06 37.404 71.832 37.06 72.744 37.06C73.76 37.06 74.484 37.42 74.916 38.14L74.232 38.656C73.936 38.128 73.448 37.864 72.768 37.864C72.064 37.864 71.496 38.128 71.064 38.656C70.632 39.184 70.416 39.812 70.416 40.54C70.416 41.116 70.584 41.56 70.92 41.872C71.264 42.184 71.7 42.34 72.228 42.34C72.804 42.34 73.292 42.112 73.692 41.656L74.208 42.256C73.632 42.848 72.944 43.144 72.144 43.144ZM77.1494 43H76.2494L77.3414 37.996H75.6614L75.8414 37.204H80.1134L79.9334 37.996H78.2414L77.1494 43ZM83.2855 37.06C83.7255 37.06 84.1215 37.156 84.4735 37.348C84.8335 37.532 85.1095 37.788 85.3015 38.116L85.5055 37.204H86.4055L85.1215 43H84.2215L84.4015 42.172C83.8815 42.82 83.2455 43.144 82.4935 43.144C81.8135 43.144 81.2695 42.932 80.8615 42.508C80.4535 42.084 80.2495 41.5 80.2495 40.756C80.2495 39.764 80.5295 38.9 81.0895 38.164C81.6575 37.428 82.3895 37.06 83.2855 37.06ZM83.4055 37.864C82.7655 37.864 82.2375 38.136 81.8215 38.68C81.4055 39.224 81.1975 39.86 81.1975 40.588C81.1975 41.124 81.3455 41.552 81.6415 41.872C81.9375 42.184 82.3295 42.34 82.8175 42.34C83.1615 42.34 83.4935 42.248 83.8135 42.064C84.1335 41.872 84.3895 41.636 84.5815 41.356L85.1575 38.8C85.0055 38.528 84.7735 38.304 84.4615 38.128C84.1575 37.952 83.8055 37.864 83.4055 37.864ZM86.2039 43.144L86.3719 42.4C86.6439 42.4 86.9039 42.22 87.1519 41.86C87.4079 41.5 87.6839 40.9 87.9799 40.06L88.9879 37.204H93.0199L91.7479 43H90.8479L91.9399 37.996H89.5999L88.8559 40.168C88.4959 41.232 88.1039 41.996 87.6799 42.46C87.2639 42.916 86.7719 43.144 86.2039 43.144ZM94.817 37.204H95.717L95.213 39.448H97.097C97.633 39.448 98.057 39.588 98.369 39.868C98.681 40.148 98.837 40.52 98.837 40.984C98.837 41.536 98.641 42.012 98.249 42.412C97.865 42.804 97.357 43 96.725 43H93.545L94.817 37.204ZM96.941 40.24H95.045L94.613 42.208H96.761C97.105 42.208 97.381 42.1 97.589 41.884C97.805 41.66 97.913 41.384 97.913 41.056C97.913 40.8 97.829 40.6 97.661 40.456C97.493 40.312 97.253 40.24 96.941 40.24ZM100.715 43H99.8145L101.135 37.204H102.035L101.495 39.58H104.519L105.059 37.204H105.959L104.639 43H103.739L104.339 40.372H101.315L100.715 43ZM113.168 43H112.268L113.54 37.204H114.44L113.168 43ZM107.696 37.204H108.596L108.092 39.448H109.976C110.512 39.448 110.936 39.588 111.248 39.868C111.56 40.148 111.716 40.52 111.716 40.984C111.716 41.536 111.52 42.012 111.128 42.412C110.744 42.804 110.236 43 109.604 43H106.424L107.696 37.204ZM109.82 40.24H107.924L107.492 42.208H109.64C109.984 42.208 110.26 42.1 110.468 41.884C110.684 41.66 110.792 41.384 110.792 41.056C110.792 40.8 110.708 40.6 110.54 40.456C110.372 40.312 110.132 40.24 109.82 40.24ZM118.027 43.144C117.155 43.144 116.463 42.912 115.951 42.448C115.447 41.984 115.195 41.36 115.195 40.576C115.195 39.608 115.511 38.78 116.143 38.092C116.775 37.404 117.547 37.06 118.459 37.06C119.211 37.06 119.815 37.296 120.271 37.768C120.727 38.24 120.955 38.848 120.955 39.592C120.955 39.832 120.923 40.1 120.859 40.396H116.131C116.131 40.412 116.127 40.456 116.119 40.528C116.119 40.592 116.119 40.64 116.119 40.672C116.119 41.152 116.291 41.56 116.635 41.896C116.979 42.232 117.463 42.4 118.087 42.4C118.727 42.4 119.283 42.212 119.755 41.836L120.055 42.46C119.479 42.916 118.803 43.144 118.027 43.144ZM116.227 39.736H120.115C120.131 39.672 120.139 39.596 120.139 39.508C120.139 39.012 119.983 38.604 119.671 38.284C119.367 37.964 118.935 37.804 118.375 37.804C117.855 37.804 117.391 37.996 116.983 38.38C116.575 38.756 116.323 39.208 116.227 39.736ZM123.826 44.476L124.294 42.256C124.59 42.2 124.858 42.02 125.098 41.716C125.338 41.412 125.598 40.86 125.878 40.06L126.886 37.204H130.918L129.814 42.208H130.486L129.982 44.476H129.082L129.418 43H125.038L124.714 44.476H123.826ZM127.498 37.996L126.754 40.168C126.394 41.192 125.966 41.872 125.47 42.208H128.914L129.838 37.996H127.498ZM134.609 43.144C133.737 43.144 133.045 42.912 132.533 42.448C132.029 41.984 131.777 41.36 131.777 40.576C131.777 39.608 132.093 38.78 132.725 38.092C133.357 37.404 134.129 37.06 135.041 37.06C135.793 37.06 136.397 37.296 136.853 37.768C137.309 38.24 137.537 38.848 137.537 39.592C137.537 39.832 137.505 40.1 137.441 40.396H132.713C132.713 40.412 132.709 40.456 132.701 40.528C132.701 40.592 132.701 40.64 132.701 40.672C132.701 41.152 132.873 41.56 133.217 41.896C133.561 42.232 134.045 42.4 134.669 42.4C135.309 42.4 135.865 42.212 136.337 41.836L136.637 42.46C136.061 42.916 135.385 43.144 134.609 43.144ZM132.809 39.736H136.697C136.713 39.672 136.721 39.596 136.721 39.508C136.721 39.012 136.565 38.604 136.253 38.284C135.949 37.964 135.517 37.804 134.957 37.804C134.437 37.804 133.973 37.996 133.565 38.38C133.157 38.756 132.905 39.208 132.809 39.736ZM140.267 43H139.367L140.459 37.996H138.779L138.959 37.204H143.231L143.051 37.996H141.359L140.267 43ZM146.403 37.06C146.843 37.06 147.239 37.156 147.591 37.348C147.951 37.532 148.227 37.788 148.419 38.116L148.623 37.204H149.523L148.239 43H147.339L147.519 42.172C146.999 42.82 146.363 43.144 145.611 43.144C144.931 43.144 144.387 42.932 143.979 42.508C143.571 42.084 143.367 41.5 143.367 40.756C143.367 39.764 143.647 38.9 144.207 38.164C144.775 37.428 145.507 37.06 146.403 37.06ZM146.523 37.864C145.883 37.864 145.355 38.136 144.939 38.68C144.523 39.224 144.315 39.86 144.315 40.588C144.315 41.124 144.463 41.552 144.759 41.872C145.055 42.184 145.447 42.34 145.935 42.34C146.279 42.34 146.611 42.248 146.931 42.064C147.251 41.872 147.507 41.636 147.699 41.356L148.275 38.8C148.123 38.528 147.891 38.304 147.579 38.128C147.275 37.952 146.923 37.864 146.523 37.864ZM149.321 43.144L149.489 42.4C149.761 42.4 150.021 42.22 150.269 41.86C150.525 41.5 150.801 40.9 151.097 40.06L152.105 37.204H156.137L154.865 43H153.965L155.057 37.996H152.717L151.973 40.168C151.613 41.232 151.221 41.996 150.797 42.46C150.381 42.916 149.889 43.144 149.321 43.144ZM157.526 43H156.662L157.934 37.204H158.834L157.862 41.632L161.87 37.204H162.758L161.486 43H160.586L161.57 38.488L157.526 43ZM71.208 55H70.308L71.4 49.996H69.72L69.9 49.204H74.172L73.992 49.996H72.3L71.208 55ZM77.2001 55.144C76.7521 55.144 76.3521 55.052 76.0001 54.868C75.6561 54.676 75.3841 54.416 75.1841 54.088L74.4881 57.208H73.5881L75.3641 49.204H76.2641L76.0721 50.032C76.6001 49.384 77.2401 49.06 77.9921 49.06C78.6641 49.06 79.2041 49.272 79.6121 49.696C80.0281 50.12 80.2361 50.704 80.2361 51.448C80.2361 52.432 79.9521 53.296 79.3841 54.04C78.8241 54.776 78.0961 55.144 77.2001 55.144ZM77.0801 54.34C77.7201 54.34 78.2481 54.068 78.6641 53.524C79.0801 52.98 79.2881 52.344 79.2881 51.616C79.2881 51.08 79.1401 50.656 78.8441 50.344C78.5481 50.024 78.1561 49.864 77.6681 49.864C77.3161 49.864 76.9841 49.96 76.6721 50.152C76.3601 50.336 76.1001 50.572 75.8921 50.86L75.3281 53.404C75.4801 53.684 75.7081 53.912 76.0121 54.088C76.3241 54.256 76.6801 54.34 77.0801 54.34ZM80.1433 57.22L80.4553 56.416C80.5993 56.48 80.7873 56.512 81.0193 56.512C81.3393 56.512 81.6273 56.32 81.8833 55.936L82.4713 55.036L81.3673 49.204H82.3153L83.1793 53.956L86.1673 49.204H87.1753L82.7113 56.176C82.2073 56.96 81.6033 57.352 80.8993 57.352C80.6113 57.352 80.3593 57.308 80.1433 57.22ZM89.7341 54.34C90.3741 54.34 90.9101 54.072 91.3421 53.536C91.7741 52.992 91.9901 52.368 91.9901 51.664C91.9901 51.112 91.8381 50.676 91.5341 50.356C91.2301 50.028 90.8061 49.864 90.2621 49.864C89.6221 49.864 89.0861 50.136 88.6541 50.68C88.2221 51.216 88.0061 51.836 88.0061 52.54C88.0061 53.092 88.1581 53.532 88.4621 53.86C88.7661 54.18 89.1901 54.34 89.7341 54.34ZM89.7101 55.144C88.8941 55.144 88.2461 54.912 87.7661 54.448C87.2941 53.976 87.0581 53.352 87.0581 52.576C87.0581 51.84 87.2341 51.108 87.5861 50.38C87.9701 49.5 88.4581 48.84 89.0501 48.4C89.6421 47.96 90.4021 47.684 91.3301 47.572C91.8901 47.484 92.2861 47.396 92.5181 47.308C92.7581 47.22 92.8901 47.116 92.9141 46.996H93.7901C93.6381 47.684 92.7821 48.128 91.2221 48.328C90.3901 48.44 89.7541 48.66 89.3141 48.988C88.8821 49.316 88.5461 49.752 88.3061 50.296C88.9381 49.472 89.6941 49.06 90.5741 49.06C91.3101 49.06 91.8861 49.296 92.3021 49.768C92.7261 50.232 92.9381 50.856 92.9381 51.64C92.9381 52.576 92.6261 53.396 92.0021 54.1C91.3861 54.796 90.6221 55.144 89.7101 55.144ZM96.6359 55.144C95.8199 55.144 95.1719 54.912 94.6919 54.448C94.2199 53.976 93.9839 53.352 93.9839 52.576C93.9839 51.64 94.2919 50.82 94.9079 50.116C95.5319 49.412 96.2999 49.06 97.2119 49.06C98.0279 49.06 98.6719 49.296 99.1439 49.768C99.6239 50.24 99.8639 50.864 99.8639 51.64C99.8639 52.576 99.5519 53.396 98.9279 54.1C98.3119 54.796 97.5479 55.144 96.6359 55.144ZM96.6599 54.34C97.2999 54.34 97.8359 54.072 98.2679 53.536C98.6999 52.992 98.9159 52.368 98.9159 51.664C98.9159 51.112 98.7639 50.676 98.4599 50.356C98.1559 50.028 97.7319 49.864 97.1879 49.864C96.5479 49.864 96.0119 50.136 95.5799 50.68C95.1479 51.216 94.9319 51.836 94.9319 52.54C94.9319 53.092 95.0839 53.532 95.3879 53.86C95.6919 54.18 96.1159 54.34 96.6599 54.34ZM105.447 55H104.547L105.687 49.996H102.663L101.523 55H100.623L101.943 49.204H106.767L105.447 55ZM110.352 55.144C109.904 55.144 109.504 55.052 109.152 54.868C108.808 54.676 108.536 54.416 108.336 54.088L107.64 57.208H106.74L108.516 49.204H109.416L109.224 50.032C109.752 49.384 110.392 49.06 111.144 49.06C111.816 49.06 112.356 49.272 112.764 49.696C113.18 50.12 113.388 50.704 113.388 51.448C113.388 52.432 113.104 53.296 112.536 54.04C111.976 54.776 111.248 55.144 110.352 55.144ZM110.232 54.34C110.872 54.34 111.4 54.068 111.816 53.524C112.232 52.98 112.44 52.344 112.44 51.616C112.44 51.08 112.292 50.656 111.996 50.344C111.7 50.024 111.308 49.864 110.82 49.864C110.468 49.864 110.136 49.96 109.824 50.152C109.512 50.336 109.252 50.572 109.044 50.86L108.48 53.404C108.632 53.684 108.86 53.912 109.164 54.088C109.476 54.256 109.832 54.34 110.232 54.34ZM116.98 55.144C116.164 55.144 115.516 54.912 115.036 54.448C114.564 53.976 114.328 53.352 114.328 52.576C114.328 51.64 114.636 50.82 115.252 50.116C115.876 49.412 116.644 49.06 117.556 49.06C118.372 49.06 119.016 49.296 119.488 49.768C119.968 50.24 120.208 50.864 120.208 51.64C120.208 52.576 119.896 53.396 119.272 54.1C118.656 54.796 117.892 55.144 116.98 55.144ZM117.004 54.34C117.644 54.34 118.18 54.072 118.612 53.536C119.044 52.992 119.26 52.368 119.26 51.664C119.26 51.112 119.108 50.676 118.804 50.356C118.5 50.028 118.076 49.864 117.532 49.864C116.892 49.864 116.356 50.136 115.924 50.68C115.492 51.216 115.276 51.836 115.276 52.54C115.276 53.092 115.428 53.532 115.732 53.86C116.036 54.18 116.46 54.34 117.004 54.34ZM124.327 55H120.967L122.239 49.204H125.191C125.655 49.204 126.027 49.316 126.307 49.54C126.587 49.764 126.727 50.076 126.727 50.476C126.727 50.868 126.607 51.208 126.367 51.496C126.135 51.784 125.819 51.972 125.419 52.06C125.667 52.156 125.863 52.308 126.007 52.516C126.159 52.724 126.235 52.972 126.235 53.26C126.235 53.748 126.063 54.16 125.719 54.496C125.375 54.832 124.911 55 124.327 55ZM122.035 54.208H124.231C124.559 54.208 124.823 54.112 125.023 53.92C125.231 53.728 125.335 53.488 125.335 53.2C125.335 52.968 125.255 52.78 125.095 52.636C124.935 52.492 124.711 52.42 124.423 52.42H122.431L122.035 54.208ZM122.599 51.628H124.795C125.091 51.628 125.327 51.536 125.503 51.352C125.687 51.168 125.779 50.948 125.779 50.692C125.779 50.468 125.695 50.296 125.527 50.176C125.367 50.056 125.147 49.996 124.867 49.996H122.959L122.599 51.628ZM130.491 55.144C129.675 55.144 129.027 54.912 128.547 54.448C128.075 53.976 127.839 53.352 127.839 52.576C127.839 51.64 128.147 50.82 128.763 50.116C129.387 49.412 130.155 49.06 131.067 49.06C131.883 49.06 132.527 49.296 132.999 49.768C133.479 50.24 133.719 50.864 133.719 51.64C133.719 52.576 133.407 53.396 132.783 54.1C132.167 54.796 131.403 55.144 130.491 55.144ZM130.515 54.34C131.155 54.34 131.691 54.072 132.123 53.536C132.555 52.992 132.771 52.368 132.771 51.664C132.771 51.112 132.619 50.676 132.315 50.356C132.011 50.028 131.587 49.864 131.043 49.864C130.403 49.864 129.867 50.136 129.435 50.68C129.003 51.216 128.787 51.836 128.787 52.54C128.787 53.092 128.939 53.532 129.243 53.86C129.547 54.18 129.971 54.34 130.515 54.34ZM133.483 56.476L133.951 54.256C134.247 54.2 134.515 54.02 134.755 53.716C134.995 53.412 135.255 52.86 135.535 52.06L136.543 49.204H140.575L139.471 54.208H140.143L139.639 56.476H138.739L139.075 55H134.695L134.371 56.476H133.483ZM137.155 49.996L136.411 52.168C136.051 53.192 135.623 53.872 135.127 54.208H138.571L139.495 49.996H137.155ZM144.085 55.144C143.269 55.144 142.621 54.912 142.141 54.448C141.669 53.976 141.433 53.352 141.433 52.576C141.433 51.64 141.741 50.82 142.357 50.116C142.981 49.412 143.749 49.06 144.661 49.06C145.477 49.06 146.121 49.296 146.593 49.768C147.073 50.24 147.313 50.864 147.313 51.64C147.313 52.576 147.001 53.396 146.377 54.1C145.761 54.796 144.997 55.144 144.085 55.144ZM144.109 54.34C144.749 54.34 145.285 54.072 145.717 53.536C146.149 52.992 146.365 52.368 146.365 51.664C146.365 51.112 146.213 50.676 145.909 50.356C145.605 50.028 145.181 49.864 144.637 49.864C143.997 49.864 143.461 50.136 143.029 50.68C142.597 51.216 142.381 51.836 142.381 52.54C142.381 53.092 142.533 53.532 142.837 53.86C143.141 54.18 143.565 54.34 144.109 54.34ZM151.432 55H148.072L149.344 49.204H152.296C152.76 49.204 153.132 49.316 153.412 49.54C153.692 49.764 153.832 50.076 153.832 50.476C153.832 50.868 153.712 51.208 153.472 51.496C153.24 51.784 152.924 51.972 152.524 52.06C152.772 52.156 152.968 52.308 153.112 52.516C153.264 52.724 153.34 52.972 153.34 53.26C153.34 53.748 153.168 54.16 152.824 54.496C152.48 54.832 152.016 55 151.432 55ZM149.14 54.208H151.336C151.664 54.208 151.928 54.112 152.128 53.92C152.336 53.728 152.44 53.488 152.44 53.2C152.44 52.968 152.36 52.78 152.2 52.636C152.04 52.492 151.816 52.42 151.528 52.42H149.536L149.14 54.208ZM149.704 51.628H151.9C152.196 51.628 152.432 51.536 152.608 51.352C152.792 51.168 152.884 50.948 152.884 50.692C152.884 50.468 152.8 50.296 152.632 50.176C152.472 50.056 152.252 49.996 151.972 49.996H150.064L149.704 51.628Z" fill="#16243E"/>
</svg>
