<svg width="232" height="89" viewBox="0 0 232 89" fill="none" xmlns="http://www.w3.org/2000/svg">
<path fill-rule="evenodd" clip-rule="evenodd" d="M9.90244 8.51613C9.12116 8.51613 8.4878 9.15159 8.4878 9.93548V69.5484C8.4878 70.3323 9.12116 70.9677 9.90244 70.9677H15.561V79.4839H9.90244C4.43347 79.4839 0 75.0356 0 69.5484V9.93548C0 4.44827 4.43347 0 9.90244 0H69.3171C74.786 0 79.2195 4.44826 79.2195 9.93548V69.5484C79.2195 75.0356 74.786 79.4839 69.3171 79.4839H63.6585V70.9677H69.3171C70.0984 70.9677 70.7317 70.3323 70.7317 69.5484V9.93548C70.7317 9.1516 70.0984 8.51613 69.3171 8.51613H9.90244Z" fill="#3AAFA9"/>
<path fill-rule="evenodd" clip-rule="evenodd" d="M24.0484 22.1324V56.7742H15.5605V19.8709C15.5605 15.9515 18.7273 12.7742 22.6337 12.7742H24.8124C27.8883 12.7742 30.6116 14.7687 31.549 17.708L39.6093 42.9804L47.6696 17.708C48.6071 14.7687 51.3304 12.7742 54.4063 12.7742H56.5849C60.4913 12.7742 63.6581 15.9515 63.6581 19.8709V56.7742H55.1703V22.1324L45.4971 52.462C44.6778 55.031 42.2976 56.7742 39.6093 56.7742C36.921 56.7742 34.5409 55.031 33.7216 52.462L24.0484 22.1324Z" fill="#3AAFA9"/>
<path d="M36.7803 74.5161L15.5608 86.1935L15.5608 62.8387L36.7803 74.5161Z" fill="#3AAFA9"/>
<path d="M42.4395 74.5161L63.659 86.1935L63.659 62.8387L42.4395 74.5161Z" fill="#3AAFA9"/>
<path d="M113.123 42.5806H104.553C102.19 42.5806 100.357 41.7687 99.0573 40.145C98.092 38.932 97.6094 37.5038 97.6094 35.8605C97.6094 35.2931 97.6685 34.6964 97.7867 34.0704L98.7027 29.8153H107.272L106.386 34.0704H114.955L116.787 25.5308H108.188L110.02 17.0205H118.589L120.421 8.51026H111.852L110.936 12.7654H102.367L103.253 8.51026C103.765 6.1626 105.056 4.13775 107.124 2.4357C109.114 0.811898 111.291 0 113.655 0H122.253C124.617 0 126.449 0.811898 127.75 2.4357C128.695 3.62909 129.168 5.04746 129.168 6.69082C129.168 7.27774 129.109 7.88422 128.991 8.51026L128.075 12.7654C127.503 15.1717 126.223 17.1966 124.233 18.84C122.244 20.4638 120.057 21.2757 117.673 21.2757C120.057 21.2757 121.889 22.0973 123.17 23.7407C124.135 24.9536 124.617 26.3818 124.617 28.0252C124.617 28.5925 124.558 29.1892 124.44 29.8153L123.524 34.0704C122.953 36.4767 121.663 38.5016 119.653 40.145C117.664 41.7687 115.487 42.5806 113.123 42.5806Z" fill="#3AAFA9"/>
<path d="M161.436 17.0205H152.867L154.699 8.51026H146.129L140.663 34.0704H149.232L151.035 25.5308H159.604L157.801 34.0704C157.21 36.4767 155.92 38.5016 153.93 40.145C151.941 41.7687 149.764 42.5806 147.4 42.5806H138.831C136.467 42.5806 134.635 41.759 133.334 40.1156C132.389 38.9222 131.916 37.5234 131.916 35.9192C131.916 35.3323 131.975 34.716 132.093 34.0704L137.56 8.51026C138.131 6.08435 139.412 4.05949 141.401 2.4357C143.391 0.811898 145.568 0 147.932 0H156.501C158.865 0 160.697 0.811898 161.997 2.4357C162.963 3.64865 163.445 5.07681 163.445 6.72017C163.445 7.28752 163.386 7.88422 163.268 8.51026L161.436 17.0205Z" fill="#3AAFA9"/>
<path d="M173.64 0H199.348L190.246 42.5806H181.677L188.976 8.51026H180.407L173.108 42.5806H164.539L173.64 0Z" fill="#3AAFA9"/>
<path d="M219.589 25.5308L223.253 8.51026H214.684L211.02 25.5308H219.589ZM225.056 0C227.419 0 229.252 0.811898 230.552 2.4357C231.517 3.64865 232 5.07681 232 6.72017C232 7.28752 231.941 7.88422 231.822 8.51026L224.524 42.5806H215.954L217.786 34.0704H209.217L207.385 42.5806H198.816L206.114 8.51026C206.686 6.08435 207.966 4.05949 209.956 2.4357C211.945 0.811898 214.122 0 216.486 0H225.056Z" fill="#3AAFA9"/>
<path d="M101.378 68.2481C100.258 68.2481 99.3465 67.9189 98.6449 67.2603C97.9545 66.6017 97.6094 65.7047 97.6094 64.5692C97.6094 63.2066 98.0564 62.0427 98.9504 61.0776C99.8445 60.1011 100.937 59.6128 102.227 59.6128C103.664 59.6128 104.688 60.1238 105.299 61.1457L104.332 61.8781C103.913 61.1287 103.223 60.754 102.261 60.754C101.265 60.754 100.461 61.1287 99.8502 61.8781C99.239 62.6275 98.9335 63.5189 98.9335 64.5521C98.9335 65.3697 99.1711 65.9999 99.6464 66.4427C100.133 66.8856 100.75 67.107 101.497 67.107C102.312 67.107 103.002 66.7834 103.568 66.1361L104.298 66.9878C103.483 67.828 102.51 68.2481 101.378 68.2481Z" fill="white"/>
<path d="M108.459 68.0438H107.186L108.73 60.9413H106.354L106.608 59.8172H112.652L112.397 60.9413H110.004L108.459 68.0438Z" fill="white"/>
<path d="M117.139 59.6128C117.762 59.6128 118.322 59.7491 118.82 60.0216C119.329 60.2827 119.719 60.6461 119.991 61.1116L120.28 59.8172H121.553L119.736 68.0438H118.463L118.718 66.8685C117.982 67.7883 117.083 68.2481 116.019 68.2481C115.057 68.2481 114.287 67.9472 113.71 67.3454C113.133 66.7436 112.844 65.9147 112.844 64.8587C112.844 63.4507 113.24 62.2244 114.033 61.1798C114.836 60.1351 115.872 59.6128 117.139 59.6128ZM117.309 60.754C116.404 60.754 115.657 61.14 115.068 61.9121C114.48 62.6843 114.185 63.587 114.185 64.6203C114.185 65.3811 114.395 65.9885 114.813 66.4427C115.232 66.8856 115.787 67.107 116.477 67.107C116.964 67.107 117.433 66.9764 117.886 66.7152C118.339 66.4427 118.701 66.1078 118.973 65.7103L119.787 62.0825C119.572 61.6964 119.244 61.3785 118.803 61.1287C118.373 60.8789 117.875 60.754 117.309 60.754Z" fill="white"/>
<path d="M121.268 68.2481L121.505 67.1921C121.89 67.1921 122.258 66.9367 122.609 66.4257C122.971 65.9147 123.361 65.0631 123.78 63.8709L125.206 59.8172H130.91L129.11 68.0438H127.837L129.382 60.9413H126.072L125.019 64.0241C124.51 65.5343 123.955 66.6187 123.356 67.2773C122.767 67.9245 122.071 68.2481 121.268 68.2481Z" fill="white"/>
<path d="M133.452 59.8172H134.725L134.012 63.0022H136.677C137.436 63.0022 138.035 63.2009 138.477 63.5983C138.918 63.9958 139.139 64.5238 139.139 65.1823C139.139 65.9658 138.861 66.6414 138.307 67.2092C137.764 67.7656 137.045 68.0438 136.151 68.0438H131.653L133.452 59.8172ZM136.457 64.1263H133.774L133.163 66.9196H136.202C136.689 66.9196 137.079 66.7663 137.373 66.4598C137.679 66.1418 137.832 65.7501 137.832 65.2845C137.832 64.9212 137.713 64.6373 137.475 64.4329C137.237 64.2285 136.898 64.1263 136.457 64.1263Z" fill="white"/>
<path d="M141.795 68.0438H140.522L142.389 59.8172H143.662L142.898 63.1896H147.176L147.94 59.8172H149.213L147.346 68.0438H146.073L146.921 64.3137H142.644L141.795 68.0438Z" fill="white"/>
<path d="M159.412 68.0438H158.139L159.938 59.8172H161.211L159.412 68.0438ZM151.671 59.8172H152.944L152.231 63.0022H154.896C155.654 63.0022 156.254 63.2009 156.696 63.5983C157.137 63.9958 157.358 64.5238 157.358 65.1823C157.358 65.9658 157.08 66.6414 156.526 67.2092C155.983 67.7656 155.264 68.0438 154.37 68.0438H149.871L151.671 59.8172ZM154.676 64.1263H151.993L151.382 66.9196H154.421C154.908 66.9196 155.298 66.7663 155.592 66.4598C155.898 66.1418 156.051 65.7501 156.051 65.2845C156.051 64.9212 155.932 64.6373 155.694 64.4329C155.456 64.2285 155.117 64.1263 154.676 64.1263Z" fill="white"/>
<path d="M166.285 68.2481C165.052 68.2481 164.073 67.9189 163.349 67.2603C162.636 66.6017 162.279 65.716 162.279 64.6032C162.279 63.2293 162.726 62.0541 163.62 61.0776C164.514 60.1011 165.606 59.6128 166.897 59.6128C167.96 59.6128 168.815 59.9478 169.46 60.6177C170.105 61.2876 170.427 62.1506 170.427 63.2066C170.427 63.5472 170.382 63.9276 170.292 64.3478H163.603C163.603 64.3705 163.598 64.4329 163.586 64.5351C163.586 64.626 163.586 64.6941 163.586 64.7395C163.586 65.4208 163.83 65.9999 164.316 66.4768C164.803 66.9537 165.488 67.1921 166.37 67.1921C167.276 67.1921 168.062 66.9253 168.73 66.3916L169.154 67.2773C168.339 67.9245 167.383 68.2481 166.285 68.2481ZM163.739 63.411H169.239C169.262 63.3201 169.273 63.2123 169.273 63.0874C169.273 62.3834 169.052 61.8043 168.611 61.3501C168.181 60.8959 167.57 60.6688 166.778 60.6688C166.042 60.6688 165.386 60.9413 164.809 61.4863C164.231 62.02 163.875 62.6616 163.739 63.411Z" fill="white"/>
<path d="M174.49 70.1387L175.152 66.9878C175.57 66.9083 175.949 66.6528 176.289 66.2213C176.628 65.7898 176.996 65.0063 177.392 63.8709L178.818 59.8172H184.522L182.96 66.9196H183.911L183.198 70.1387H181.925L182.4 68.0438H176.204L175.746 70.1387H174.49ZM179.684 60.9413L178.632 64.0241C178.122 65.4776 177.517 66.4427 176.815 66.9196H181.687L182.994 60.9413H179.684Z" fill="white"/>
<path d="M189.743 68.2481C188.509 68.2481 187.53 67.9189 186.806 67.2603C186.093 66.6017 185.737 65.716 185.737 64.6032C185.737 63.2293 186.184 62.0541 187.078 61.0776C187.972 60.1011 189.064 59.6128 190.354 59.6128C191.418 59.6128 192.272 59.9478 192.917 60.6177C193.562 61.2876 193.885 62.1506 193.885 63.2066C193.885 63.5472 193.84 63.9276 193.749 64.3478H187.061C187.061 64.3705 187.055 64.4329 187.044 64.5351C187.044 64.626 187.044 64.6941 187.044 64.7395C187.044 65.4208 187.287 65.9999 187.774 66.4768C188.26 66.9537 188.945 67.1921 189.828 67.1921C190.733 67.1921 191.52 66.9253 192.187 66.3916L192.612 67.2773C191.797 67.9245 190.841 68.2481 189.743 68.2481ZM187.197 63.411H192.697C192.719 63.3201 192.731 63.2123 192.731 63.0874C192.731 62.3834 192.51 61.8043 192.069 61.3501C191.639 60.8959 191.027 60.6688 190.235 60.6688C189.5 60.6688 188.843 60.9413 188.266 61.4863C187.689 62.02 187.332 62.6616 187.197 63.411Z" fill="white"/>
<path d="M197.746 68.0438H196.473L198.018 60.9413H195.642L195.896 59.8172H201.939L201.685 60.9413H199.291L197.746 68.0438Z" fill="white"/>
<path d="M206.427 59.6128C207.049 59.6128 207.61 59.7491 208.107 60.0216C208.617 60.2827 209.007 60.6461 209.279 61.1116L209.567 59.8172H210.841L209.024 68.0438H207.751L208.006 66.8685C207.27 67.7883 206.37 68.2481 205.306 68.2481C204.345 68.2481 203.575 67.9472 202.998 67.3454C202.421 66.7436 202.132 65.9147 202.132 64.8587C202.132 63.4507 202.528 62.2244 203.32 61.1798C204.124 60.1351 205.159 59.6128 206.427 59.6128ZM206.597 60.754C205.691 60.754 204.944 61.14 204.356 61.9121C203.767 62.6843 203.473 63.587 203.473 64.6203C203.473 65.3811 203.682 65.9885 204.101 66.4427C204.52 66.8856 205.074 67.107 205.765 67.107C206.251 67.107 206.721 66.9764 207.174 66.7152C207.626 66.4427 207.989 66.1078 208.26 65.7103L209.075 62.0825C208.86 61.6964 208.532 61.3785 208.09 61.1287C207.66 60.8789 207.162 60.754 206.597 60.754Z" fill="white"/>
<path d="M210.555 68.2481L210.793 67.1921C211.178 67.1921 211.546 66.9367 211.896 66.4257C212.258 65.9147 212.649 65.0631 213.068 63.8709L214.494 59.8172H220.197L218.398 68.0438H217.125L218.67 60.9413H215.359L214.307 64.0241C213.798 65.5343 213.243 66.6187 212.643 67.2773C212.055 67.9245 211.359 68.2481 210.555 68.2481Z" fill="white"/>
<path d="M222.162 68.0438H220.94L222.74 59.8172H224.013L222.638 66.1021L228.308 59.8172H229.564L227.764 68.0438H226.491L227.883 61.6396L222.162 68.0438Z" fill="white"/>
<path d="M100.054 85.076H98.7807L100.325 77.9736H97.9489L98.2035 76.8494H104.247L103.992 77.9736H101.599L100.054 85.076Z" fill="white"/>
<path d="M108.531 85.2804C107.897 85.2804 107.331 85.1498 106.833 84.8887C106.346 84.6161 105.962 84.2471 105.679 83.7816L104.694 88.21H103.421L105.933 76.8494H107.206L106.935 78.0247C107.682 77.1049 108.587 76.6451 109.651 76.6451C110.602 76.6451 111.365 76.946 111.943 77.5478C112.531 78.1496 112.825 78.9785 112.825 80.0345C112.825 81.4311 112.424 82.6574 111.62 83.7134C110.828 84.7581 109.798 85.2804 108.531 85.2804ZM108.361 84.1392C109.266 84.1392 110.013 83.7532 110.602 82.9811C111.19 82.2089 111.484 81.3062 111.484 80.2729C111.484 79.5121 111.275 78.9103 110.856 78.4675C110.437 78.0133 109.883 77.7862 109.193 77.7862C108.695 77.7862 108.225 77.9225 107.784 78.195C107.342 78.4561 106.974 78.7911 106.68 79.1999L105.882 82.8107C106.097 83.2081 106.42 83.5318 106.85 83.7816C107.291 84.02 107.795 84.1392 108.361 84.1392Z" fill="white"/>
<path d="M112.694 88.227L113.135 87.0858C113.339 87.1767 113.605 87.2221 113.933 87.2221C114.386 87.2221 114.793 86.9496 115.156 86.4045L115.987 85.1271L114.426 76.8494H115.767L116.989 83.5942L121.216 76.8494H122.642L116.327 86.7452C115.614 87.858 114.759 88.4143 113.764 88.4143C113.356 88.4143 113 88.3519 112.694 88.227Z" fill="white"/>
<path d="M126.262 84.1392C127.167 84.1392 127.925 83.7589 128.536 82.9981C129.147 82.226 129.453 81.3403 129.453 80.3411C129.453 79.5576 129.238 78.9387 128.808 78.4845C128.378 78.019 127.778 77.7862 127.008 77.7862C126.103 77.7862 125.345 78.1723 124.734 78.9444C124.123 79.7052 123.817 80.5852 123.817 81.5844C123.817 82.3679 124.032 82.9924 124.462 83.458C124.892 83.9121 125.492 84.1392 126.262 84.1392ZM126.228 85.2804C125.073 85.2804 124.157 84.9511 123.478 84.2925C122.81 83.6226 122.476 82.7369 122.476 81.6355C122.476 80.5909 122.725 79.5519 123.223 78.5186C123.766 77.2696 124.456 76.3328 125.294 75.7083C126.131 75.0838 127.207 74.692 128.519 74.5331C129.312 74.4081 129.872 74.2832 130.2 74.1583C130.539 74.0334 130.726 73.8858 130.76 73.7155H131.999C131.784 74.692 130.573 75.3222 128.367 75.6061C127.19 75.7651 126.29 76.0773 125.667 76.5429C125.056 77.0084 124.581 77.6272 124.241 78.3994C125.136 77.2298 126.205 76.6451 127.45 76.6451C128.491 76.6451 129.306 76.98 129.894 77.65C130.494 78.3085 130.794 79.1942 130.794 80.307C130.794 81.6355 130.353 82.7994 129.47 83.7986C128.599 84.7865 127.518 85.2804 126.228 85.2804Z" fill="white"/>
<path d="M136.025 85.2804C134.871 85.2804 133.954 84.9511 133.275 84.2925C132.607 83.6226 132.273 82.7369 132.273 81.6355C132.273 80.307 132.709 79.1431 133.581 78.1439C134.463 77.1447 135.55 76.6451 136.84 76.6451C137.994 76.6451 138.905 76.98 139.573 77.65C140.252 78.3199 140.591 79.2056 140.591 80.307C140.591 81.6355 140.15 82.7994 139.267 83.7986C138.396 84.7865 137.315 85.2804 136.025 85.2804ZM136.059 84.1392C136.964 84.1392 137.723 83.7589 138.334 82.9981C138.945 82.226 139.25 81.3403 139.25 80.3411C139.25 79.5576 139.035 78.9387 138.605 78.4845C138.175 78.019 137.575 77.7862 136.806 77.7862C135.901 77.7862 135.142 78.1723 134.531 78.9444C133.92 79.7052 133.615 80.5852 133.615 81.5844C133.615 82.3679 133.83 82.9924 134.26 83.458C134.69 83.9121 135.289 84.1392 136.059 84.1392Z" fill="white"/>
<path d="M148.49 85.076H147.216L148.829 77.9736H144.551L142.939 85.076H141.665L143.533 76.8494H150.357L148.49 85.076Z" fill="white"/>
<path d="M155.429 85.2804C154.795 85.2804 154.229 85.1498 153.731 84.8887C153.245 84.6161 152.86 84.2471 152.577 83.7816L151.592 88.21H150.319L152.832 76.8494H154.105L153.833 78.0247C154.58 77.1049 155.486 76.6451 156.549 76.6451C157.5 76.6451 158.264 76.946 158.841 77.5478C159.43 78.1496 159.724 78.9785 159.724 80.0345C159.724 81.4311 159.322 82.6574 158.519 83.7134C157.726 84.7581 156.696 85.2804 155.429 85.2804ZM155.259 84.1392C156.165 84.1392 156.911 83.7532 157.5 82.9811C158.088 82.2089 158.383 81.3062 158.383 80.2729C158.383 79.5121 158.173 78.9103 157.755 78.4675C157.336 78.0133 156.781 77.7862 156.091 77.7862C155.593 77.7862 155.123 77.9225 154.682 78.195C154.241 78.4561 153.873 78.7911 153.579 79.1999L152.781 82.8107C152.996 83.2081 153.318 83.5318 153.748 83.7816C154.19 84.02 154.693 84.1392 155.259 84.1392Z" fill="white"/>
<path d="M164.804 85.2804C163.65 85.2804 162.733 84.9511 162.054 84.2925C161.386 83.6226 161.052 82.7369 161.052 81.6355C161.052 80.307 161.488 79.1431 162.36 78.1439C163.242 77.1447 164.329 76.6451 165.619 76.6451C166.773 76.6451 167.684 76.98 168.352 77.65C169.031 78.3199 169.37 79.2056 169.37 80.307C169.37 81.6355 168.929 82.7994 168.046 83.7986C167.175 84.7865 166.094 85.2804 164.804 85.2804ZM164.838 84.1392C165.743 84.1392 166.502 83.7589 167.113 82.9981C167.724 82.226 168.029 81.3403 168.029 80.3411C168.029 79.5576 167.814 78.9387 167.384 78.4845C166.954 78.019 166.354 77.7862 165.585 77.7862C164.68 77.7862 163.921 78.1723 163.31 78.9444C162.699 79.7052 162.393 80.5852 162.393 81.5844C162.393 82.3679 162.608 82.9924 163.039 83.458C163.469 83.9121 164.068 84.1392 164.838 84.1392Z" fill="white"/>
<path d="M175.198 85.076H170.444L172.244 76.8494H176.42C177.076 76.8494 177.602 77.0084 177.999 77.3263C178.395 77.6443 178.593 78.0871 178.593 78.6549C178.593 79.2112 178.423 79.6938 178.083 80.1026C177.755 80.5114 177.308 80.7782 176.742 80.9031C177.093 81.0394 177.37 81.2551 177.574 81.5503C177.789 81.8456 177.897 82.1976 177.897 82.6063C177.897 83.299 177.653 83.8838 177.167 84.3607C176.68 84.8376 176.024 85.076 175.198 85.076ZM171.955 83.9519H175.062C175.526 83.9519 175.899 83.8156 176.182 83.5431C176.476 83.2706 176.624 82.93 176.624 82.5212C176.624 82.1919 176.51 81.9251 176.284 81.7207C176.058 81.5163 175.741 81.4141 175.333 81.4141H172.515L171.955 83.9519ZM172.753 80.29H175.86C176.278 80.29 176.612 80.1594 176.861 79.8982C177.121 79.6371 177.252 79.3248 177.252 78.9614C177.252 78.6435 177.133 78.3994 176.895 78.2291C176.669 78.0587 176.358 77.9736 175.961 77.9736H173.262L172.753 80.29Z" fill="white"/>
<path d="M183.918 85.2804C182.764 85.2804 181.847 84.9511 181.168 84.2925C180.5 83.6226 180.167 82.7369 180.167 81.6355C180.167 80.307 180.602 79.1431 181.474 78.1439C182.356 77.1447 183.443 76.6451 184.733 76.6451C185.887 76.6451 186.798 76.98 187.466 77.65C188.145 78.3199 188.485 79.2056 188.485 80.307C188.485 81.6355 188.043 82.7994 187.16 83.7986C186.289 84.7865 185.208 85.2804 183.918 85.2804ZM183.952 84.1392C184.857 84.1392 185.616 83.7589 186.227 82.9981C186.838 82.226 187.144 81.3403 187.144 80.3411C187.144 79.5576 186.928 78.9387 186.498 78.4845C186.068 78.019 185.469 77.7862 184.699 77.7862C183.794 77.7862 183.035 78.1723 182.424 78.9444C181.813 79.7052 181.508 80.5852 181.508 81.5844C181.508 82.3679 181.723 82.9924 182.153 83.458C182.583 83.9121 183.183 84.1392 183.952 84.1392Z" fill="white"/>
<path d="M188.15 87.171L188.812 84.02C189.23 83.9405 189.609 83.6851 189.949 83.2536C190.289 82.8221 190.656 82.0386 191.052 80.9031L192.478 76.8494H198.182L196.62 83.9519H197.571L196.858 87.171H195.585L196.06 85.076H189.864L189.406 87.171H188.15ZM193.344 77.9736L192.292 81.0564C191.782 82.5098 191.177 83.475 190.475 83.9519H195.347L196.654 77.9736H193.344Z" fill="white"/>
<path d="M203.148 85.2804C201.994 85.2804 201.077 84.9511 200.398 84.2925C199.731 83.6226 199.397 82.7369 199.397 81.6355C199.397 80.307 199.832 79.1431 200.704 78.1439C201.587 77.1447 202.673 76.6451 203.963 76.6451C205.117 76.6451 206.029 76.98 206.696 77.65C207.375 78.3199 207.715 79.2056 207.715 80.307C207.715 81.6355 207.273 82.7994 206.391 83.7986C205.519 84.7865 204.438 85.2804 203.148 85.2804ZM203.182 84.1392C204.088 84.1392 204.846 83.7589 205.457 82.9981C206.068 82.226 206.374 81.3403 206.374 80.3411C206.374 79.5576 206.159 78.9387 205.729 78.4845C205.299 78.019 204.699 77.7862 203.929 77.7862C203.024 77.7862 202.266 78.1723 201.654 78.9444C201.043 79.7052 200.738 80.5852 200.738 81.5844C200.738 82.3679 200.953 82.9924 201.383 83.458C201.813 83.9121 202.413 84.1392 203.182 84.1392Z" fill="white"/>
<path d="M213.542 85.076H208.789L210.588 76.8494H214.764C215.421 76.8494 215.947 77.0084 216.343 77.3263C216.739 77.6443 216.937 78.0871 216.937 78.6549C216.937 79.2112 216.767 79.6938 216.428 80.1026C216.1 80.5114 215.653 80.7782 215.087 80.9031C215.438 81.0394 215.715 81.2551 215.918 81.5503C216.134 81.8456 216.241 82.1976 216.241 82.6063C216.241 83.299 215.998 83.8838 215.511 84.3607C215.024 84.8376 214.368 85.076 213.542 85.076ZM210.3 83.9519H213.406C213.87 83.9519 214.244 83.8156 214.526 83.5431C214.821 83.2706 214.968 82.93 214.968 82.5212C214.968 82.1919 214.855 81.9251 214.628 81.7207C214.402 81.5163 214.085 81.4141 213.678 81.4141H210.86L210.3 83.9519ZM211.097 80.29H214.204C214.623 80.29 214.957 80.1594 215.206 79.8982C215.466 79.6371 215.596 79.3248 215.596 78.9614C215.596 78.6435 215.477 78.3994 215.239 78.2291C215.013 78.0587 214.702 77.9736 214.306 77.9736H211.607L211.097 80.29Z" fill="white"/>
</svg>
