<svg width="164" height="62" viewBox="0 0 164 62" fill="none" xmlns="http://www.w3.org/2000/svg">
<path fill-rule="evenodd" clip-rule="evenodd" d="M7 6C6.44772 6 6 6.44771 6 7V49C6 49.5523 6.44771 50 7 50H11V56H7C3.13401 56 0 52.866 0 49V7C0 3.13401 3.13401 0 7 0H49C52.866 0 56 3.134 56 7V49C56 52.866 52.866 56 49 56H45V50H49C49.5523 50 50 49.5523 50 49V7C50 6.44772 49.5523 6 49 6H7Z" fill="#3AAFA9"/>
<path fill-rule="evenodd" clip-rule="evenodd" d="M17 15.5933V40H11V14C11 11.2386 13.2386 9 16 9H17.5401C19.7144 9 21.6395 10.4052 22.3022 12.4761L28 30.2817L33.6978 12.4761C34.3605 10.4052 36.2856 9 38.4599 9H40C42.7614 9 45 11.2386 45 14V40H39V15.5933L32.162 36.9619C31.5829 38.7718 29.9004 40 28 40C26.0996 40 24.4171 38.7718 23.838 36.9619L17 15.5933Z" fill="#3AAFA9"/>
<path d="M26 52.5L11 60.7272L11 44.2728L26 52.5Z" fill="#3AAFA9"/>
<path d="M30 52.5L45 60.7272L45 44.2728L30 52.5Z" fill="#3AAFA9"/>
<g clip-path="url(#clip0_1883_7510)">
<path d="M96.3098 25.745H91.1098L95.3798 5.795H90.2598L91.2298 1.255H106.55L105.59 5.775H100.49L96.2998 25.745H96.3098Z" fill="#3AAFA9"/>
<path d="M114.09 25.735H103.67L108.14 4.14503L108.73 1.28503H117.33C120.64 1.26503 122.24 3.76503 121.74 7.22503C121.06 11.955 118.93 13.015 116.7 13.005C119.43 13.015 120.95 15.135 120.6 18.015C120.04 22.705 117.9 25.445 114.08 25.735H114.09ZM116.48 10.155L117.33 6.07503H112.22L111.34 10.145H116.48V10.155ZM114.56 21.135L115.65 15.725H110.14L109.02 21.135H114.56Z" fill="#3AAFA9"/>
<path d="M139.65 25.715L141.57 16.635H143.46L145.6 6.61504C146 3.82504 148.94 1.26504 151.5 1.26504H156.24C159.59 1.15504 161.47 2.58504 161.09 5.78504C160.75 8.69504 158.65 17.265 158.65 17.265H160.55L158.75 25.745L153.65 25.705L154.51 21.685L145.62 21.645L144.75 25.715H139.64H139.65ZM150.83 6.34504C150.83 6.34504 149.08 14.555 148.64 16.525H153.75L155.94 6.34504H150.83Z" fill="#3AAFA9"/>
<path d="M85.7802 16.565L80.5702 16.455L82.9302 6.155H77.6902L74.3502 20.855H79.5902L80.6902 15.945H85.9302L84.8302 20.855C84.4702 22.235 83.6802 23.405 82.4602 24.345C81.2402 25.275 79.9102 25.745 78.4702 25.745H73.2202C71.7802 25.745 70.6602 25.275 69.8602 24.325C69.2802 23.635 68.9902 22.835 68.9902 21.915C68.9902 21.575 69.0302 21.225 69.1002 20.855L72.4502 6.155C72.8002 4.75501 73.5802 3.595 74.8002 2.665C76.0102 1.725 77.3402 1.255 78.7802 1.255H84.0202C85.4602 1.255 86.5802 1.725 87.3802 2.655C87.9702 3.355 88.2602 4.175 88.2602 5.115C88.2602 5.445 88.2202 5.785 88.1502 6.145L85.7702 16.555L85.7802 16.565Z" fill="#3AAFA9"/>
<path d="M139.15 16.565L133.94 16.455L136.3 6.155H131.06L127.72 20.855H132.96L134.06 15.945H139.3L138.2 20.855C137.84 22.235 137.05 23.405 135.83 24.345C134.61 25.275 133.28 25.745 131.84 25.745H126.6C125.16 25.745 124.04 25.275 123.24 24.325C122.66 23.635 122.37 22.835 122.37 21.915C122.37 21.575 122.41 21.225 122.48 20.855L125.82 6.155C126.17 4.75501 126.95 3.595 128.17 2.665C129.38 1.725 130.71 1.255 132.16 1.255H137.4C138.84 1.255 139.96 1.725 140.76 2.655C141.35 3.355 141.64 4.175 141.64 5.115C141.64 5.445 141.6 5.785 141.53 6.145L139.15 16.555V16.565Z" fill="#3AAFA9"/>
</g>
<path d="M72.144 41.889C71.352 41.889 70.708 41.657 70.212 41.193C69.724 40.729 69.48 40.097 69.48 39.297C69.48 38.337 69.796 37.517 70.428 36.837C71.06 36.149 71.832 35.805 72.744 35.805C73.76 35.805 74.484 36.165 74.916 36.885L74.232 37.401C73.936 36.873 73.448 36.609 72.768 36.609C72.064 36.609 71.496 36.873 71.064 37.401C70.632 37.929 70.416 38.557 70.416 39.285C70.416 39.861 70.584 40.305 70.92 40.617C71.264 40.929 71.7 41.085 72.228 41.085C72.804 41.085 73.292 40.857 73.692 40.401L74.208 41.001C73.632 41.593 72.944 41.889 72.144 41.889ZM77.1494 41.745H76.2494L77.3414 36.741H75.6614L75.8414 35.949H80.1134L79.9334 36.741H78.2414L77.1494 41.745ZM83.2855 35.805C83.7255 35.805 84.1215 35.901 84.4735 36.093C84.8335 36.277 85.1095 36.533 85.3015 36.861L85.5055 35.949H86.4055L85.1215 41.745H84.2215L84.4015 40.917C83.8815 41.565 83.2455 41.889 82.4935 41.889C81.8135 41.889 81.2695 41.677 80.8615 41.253C80.4535 40.829 80.2495 40.245 80.2495 39.501C80.2495 38.509 80.5295 37.645 81.0895 36.909C81.6575 36.173 82.3895 35.805 83.2855 35.805ZM83.4055 36.609C82.7655 36.609 82.2375 36.881 81.8215 37.425C81.4055 37.969 81.1975 38.605 81.1975 39.333C81.1975 39.869 81.3455 40.297 81.6415 40.617C81.9375 40.929 82.3295 41.085 82.8175 41.085C83.1615 41.085 83.4935 40.993 83.8135 40.809C84.1335 40.617 84.3895 40.381 84.5815 40.101L85.1575 37.545C85.0055 37.273 84.7735 37.049 84.4615 36.873C84.1575 36.697 83.8055 36.609 83.4055 36.609ZM86.2039 41.889L86.3719 41.145C86.6439 41.145 86.9039 40.965 87.1519 40.605C87.4079 40.245 87.6839 39.645 87.9799 38.805L88.9879 35.949H93.0199L91.7479 41.745H90.8479L91.9399 36.741H89.5999L88.8559 38.913C88.4959 39.977 88.1039 40.741 87.6799 41.205C87.2639 41.661 86.7719 41.889 86.2039 41.889ZM94.817 35.949H95.717L95.213 38.193H97.097C97.633 38.193 98.057 38.333 98.369 38.613C98.681 38.893 98.837 39.265 98.837 39.729C98.837 40.281 98.641 40.757 98.249 41.157C97.865 41.549 97.357 41.745 96.725 41.745H93.545L94.817 35.949ZM96.941 38.985H95.045L94.613 40.953H96.761C97.105 40.953 97.381 40.845 97.589 40.629C97.805 40.405 97.913 40.129 97.913 39.801C97.913 39.545 97.829 39.345 97.661 39.201C97.493 39.057 97.253 38.985 96.941 38.985ZM100.715 41.745H99.8145L101.135 35.949H102.035L101.495 38.325H104.519L105.059 35.949H105.959L104.639 41.745H103.739L104.339 39.117H101.315L100.715 41.745ZM113.168 41.745H112.268L113.54 35.949H114.44L113.168 41.745ZM107.696 35.949H108.596L108.092 38.193H109.976C110.512 38.193 110.936 38.333 111.248 38.613C111.56 38.893 111.716 39.265 111.716 39.729C111.716 40.281 111.52 40.757 111.128 41.157C110.744 41.549 110.236 41.745 109.604 41.745H106.424L107.696 35.949ZM109.82 38.985H107.924L107.492 40.953H109.64C109.984 40.953 110.26 40.845 110.468 40.629C110.684 40.405 110.792 40.129 110.792 39.801C110.792 39.545 110.708 39.345 110.54 39.201C110.372 39.057 110.132 38.985 109.82 38.985ZM118.027 41.889C117.155 41.889 116.463 41.657 115.951 41.193C115.447 40.729 115.195 40.105 115.195 39.321C115.195 38.353 115.511 37.525 116.143 36.837C116.775 36.149 117.547 35.805 118.459 35.805C119.211 35.805 119.815 36.041 120.271 36.513C120.727 36.985 120.955 37.593 120.955 38.337C120.955 38.577 120.923 38.845 120.859 39.141H116.131C116.131 39.157 116.127 39.201 116.119 39.273C116.119 39.337 116.119 39.385 116.119 39.417C116.119 39.897 116.291 40.305 116.635 40.641C116.979 40.977 117.463 41.145 118.087 41.145C118.727 41.145 119.283 40.957 119.755 40.581L120.055 41.205C119.479 41.661 118.803 41.889 118.027 41.889ZM116.227 38.481H120.115C120.131 38.417 120.139 38.341 120.139 38.253C120.139 37.757 119.983 37.349 119.671 37.029C119.367 36.709 118.935 36.549 118.375 36.549C117.855 36.549 117.391 36.741 116.983 37.125C116.575 37.501 116.323 37.953 116.227 38.481ZM123.826 43.221L124.294 41.001C124.59 40.945 124.858 40.765 125.098 40.461C125.338 40.157 125.598 39.605 125.878 38.805L126.886 35.949H130.918L129.814 40.953H130.486L129.982 43.221H129.082L129.418 41.745H125.038L124.714 43.221H123.826ZM127.498 36.741L126.754 38.913C126.394 39.937 125.966 40.617 125.47 40.953H128.914L129.838 36.741H127.498ZM134.609 41.889C133.737 41.889 133.045 41.657 132.533 41.193C132.029 40.729 131.777 40.105 131.777 39.321C131.777 38.353 132.093 37.525 132.725 36.837C133.357 36.149 134.129 35.805 135.041 35.805C135.793 35.805 136.397 36.041 136.853 36.513C137.309 36.985 137.537 37.593 137.537 38.337C137.537 38.577 137.505 38.845 137.441 39.141H132.713C132.713 39.157 132.709 39.201 132.701 39.273C132.701 39.337 132.701 39.385 132.701 39.417C132.701 39.897 132.873 40.305 133.217 40.641C133.561 40.977 134.045 41.145 134.669 41.145C135.309 41.145 135.865 40.957 136.337 40.581L136.637 41.205C136.061 41.661 135.385 41.889 134.609 41.889ZM132.809 38.481H136.697C136.713 38.417 136.721 38.341 136.721 38.253C136.721 37.757 136.565 37.349 136.253 37.029C135.949 36.709 135.517 36.549 134.957 36.549C134.437 36.549 133.973 36.741 133.565 37.125C133.157 37.501 132.905 37.953 132.809 38.481ZM140.267 41.745H139.367L140.459 36.741H138.779L138.959 35.949H143.231L143.051 36.741H141.359L140.267 41.745ZM146.403 35.805C146.843 35.805 147.239 35.901 147.591 36.093C147.951 36.277 148.227 36.533 148.419 36.861L148.623 35.949H149.523L148.239 41.745H147.339L147.519 40.917C146.999 41.565 146.363 41.889 145.611 41.889C144.931 41.889 144.387 41.677 143.979 41.253C143.571 40.829 143.367 40.245 143.367 39.501C143.367 38.509 143.647 37.645 144.207 36.909C144.775 36.173 145.507 35.805 146.403 35.805ZM146.523 36.609C145.883 36.609 145.355 36.881 144.939 37.425C144.523 37.969 144.315 38.605 144.315 39.333C144.315 39.869 144.463 40.297 144.759 40.617C145.055 40.929 145.447 41.085 145.935 41.085C146.279 41.085 146.611 40.993 146.931 40.809C147.251 40.617 147.507 40.381 147.699 40.101L148.275 37.545C148.123 37.273 147.891 37.049 147.579 36.873C147.275 36.697 146.923 36.609 146.523 36.609ZM149.321 41.889L149.489 41.145C149.761 41.145 150.021 40.965 150.269 40.605C150.525 40.245 150.801 39.645 151.097 38.805L152.105 35.949H156.137L154.865 41.745H153.965L155.057 36.741H152.717L151.973 38.913C151.613 39.977 151.221 40.741 150.797 41.205C150.381 41.661 149.889 41.889 149.321 41.889ZM157.526 41.745H156.662L157.934 35.949H158.834L157.862 40.377L161.87 35.949H162.758L161.486 41.745H160.586L161.57 37.233L157.526 41.745ZM71.208 53.745H70.308L71.4 48.741H69.72L69.9 47.949H74.172L73.992 48.741H72.3L71.208 53.745ZM77.2001 53.889C76.7521 53.889 76.3521 53.797 76.0001 53.613C75.6561 53.421 75.3841 53.161 75.1841 52.833L74.4881 55.953H73.5881L75.3641 47.949H76.2641L76.0721 48.777C76.6001 48.129 77.2401 47.805 77.9921 47.805C78.6641 47.805 79.2041 48.017 79.6121 48.441C80.0281 48.865 80.2361 49.449 80.2361 50.193C80.2361 51.177 79.9521 52.041 79.3841 52.785C78.8241 53.521 78.0961 53.889 77.2001 53.889ZM77.0801 53.085C77.7201 53.085 78.2481 52.813 78.6641 52.269C79.0801 51.725 79.2881 51.089 79.2881 50.361C79.2881 49.825 79.1401 49.401 78.8441 49.089C78.5481 48.769 78.1561 48.609 77.6681 48.609C77.3161 48.609 76.9841 48.705 76.6721 48.897C76.3601 49.081 76.1001 49.317 75.8921 49.605L75.3281 52.149C75.4801 52.429 75.7081 52.657 76.0121 52.833C76.3241 53.001 76.6801 53.085 77.0801 53.085ZM80.1433 55.965L80.4553 55.161C80.5993 55.225 80.7873 55.257 81.0193 55.257C81.3393 55.257 81.6273 55.065 81.8833 54.681L82.4713 53.781L81.3673 47.949H82.3153L83.1793 52.701L86.1673 47.949H87.1753L82.7113 54.921C82.2073 55.705 81.6033 56.097 80.8993 56.097C80.6113 56.097 80.3593 56.053 80.1433 55.965ZM89.7341 53.085C90.3741 53.085 90.9101 52.817 91.3421 52.281C91.7741 51.737 91.9901 51.113 91.9901 50.409C91.9901 49.857 91.8381 49.421 91.5341 49.101C91.2301 48.773 90.8061 48.609 90.2621 48.609C89.6221 48.609 89.0861 48.881 88.6541 49.425C88.2221 49.961 88.0061 50.581 88.0061 51.285C88.0061 51.837 88.1581 52.277 88.4621 52.605C88.7661 52.925 89.1901 53.085 89.7341 53.085ZM89.7101 53.889C88.8941 53.889 88.2461 53.657 87.7661 53.193C87.2941 52.721 87.0581 52.097 87.0581 51.321C87.0581 50.585 87.2341 49.853 87.5861 49.125C87.9701 48.245 88.4581 47.585 89.0501 47.145C89.6421 46.705 90.4021 46.429 91.3301 46.317C91.8901 46.229 92.2861 46.141 92.5181 46.053C92.7581 45.965 92.8901 45.861 92.9141 45.741H93.7901C93.6381 46.429 92.7821 46.873 91.2221 47.073C90.3901 47.185 89.7541 47.405 89.3141 47.733C88.8821 48.061 88.5461 48.497 88.3061 49.041C88.9381 48.217 89.6941 47.805 90.5741 47.805C91.3101 47.805 91.8861 48.041 92.3021 48.513C92.7261 48.977 92.9381 49.601 92.9381 50.385C92.9381 51.321 92.6261 52.141 92.0021 52.845C91.3861 53.541 90.6221 53.889 89.7101 53.889ZM96.6359 53.889C95.8199 53.889 95.1719 53.657 94.6919 53.193C94.2199 52.721 93.9839 52.097 93.9839 51.321C93.9839 50.385 94.2919 49.565 94.9079 48.861C95.5319 48.157 96.2999 47.805 97.2119 47.805C98.0279 47.805 98.6719 48.041 99.1439 48.513C99.6239 48.985 99.8639 49.609 99.8639 50.385C99.8639 51.321 99.5519 52.141 98.9279 52.845C98.3119 53.541 97.5479 53.889 96.6359 53.889ZM96.6599 53.085C97.2999 53.085 97.8359 52.817 98.2679 52.281C98.6999 51.737 98.9159 51.113 98.9159 50.409C98.9159 49.857 98.7639 49.421 98.4599 49.101C98.1559 48.773 97.7319 48.609 97.1879 48.609C96.5479 48.609 96.0119 48.881 95.5799 49.425C95.1479 49.961 94.9319 50.581 94.9319 51.285C94.9319 51.837 95.0839 52.277 95.3879 52.605C95.6919 52.925 96.1159 53.085 96.6599 53.085ZM105.447 53.745H104.547L105.687 48.741H102.663L101.523 53.745H100.623L101.943 47.949H106.767L105.447 53.745ZM110.352 53.889C109.904 53.889 109.504 53.797 109.152 53.613C108.808 53.421 108.536 53.161 108.336 52.833L107.64 55.953H106.74L108.516 47.949H109.416L109.224 48.777C109.752 48.129 110.392 47.805 111.144 47.805C111.816 47.805 112.356 48.017 112.764 48.441C113.18 48.865 113.388 49.449 113.388 50.193C113.388 51.177 113.104 52.041 112.536 52.785C111.976 53.521 111.248 53.889 110.352 53.889ZM110.232 53.085C110.872 53.085 111.4 52.813 111.816 52.269C112.232 51.725 112.44 51.089 112.44 50.361C112.44 49.825 112.292 49.401 111.996 49.089C111.7 48.769 111.308 48.609 110.82 48.609C110.468 48.609 110.136 48.705 109.824 48.897C109.512 49.081 109.252 49.317 109.044 49.605L108.48 52.149C108.632 52.429 108.86 52.657 109.164 52.833C109.476 53.001 109.832 53.085 110.232 53.085ZM116.98 53.889C116.164 53.889 115.516 53.657 115.036 53.193C114.564 52.721 114.328 52.097 114.328 51.321C114.328 50.385 114.636 49.565 115.252 48.861C115.876 48.157 116.644 47.805 117.556 47.805C118.372 47.805 119.016 48.041 119.488 48.513C119.968 48.985 120.208 49.609 120.208 50.385C120.208 51.321 119.896 52.141 119.272 52.845C118.656 53.541 117.892 53.889 116.98 53.889ZM117.004 53.085C117.644 53.085 118.18 52.817 118.612 52.281C119.044 51.737 119.26 51.113 119.26 50.409C119.26 49.857 119.108 49.421 118.804 49.101C118.5 48.773 118.076 48.609 117.532 48.609C116.892 48.609 116.356 48.881 115.924 49.425C115.492 49.961 115.276 50.581 115.276 51.285C115.276 51.837 115.428 52.277 115.732 52.605C116.036 52.925 116.46 53.085 117.004 53.085ZM124.327 53.745H120.967L122.239 47.949H125.191C125.655 47.949 126.027 48.061 126.307 48.285C126.587 48.509 126.727 48.821 126.727 49.221C126.727 49.613 126.607 49.953 126.367 50.241C126.135 50.529 125.819 50.717 125.419 50.805C125.667 50.901 125.863 51.053 126.007 51.261C126.159 51.469 126.235 51.717 126.235 52.005C126.235 52.493 126.063 52.905 125.719 53.241C125.375 53.577 124.911 53.745 124.327 53.745ZM122.035 52.953H124.231C124.559 52.953 124.823 52.857 125.023 52.665C125.231 52.473 125.335 52.233 125.335 51.945C125.335 51.713 125.255 51.525 125.095 51.381C124.935 51.237 124.711 51.165 124.423 51.165H122.431L122.035 52.953ZM122.599 50.373H124.795C125.091 50.373 125.327 50.281 125.503 50.097C125.687 49.913 125.779 49.693 125.779 49.437C125.779 49.213 125.695 49.041 125.527 48.921C125.367 48.801 125.147 48.741 124.867 48.741H122.959L122.599 50.373ZM130.491 53.889C129.675 53.889 129.027 53.657 128.547 53.193C128.075 52.721 127.839 52.097 127.839 51.321C127.839 50.385 128.147 49.565 128.763 48.861C129.387 48.157 130.155 47.805 131.067 47.805C131.883 47.805 132.527 48.041 132.999 48.513C133.479 48.985 133.719 49.609 133.719 50.385C133.719 51.321 133.407 52.141 132.783 52.845C132.167 53.541 131.403 53.889 130.491 53.889ZM130.515 53.085C131.155 53.085 131.691 52.817 132.123 52.281C132.555 51.737 132.771 51.113 132.771 50.409C132.771 49.857 132.619 49.421 132.315 49.101C132.011 48.773 131.587 48.609 131.043 48.609C130.403 48.609 129.867 48.881 129.435 49.425C129.003 49.961 128.787 50.581 128.787 51.285C128.787 51.837 128.939 52.277 129.243 52.605C129.547 52.925 129.971 53.085 130.515 53.085ZM133.483 55.221L133.951 53.001C134.247 52.945 134.515 52.765 134.755 52.461C134.995 52.157 135.255 51.605 135.535 50.805L136.543 47.949H140.575L139.471 52.953H140.143L139.639 55.221H138.739L139.075 53.745H134.695L134.371 55.221H133.483ZM137.155 48.741L136.411 50.913C136.051 51.937 135.623 52.617 135.127 52.953H138.571L139.495 48.741H137.155ZM144.085 53.889C143.269 53.889 142.621 53.657 142.141 53.193C141.669 52.721 141.433 52.097 141.433 51.321C141.433 50.385 141.741 49.565 142.357 48.861C142.981 48.157 143.749 47.805 144.661 47.805C145.477 47.805 146.121 48.041 146.593 48.513C147.073 48.985 147.313 49.609 147.313 50.385C147.313 51.321 147.001 52.141 146.377 52.845C145.761 53.541 144.997 53.889 144.085 53.889ZM144.109 53.085C144.749 53.085 145.285 52.817 145.717 52.281C146.149 51.737 146.365 51.113 146.365 50.409C146.365 49.857 146.213 49.421 145.909 49.101C145.605 48.773 145.181 48.609 144.637 48.609C143.997 48.609 143.461 48.881 143.029 49.425C142.597 49.961 142.381 50.581 142.381 51.285C142.381 51.837 142.533 52.277 142.837 52.605C143.141 52.925 143.565 53.085 144.109 53.085ZM151.432 53.745H148.072L149.344 47.949H152.296C152.76 47.949 153.132 48.061 153.412 48.285C153.692 48.509 153.832 48.821 153.832 49.221C153.832 49.613 153.712 49.953 153.472 50.241C153.24 50.529 152.924 50.717 152.524 50.805C152.772 50.901 152.968 51.053 153.112 51.261C153.264 51.469 153.34 51.717 153.34 52.005C153.34 52.493 153.168 52.905 152.824 53.241C152.48 53.577 152.016 53.745 151.432 53.745ZM149.14 52.953H151.336C151.664 52.953 151.928 52.857 152.128 52.665C152.336 52.473 152.44 52.233 152.44 51.945C152.44 51.713 152.36 51.525 152.2 51.381C152.04 51.237 151.816 51.165 151.528 51.165H149.536L149.14 52.953ZM149.704 50.373H151.9C152.196 50.373 152.432 50.281 152.608 50.097C152.792 49.913 152.884 49.693 152.884 49.437C152.884 49.213 152.8 49.041 152.632 48.921C152.472 48.801 152.252 48.741 151.972 48.741H150.064L149.704 50.373Z" fill="#16243E"/>
<defs>
<clipPath id="clip0_1883_7510">
<rect width="92.15" height="24.49" fill="white" transform="translate(69 1.255)"/>
</clipPath>
</defs>
</svg>
