<?xml version="1.0" encoding="utf-8"?><svg viewBox="0 0 512 512" xmlns="http://www.w3.org/2000/svg" xmlns:xlink="http://www.w3.org/1999/xlink"><style>:root>svg{display:none}:root>svg:target{display:block}</style><svg fill="none" viewBox="0 0 25 24" id="arrow-news-left" xmlns="http://www.w3.org/2000/svg"><path d="M20.5 12h-16" stroke="#98A2B3" stroke-width="2" stroke-linecap="round" stroke-linejoin="round"/><path d="m10.5 18-6-6 6-6" stroke="#98A2B3" stroke-width="2" stroke-linecap="square" stroke-linejoin="round"/></svg><svg fill="none" viewBox="0 0 25 24" id="arrow-news-right" xmlns="http://www.w3.org/2000/svg"><path d="M4.5 12h16" stroke="#98A2B3" stroke-width="2" stroke-linecap="round" stroke-linejoin="round"/><path d="m14.5 6 6 6-6 6" stroke="#98A2B3" stroke-width="2" stroke-linecap="square" stroke-linejoin="round"/></svg><svg fill="none" viewBox="0 0 24 24" id="arrow-next" xmlns="http://www.w3.org/2000/svg"><path d="m9 18 6-6-6-6" stroke="#333" stroke-width="2" stroke-linecap="round" stroke-linejoin="round"/></svg><svg fill="none" viewBox="0 0 24 24" id="arrow-prev" xmlns="http://www.w3.org/2000/svg"><path d="m15 18-6-6 6-6" stroke="#333" stroke-width="2" stroke-linecap="round" stroke-linejoin="round"/></svg><svg fill="none" viewBox="0 0 24 24" id="arrow-right" xmlns="http://www.w3.org/2000/svg"><path d="M4 12h16" stroke="#fff" stroke-width="2" stroke-linecap="square"/><path d="m14 6 6 6-6 6" stroke="#fff" stroke-width="2" stroke-linecap="square" stroke-linejoin="round"/></svg><svg fill="none" viewBox="0 0 24 24" id="arrow-up-right" xmlns="http://www.w3.org/2000/svg"><path d="M6 18 18 6M9 6h9v9" stroke="#fff" stroke-width="2" stroke-linecap="round" stroke-linejoin="round"/></svg><svg fill="none" viewBox="0 0 34 34" id="calendar" xmlns="http://www.w3.org/2000/svg"><path clip-rule="evenodd" d="M4.613 7.99a2 2 0 0 1 2-2h20.774a2 2 0 0 1 2 2v20.773a2 2 0 0 1-2 2H6.613a2 2 0 0 1-2-2V7.99Z" stroke="#fff" stroke-width="2" stroke-linecap="round" stroke-linejoin="round"/><path d="M22.505 3.237v5.505M11.495 3.237v5.505M4.613 14.247h24.774" stroke="#fff" stroke-width="2" stroke-linecap="round" stroke-linejoin="round"/></svg><svg fill="none" viewBox="0 0 48 48" id="check" xmlns="http://www.w3.org/2000/svg"><path d="M40 14 18 36 8 26" stroke="#3AAFA9" stroke-width="2" stroke-linecap="round"/></svg><svg fill="none" viewBox="0 0 16 16" id="chevron-right" xmlns="http://www.w3.org/2000/svg"><path d="m6 12 4-4-4-4" stroke="#fff" stroke-width="3" stroke-linecap="square"/></svg><svg fill="none" viewBox="0 0 34 34" id="clock" xmlns="http://www.w3.org/2000/svg"><path clip-rule="evenodd" d="M17 30.763c7.602 0 13.764-6.162 13.764-13.763S24.602 3.237 17 3.237C9.4 3.237 3.237 9.399 3.237 17S9.399 30.763 17 30.763Z" stroke="#fff" stroke-width="2" stroke-linecap="round" stroke-linejoin="round"/><path d="M17 8.742V17l4.129 4.129" stroke="#fff" stroke-width="2" stroke-linecap="round" stroke-linejoin="round"/></svg><svg fill="none" viewBox="0 0 27 20" id="copyright" xmlns="http://www.w3.org/2000/svg"><path d="M13.334 1.25C6.89 1.25 1.667 5.168 1.667 10s5.224 8.75 11.667 8.75C19.776 18.75 25 14.832 25 10s-5.224-8.75-11.666-8.75Zm.14 13.086c-2.864 0-4.515-1.43-4.515-3.807V9.508c0-2.395 1.65-3.844 4.513-3.844 2.455 0 4.237 1.186 4.237 2.879 0 .05-.055.092-.123.092H16.11c-.11 0-.198-.063-.209-.145-.104-.967-1.041-1.629-2.421-1.629-1.701 0-2.66.948-2.66 2.647v1.027c0 1.674.962 2.61 2.66 2.61 1.374 0 2.31-.62 2.421-1.52.01-.08.1-.143.209-.143h1.479c.068 0 .122.041.122.092 0 1.614-1.789 2.762-4.237 2.762Z" fill="#333"/></svg><svg fill="none" viewBox="0 0 40 41" id="feature-1" xmlns="http://www.w3.org/2000/svg"><path d="M3.333 10.875v21.667M36.667 10.875v21.667M9.166 27.542H20v11.666H9.166a.833.833 0 0 1-.833-.833v-10a.833.833 0 0 1 .833-.833v0ZM20 27.542h10.833a.833.833 0 0 1 .834.833v10a.833.833 0 0 1-.834.833H20V27.542Z" stroke="#3AAFA9" stroke-linecap="round" stroke-linejoin="round"/><path d="M14.166 15.875h10a.833.833 0 0 1 .834.833v10.834H13.333V16.708a.833.833 0 0 1 .833-.833v0Z" stroke="#3AAFA9" stroke-linecap="round" stroke-linejoin="round"/><path d="M16.667 15.875h5v4.167a.833.833 0 0 1-.833.833H17.5a.833.833 0 0 1-.833-.833v-4.167ZM11.667 27.542h5v4.166a.833.833 0 0 1-.833.834H12.5a.833.833 0 0 1-.833-.834v-4.166ZM23.333 27.542h5v4.166a.833.833 0 0 1-.833.834h-3.334a.833.833 0 0 1-.833-.834v-4.166ZM37.5 10.875a.833.833 0 0 0 .834-.833V8.143a.833.833 0 0 0-.57-.791L20.5 1.87a1.667 1.667 0 0 0-1.01 0L2.257 7.362a.833.833 0 0 0-.59.805v1.875a.833.833 0 0 0 .833.833h35Z" stroke="#3AAFA9" stroke-linecap="round" stroke-linejoin="round"/></svg><svg fill="none" viewBox="0 0 40 41" id="feature-2" xmlns="http://www.w3.org/2000/svg"><path d="M.8 31.794H24v7.812l4.8-2.88 4.8 2.88v-7.812h5.6v-30.4H.8v30.4Zm31.412-5.43c-.072.074-.149.14-.225.209-.043.038-.083.079-.128.116-.05.041-.102.077-.154.116a4.767 4.767 0 0 1-2.374.957l-.044.007a4.937 4.937 0 0 1-.978 0l-.044-.007a4.77 4.77 0 0 1-2.374-.957c-.051-.04-.104-.075-.154-.116-.044-.037-.084-.078-.128-.116-.076-.068-.152-.135-.224-.208a4.783 4.783 0 0 1-1.388-3.371c0-2.648 2.152-4.8 4.8-4.8 2.647 0 4.8 2.152 4.8 4.8a4.767 4.767 0 0 1-1.385 3.37ZM32 36.782l-3.2-1.92-3.2 1.92v-8.243c.027.016.057.026.085.041.212.119.43.227.656.322l.03.011a6.36 6.36 0 0 0 4.858 0l.03-.011c.226-.095.445-.203.657-.322.028-.015.058-.025.085-.041v8.243H32ZM2.4 2.994h35.2v27.2h-4v-2.981a6.366 6.366 0 0 0 1.6-4.22c0-3.528-2.871-6.4-6.4-6.4a6.407 6.407 0 0 0-6.4 6.4c0 1.617.607 3.092 1.6 4.22v2.98H2.4v-27.2Z" fill="#3AAFA9"/><path d="M30.4 6.194H9.6v1.6h20.8v-1.6ZM26.4 10.993H13.6v1.6h12.8v-1.6ZM14.4 25.394H5.6v1.6h8.8v-1.6Z" fill="#3AAFA9"/></svg><svg fill="none" viewBox="0 0 40 40" id="feature-3" xmlns="http://www.w3.org/2000/svg"><path d="m33.166 14.4-2.559-2.546a.662.662 0 0 0-.454-.187H27.29a.643.643 0 0 0-.44.171.568.568 0 0 0-.183.414v3.83c0 .154.066.303.182.413.117.11.275.172.44.172h5.422a.643.643 0 0 0 .44-.172.568.568 0 0 0 .183-.414v-1.276c-.001-.15-.061-.294-.168-.404Zm-1.077 1.096h-4.177v-2.658h1.973l2.204 2.195v.463Z" fill="#3AAFA9"/><path d="m39.663 17.685-7.242-9.03a1.493 1.493 0 0 0-.503-.406 1.435 1.435 0 0 0-.62-.149h-6.52c-.387.002-.76.164-1.034.45-.275.285-.43.672-.432 1.076v9.607h-.884v-7.22a.745.745 0 0 0-.206-.516.688.688 0 0 0-.496-.214h-4.652v-7.22a.745.745 0 0 0-.206-.516.688.688 0 0 0-.496-.214H8.73a.688.688 0 0 0-.496.214.745.745 0 0 0-.206.516v7.22H3.382a.688.688 0 0 0-.496.214.745.745 0 0 0-.205.516v7.22H.7a.688.688 0 0 0-.495.213.745.745 0 0 0-.206.517v7.95c0 .193.074.379.206.515.131.137.31.214.496.214H4.8a5.69 5.69 0 0 0-.112 4.808 5.48 5.48 0 0 0 1.443 1.957 5.21 5.21 0 0 0 2.121 1.105c.779.196 1.59.206 2.372.029a5.201 5.201 0 0 0 2.145-1.053 5.467 5.467 0 0 0 1.487-1.922c.35-.75.53-1.572.53-2.405a5.624 5.624 0 0 0-.596-2.519h12.785a5.688 5.688 0 0 0-.115 4.806 5.478 5.478 0 0 0 1.443 1.958 5.21 5.21 0 0 0 2.12 1.105 5.086 5.086 0 0 0 2.372.029 5.198 5.198 0 0 0 2.144-1.053 5.464 5.464 0 0 0 1.486-1.922c.35-.75.53-1.571.53-2.404 0-.877-.201-1.74-.59-2.519h2.933a.688.688 0 0 0 .496-.213.745.745 0 0 0 .206-.517v-9.249c0-.356-.12-.702-.337-.978Zm-18.638-4.942v6.49h-6.239v-6.49h6.239ZM9.432 4.793h6.238v6.49H9.432v-6.49Zm3.95 7.95v6.49h-1.656v-6.49h1.656Zm-9.298 0h6.239v6.49H4.084v-6.49Zm5.41 22.462a3.766 3.766 0 0 1-2.117-.65 3.992 3.992 0 0 1-1.432-1.749 4.178 4.178 0 0 1-.281-2.278c.12-.772.454-1.49.96-2.068.028-.03.054-.062.078-.095.445-.481.998-.84 1.609-1.044a3.74 3.74 0 0 1 1.892-.127 3.816 3.816 0 0 1 1.725.82c.5.418.894.958 1.145 1.573a4.186 4.186 0 0 1-.337 3.81 3.944 3.944 0 0 1-1.402 1.328 3.764 3.764 0 0 1-1.84.48Zm13.818-8.023H13.137a5.157 5.157 0 0 0-3.639-1.519c-1.355 0-2.659.544-3.638 1.52H1.404v-6.49h21.908v6.49Zm8.358 8.023c-.768 0-1.52-.236-2.158-.679a4.01 4.01 0 0 1-1.433-1.812 4.191 4.191 0 0 1-.223-2.334 4.094 4.094 0 0 1 1.062-2.07 3.84 3.84 0 0 1 1.988-1.108 3.745 3.745 0 0 1 2.244.228c.71.305 1.317.823 1.744 1.487.428.664.656 1.445.657 2.244 0 1.071-.408 2.1-1.136 2.858a3.811 3.811 0 0 1-2.745 1.186Zm6.926-11.198H36.94v-1.723h1.657v1.723Zm0-3.183H36.94a1.38 1.38 0 0 0-.99.429 1.495 1.495 0 0 0-.413 1.031v1.723c.001.387.15.757.412 1.031.263.273.62.428.991.429h1.657v1.715h-3.292a5.15 5.15 0 0 0-3.635-1.518 5.15 5.15 0 0 0-3.635 1.518h-3.32V9.626a.074.074 0 0 1 .021-.045.069.069 0 0 1 .043-.02l6.561.028 7.256 9.074v2.161Z" fill="#3AAFA9"/></svg><svg fill="none" viewBox="0 0 40 40" id="feature-4" xmlns="http://www.w3.org/2000/svg"><g clip-path="url(#aoa)"><path d="M2.24 5h35.519c.315 0 .572.25.572.555V34.444a.565.565 0 0 1-.572.555H2.239a.565.565 0 0 1-.572-.555V5.552c0-.305.257-.554.572-.554V5Zm25.207 27.776a.565.565 0 0 1-.572-.555c0-.305.256-.555.572-.555h5.683c.315 0 .572.25.572.555a.565.565 0 0 1-.572.555h-5.683ZM29.739 30a.565.565 0 0 1-.573-.555c0-.306.257-.555.573-.555h5.683c.315 0 .572.25.572.555a.565.565 0 0 1-.572.555h-5.683ZM4.53 12.777a.565.565 0 0 1-.572-.555c0-.305.257-.555.572-.555h5.683c.316 0 .573.25.573.555a.565.565 0 0 1-.573.555H4.531Zm2.292 2.778A.565.565 0 0 1 6.25 15c0-.306.257-.555.572-.555h5.683c.316 0 .572.249.572.555a.565.565 0 0 1-.572.555H6.823Zm14.744 2.222 3.016 2.544 2.223-2.544h-5.239Zm6.433.347-2.122 2.43h3.9l-1.777-2.43Zm-4.888 2.43-3.076-2.597-3.076 2.597h6.152Zm-3.2 11.662-.006-.002h-.01l-.016-.003-.008-.003h-.006l-.01-.002h-.005l-.011-.003h-.005l-.01-.002h-.006l-.01-.003-.014-.002-.013-.006h-.003l-.01-.005h-.003l-.01-.005h-.006l-.01-.005h-.006l-.01-.005h-.003l-.003-.003-.008-.005-.002-.002-.008-.006-.006-.002-.008-.005-.005-.003-.008-.005-.005-.003-.008-.005-.005-.002-.006-.005-.005-.003-.005-.005-.006-.003-.005-.005-.003-.002-.005-.003-.005-.005-.003-.003-.005-.002-.005-.005-.003-.003-.005-.002-.006-.006-.002-.002-.003-.003-.005-.002-.003-.003-.003-.002-.005-.006-.003-.005-.002-.002-.008-.008-.003-.003-.002-.005-.006-.005-.005-.005-.005-.005L8.72 21.515a.54.54 0 0 1-.069-.77l2.885-3.847.008-.01.006-.005.005-.005.003-.003.005-.008.003-.002.002-.003.005-.007.006-.006.005-.005.003-.002.005-.008.003-.003.005-.005.005-.005.006-.005.005-.005.003-.003.005-.005.002-.002.003-.003.008-.005.005-.005.006-.005h.002l.006-.005.005-.003.003-.002.008-.006.002-.002.006-.003.008-.005.007-.005.006-.003.002-.002.008-.005.003-.003.003-.003.002-.002.01-.008h.004l.008-.002.007-.006.006-.002.002-.003.008-.005.003-.002.005-.003.008-.005.008-.003.005-.002h.003l.008-.003.003-.002.005-.003.008-.002.008-.003.005-.003h.003l.008-.002.002-.003.006-.002.016-.006.008-.002h.002l.008-.003.003-.002h.005l.008-.003.013-.002h.003l.008-.003.008-.002.008-.003h.01l.008-.003h.003l.013-.002h.064v-.003h16.008c.173 0 .326.075.432.193h.003l.026.033.003.003.013.02.003.003.016.023 2.798 3.826.008.01.008.01.002.005.005.006.003.005.005.005.003.005.005.005.006.008.002.005.003.008.003.005.005.008.003.005.005.007.002.006.006.007.002.005.006.008.002.005.006.008.002.005.003.008.003.005.002.01v.003l.003.01.003.005.002.01v.003l.003.01v.003l.003.01v.003l.002.01v.003l.003.01v.002l.003.01v.003l.002.01v.003l.003.01v.003l.002.01v.003l.003.01V21.138l-.003.01v.002l-.002.01v.003l-.003.01v.003l-.003.01v.003l-.002.01v.003l-.003.01v.003l-.002.01v.002l-.003.01v.003l-.003.01v.003l-.002.01v.003l-.006.01v.003l-.005.01v.003l-.005.01-.003.003-.005.01-.003.002-.005.01-.003.003-.005.008-.003.002-.005.008-.003.005-.005.008-.003.005-.005.008-.003.005-.005.008-.003.005-.005.008-.003.005-.005.008-.002.005-.006.007-.003.005-.005.006-.002.005-.006.005-.005.005-.005.005-.006.005-.005.005-.005.006-.005.005-.006.005-.005.005-.01.01-10.866 10.516-.003.005-.005.005-.006.005-.005.006-.003.005-.002.002-.003.003-.002.003-.006.002-.005.005v.003l-.01.008-.003.002-.008.005-.006.005-.005.006-.005.002-.006.005h-.002l-.005.003-.006.005-.002.002-.003.003-.005.005-.003.003-.005.002-.006.003-.002.002-.003.003-.005.003-.003.002-.005.003-.006.002-.002.003-.005.002-.006.003-.002.003-.006.002-.005.003-.005.002-.005.003-.003.002-.005.003-.006.003-.002.002-.006.003-.005.002h-.003l-.005.003-.008.002-.005.003-.008.003-.005.002-.008.003-.014.005-.005.002-.008.003-.003.003h-.002l-.008.002-.003.003h-.003l-.007.002-.003.003h-.003l-.008.002-.005.003h-.003l-.008.003-.005.002-.008.003-.013.002H19.904l.008-.005Zm.066-1.989 3.69-8.563H16.29l3.69 8.563h-.002Zm4.928-8.563-3.288 7.628 7.885-7.628h-4.597ZM18.33 29.28l-3.28-7.615h-4.555l7.838 7.615h-.003Zm-4.136-8.727-2.128-2.436-1.828 2.436h3.956Zm-.927-2.777 2.223 2.543 3.015-2.544h-5.238ZM10.259 7.22h1.145v1.113h-1.145V7.22Zm-2.864 0H8.54v1.113H7.395V7.22Zm-2.864 0h1.145v1.113H4.53V7.22Zm32.655 3.335H2.814v23.331h34.372V10.555ZM2.814 9.442h34.372V6.11H2.814v3.332Z" fill="#3AAFA9"/></g><defs><clipPath id="aoa"><path fill="#fff" transform="translate(1.667 5)" d="M0 0h36.667v30H0z"/></clipPath></defs></svg><svg fill="none" viewBox="0 0 40 40" id="feature-5" xmlns="http://www.w3.org/2000/svg"><path d="M36.667 36.667H10.973v-1.39h24.305V10.973h1.39v25.695Z" fill="#3AAFA9"/><path d="M33.889 33.889H6.806v-1.39H32.5V6.806h1.389V33.89Z" fill="#3AAFA9"/><path d="M29.722 4.722v25h-25v-25h25Zm1.389-1.389H3.333v27.778h27.778V3.333Z" fill="#3AAFA9"/><path d="m10.178 25.219-1.19-.715 4.166-6.944a.694.694 0 0 1 1.128-.087l2.878 3.452 5.04-7.56a.694.694 0 0 1 1.228.142l4.166 11.111-1.301.488-3.69-9.842-4.804 7.205a.694.694 0 0 1-1.111.06l-2.846-3.416-3.664 6.106ZM11.666 13.056a2.78 2.78 0 0 1-2.777-2.778A2.78 2.78 0 0 1 11.666 7.5a2.78 2.78 0 0 1 2.778 2.778 2.78 2.78 0 0 1-2.778 2.778Zm0-4.167a1.39 1.39 0 0 0-1.388 1.389 1.39 1.39 0 0 0 1.388 1.389 1.39 1.39 0 0 0 1.39-1.39 1.39 1.39 0 0 0-1.39-1.388Z" fill="#3AAFA9"/><path d="M31.11 24.167H3.334v1.388h27.778v-1.388Z" fill="#3AAFA9"/></svg><svg fill="none" viewBox="0 0 18 16" id="filter" xmlns="http://www.w3.org/2000/svg"><path clip-rule="evenodd" d="M15.667 2H2.333l5.334 6.307v4.36L10.334 14V8.307L15.667 2Z" stroke="#fff" stroke-width="2" stroke-linecap="square"/></svg><svg fill="none" viewBox="0 0 24 25" id="heart" xmlns="http://www.w3.org/2000/svg"><path fill-rule="evenodd" clip-rule="evenodd" d="M12.692 7.584a1 1 0 0 1-1.384 0l-.693-.665A4.5 4.5 0 0 0 3 10.166c0 2.383 1.29 4.35 3.152 5.967 1.863 1.618 4.091 2.691 5.423 3.239.278.114.572.114.85 0 1.332-.548 3.56-1.62 5.423-3.239C19.71 14.517 21 12.55 21 10.167a4.5 4.5 0 0 0-7.615-3.248l-.693.665ZM12 5.476a6.5 6.5 0 0 0-11 4.69c0 6.369 6.97 9.886 9.814 11.055a3.096 3.096 0 0 0 2.372 0C16.03 20.051 23 16.535 23 10.167a6.5 6.5 0 0 0-11-4.69Z" fill="#141718"/></svg><svg fill="none" viewBox="0 0 24 24" id="heart-line" xmlns="http://www.w3.org/2000/svg"><path d="M12.001 4.529a5.998 5.998 0 0 1 8.242.228 6 6 0 0 1 .236 8.236l-8.48 8.492-8.478-8.492a6 6 0 0 1 8.48-8.464Zm6.826 1.641a3.998 3.998 0 0 0-5.49-.153l-1.335 1.198-1.336-1.197a4 4 0 0 0-5.686 5.605L12 18.654l7.02-7.03a4 4 0 0 0-.193-5.454Z" fill="#000"/></svg><svg fill="none" viewBox="0 0 24 24" id="id-card-line" xmlns="http://www.w3.org/2000/svg"><path d="M3 6h18v12H3V6ZM2 4a1 1 0 0 0-1 1v14a1 1 0 0 0 1 1h20a1 1 0 0 0 1-1V5a1 1 0 0 0-1-1H2Zm11 4h6v2h-6V8Zm5 4h-5v2h5v-2Zm-7.5-2a2.5 2.5 0 1 1-5 0 2.5 2.5 0 0 1 5 0ZM8 13.5A3.5 3.5 0 0 0 4.5 17h7A3.5 3.5 0 0 0 8 13.5Z" fill="#000"/></svg><svg fill="none" viewBox="0 0 16 16" id="info" xmlns="http://www.w3.org/2000/svg"><path clip-rule="evenodd" d="M8 14.667A6.667 6.667 0 1 0 8 1.333a6.667 6.667 0 0 0 0 13.334Z" stroke="#fff" stroke-width="2" stroke-linecap="round" stroke-linejoin="round"/><path d="M8 10.667V8" stroke="#fff" stroke-width="3" stroke-linecap="square"/><circle cx="8" cy="5.333" r=".667" fill="#fff"/></svg><svg fill="none" viewBox="0 0 24 25" id="info-product" xmlns="http://www.w3.org/2000/svg"><path clip-rule="evenodd" d="M12 22.5c5.523 0 10-4.477 10-10s-4.477-10-10-10-10 4.477-10 10 4.477 10 10 10Z" stroke="#3AAFA9" stroke-width="1.5" stroke-linecap="round" stroke-linejoin="round"/><path d="M12 16.5v-4" stroke="#3AAFA9" stroke-width="1.5" stroke-linecap="square" stroke-linejoin="round"/><circle cx="12" cy="8.5" r="1" fill="#3AAFA9"/></svg><svg fill="none" viewBox="0 0 24 24" id="mail" xmlns="http://www.w3.org/2000/svg"><path clip-rule="evenodd" d="M4 4h16c1.1 0 2 .9 2 2v12c0 1.1-.9 2-2 2H4c-1.1 0-2-.9-2-2V6c0-1.1.9-2 2-2Z" stroke="#3AAFA9" stroke-width="2" stroke-linecap="round"/><path d="m22 6-10 7L2 6" stroke="#3AAFA9" stroke-width="2" stroke-linecap="round" stroke-linejoin="round"/></svg><svg fill="none" viewBox="0 0 16 17" id="mail-product" xmlns="http://www.w3.org/2000/svg"><path clip-rule="evenodd" d="M2.667 3.167h10.666c.734 0 1.334.6 1.334 1.333v8c0 .733-.6 1.333-1.334 1.333H2.667c-.734 0-1.334-.6-1.334-1.333v-8c0-.733.6-1.333 1.334-1.333Z" stroke="#3AAFA9" stroke-width="2" stroke-linecap="round"/><path d="M14.667 4.5 8 9.167 1.333 4.5" stroke="#3AAFA9" stroke-width="2" stroke-linecap="round" stroke-linejoin="round"/></svg><svg fill="none" viewBox="0 0 34 34" id="map" xmlns="http://www.w3.org/2000/svg"><path clip-rule="evenodd" d="M1.86 8.742v22.021l9.635-5.505 11.01 5.506 9.635-5.506V3.237l-9.634 5.505-11.011-5.505L1.86 8.742v0Z" stroke="#fff" stroke-width="2" stroke-linecap="round" stroke-linejoin="round"/><path d="M11.495 3.237v22.021M22.505 8.742v22.021" stroke="#fff" stroke-width="2" stroke-linecap="round" stroke-linejoin="round"/></svg><svg fill="none" viewBox="0 0 32 32" id="map-pin" xmlns="http://www.w3.org/2000/svg"><path fill-rule="evenodd" clip-rule="evenodd" d="M28 13.333c0 9.334-12 17.334-12 17.334s-12-8-12-17.334c0-6.627 5.373-12 12-12s12 5.373 12 12Z" fill="#3AAFA9"/><path fill-rule="evenodd" clip-rule="evenodd" d="M16 17.333a4 4 0 1 0 0-8 4 4 0 0 0 0 8Z" fill="#fff"/></svg><svg fill="none" viewBox="0 0 32 32" id="moon" xmlns="http://www.w3.org/2000/svg"><path fill-rule="evenodd" clip-rule="evenodd" d="M28 17.053A12 12 0 1 1 14.947 4 9.333 9.333 0 0 0 28 17.053Z" fill="#3AAFA9"/></svg><svg fill="none" viewBox="0 0 34 34" id="package" xmlns="http://www.w3.org/2000/svg"><path clip-rule="evenodd" d="m18.225 2.48 11.01 5.505a2.753 2.753 0 0 1 1.528 2.464v13.116a2.753 2.753 0 0 1-1.528 2.464l-11.01 5.505a2.753 2.753 0 0 1-2.464 0L4.751 26.03a2.753 2.753 0 0 1-1.515-2.478V10.45c.001-1.045.593-2 1.528-2.464l11.01-5.505a2.753 2.753 0 0 1 2.45 0Z" stroke="#fff" stroke-width="2" stroke-linecap="round" stroke-linejoin="round"/><path d="M3.677 8.962 17 15.624l13.323-6.662M17 31.81V15.623M10.118 5.301l13.764 6.882" stroke="#fff" stroke-width="2" stroke-linecap="round" stroke-linejoin="round"/></svg><svg fill="none" viewBox="0 0 24 24" id="phone" xmlns="http://www.w3.org/2000/svg"><path clip-rule="evenodd" d="M21 16.92v3a2 2 0 0 1-2.18 2 19.791 19.791 0 0 1-8.63-3.07 19.5 19.5 0 0 1-6-6 19.79 19.79 0 0 1-3.07-8.67A2 2 0 0 1 3.11 2h3a2 2 0 0 1 2 1.72c.127.96.362 1.903.7 2.81a2 2 0 0 1-.45 2.11L7.09 9.91a16 16 0 0 0 6 6l1.27-1.27a2 2 0 0 1 2.11-.45c.908.339 1.85.574 2.81.7A2 2 0 0 1 21 16.92Z" stroke="#3AAFA9" stroke-width="2" stroke-linecap="round"/></svg><svg fill="none" viewBox="0 0 34 34" id="phone-call" xmlns="http://www.w3.org/2000/svg"><path d="m19.822 8.742.191-.982a1 1 0 0 0-.899 1.689l.707-.707Zm5.436 5.436-.707.708a1 1 0 0 0 1.689-.899l-.982.191ZM19.822 3.237l.11-.994a1 1 0 0 0-.817 1.701l.707-.707Zm10.941 10.928-.706.707a1 1 0 0 0 1.7-.819l-.994.112Zm-1.376 15.112h-1v.004l1-.004Zm-3 2.753-.108.994.018.002.09-.996Zm-11.878-4.226.544-.839-.008-.005-.536.844ZM6.25 19.546l.844-.536-.005-.008-.84.544ZM2.025 7.613l-.996.09.002.016.994-.106Zm2.74-3v-1h-.002l.001 1Zm4.128 0v1h.01l-.01-1Zm2.753 2.367.991-.13v-.01l-.991.14Zm.963 3.868-.937.35.001.002.936-.352Zm-.619 2.904.707.707.004-.004-.71-.703ZM10.242 15.5l-.707-.707a1 1 0 0 0-.162 1.201l.87-.494Zm8.258 8.258-.494.87a1 1 0 0 0 1.201-.163l-.707-.707Zm1.748-1.748-.703-.711-.004.004.707.707Zm2.904-.62-.352.937h.003l.35-.937Zm3.868.964.14-.99-.01-.001-.13.991Zm2.367 2.794-1-.025v.025h1ZM19.63 9.723a5.882 5.882 0 0 1 4.646 4.647l1.963-.383a7.882 7.882 0 0 0-6.226-6.227l-.383 1.963Zm6.335 3.748L20.53 8.035l-1.415 1.414 5.437 5.437 1.414-1.415Zm-6.254-9.24A11.387 11.387 0 0 1 29.77 14.275l1.987-.223a13.387 13.387 0 0 0-11.825-11.81l-.22 1.987Zm11.76 9.226L20.527 2.53l-1.413 1.415 10.942 10.928 1.413-1.415Zm-3.084 11.691v4.129h2v-4.129h-2Zm0 4.133c.002.494-.204.965-.568 1.299l1.352 1.473a3.753 3.753 0 0 0 1.216-2.78l-2 .008Zm-.568 1.299a1.753 1.753 0 0 1-1.342.454l-.18 1.992a3.753 3.753 0 0 0 2.874-.973L27.82 30.58Zm-1.324.456a26.238 26.238 0 0 1-11.442-4.07l-1.088 1.677a28.238 28.238 0 0 0 12.314 4.38l.216-1.988Zm-11.45-4.076a25.838 25.838 0 0 1-7.95-7.95l-1.688 1.073a27.84 27.84 0 0 0 8.566 8.565l1.072-1.688ZM7.09 19.003A26.237 26.237 0 0 1 3.02 7.508l-1.99.21A28.238 28.238 0 0 0 5.412 20.09l1.679-1.087ZM3.021 7.523c-.044-.49.12-.976.451-1.34L1.995 4.837a3.753 3.753 0 0 0-.966 2.867l1.992-.18Zm.451-1.34c.332-.362.801-.57 1.293-.57l-.002-2a3.753 3.753 0 0 0-2.768 1.223l1.477 1.348Zm1.292-.57h4.13v-2h-4.13v2Zm4.14 0c.879-.009 1.629.636 1.752 1.507l1.98-.28a3.753 3.753 0 0 0-3.753-3.227l.02 2Zm1.75 1.498a18.67 18.67 0 0 0 1.018 4.086l1.874-.699a16.67 16.67 0 0 1-.909-3.649l-1.982.262Zm1.02 4.089c.24.64.086 1.362-.395 1.849l1.422 1.406a3.753 3.753 0 0 0 .845-3.96l-1.873.705Zm-.391 1.845-1.748 1.748 1.414 1.414 1.748-1.748-1.414-1.414Zm-1.91 2.95a23.021 23.021 0 0 0 8.633 8.632l.988-1.738a21.022 21.022 0 0 1-7.883-7.883l-1.738.988Zm9.834 8.47 1.748-1.748-1.414-1.414-1.748 1.748 1.414 1.414Zm1.744-1.744a1.753 1.753 0 0 1 1.85-.394l.703-1.873a3.753 3.753 0 0 0-3.959.845l1.406 1.422Zm1.852-.394c1.319.493 2.69.834 4.086 1.018l.262-1.982a16.678 16.678 0 0 1-3.65-.91l-.698 1.874Zm4.077 1.017c.881.124 1.53.89 1.507 1.78l2 .049a3.753 3.753 0 0 0-3.228-3.81l-.279 1.981Z" fill="#fff"/></svg><svg fill="none" viewBox="0 0 32 32" id="phone-contact" xmlns="http://www.w3.org/2000/svg"><path fill-rule="evenodd" clip-rule="evenodd" d="M28 22.56v4a2.666 2.666 0 0 1-2.907 2.667 26.386 26.386 0 0 1-11.506-4.094 25.999 25.999 0 0 1-8-8 26.386 26.386 0 0 1-4.094-11.56 2.667 2.667 0 0 1 2.654-2.906h4a2.667 2.667 0 0 1 2.666 2.293c.17 1.28.482 2.537.934 3.747a2.667 2.667 0 0 1-.6 2.813l-1.694 1.693a21.332 21.332 0 0 0 8 8l1.694-1.693a2.667 2.667 0 0 1 2.813-.6c1.21.451 2.467.764 3.747.933A2.667 2.667 0 0 1 28 22.56Z" fill="#3AAFA9"/></svg><svg fill="none" viewBox="0 0 17 17" id="phone-product" xmlns="http://www.w3.org/2000/svg"><path clip-rule="evenodd" d="M15 11.78v2a1.334 1.334 0 0 1-1.453 1.333 13.193 13.193 0 0 1-5.754-2.046 13 13 0 0 1-4-4 13.193 13.193 0 0 1-2.046-5.78 1.333 1.333 0 0 1 1.326-1.454h2c.67-.006 1.24.484 1.334 1.147a8.56 8.56 0 0 0 .466 1.873 1.333 1.333 0 0 1-.3 1.407l-.846.847a10.667 10.667 0 0 0 4 4l.846-.847c.37-.366.92-.483 1.407-.3a8.564 8.564 0 0 0 1.873.467c.67.094 1.164.676 1.147 1.353Z" stroke="#3AAFA9" stroke-width="2" stroke-linecap="round"/></svg><svg fill="none" viewBox="0 0 24 24" id="product-features-1" xmlns="http://www.w3.org/2000/svg"><path clip-rule="evenodd" d="M12 22c5.523 0 10-4.477 10-10S17.523 2 12 2 2 6.477 2 12s4.477 10 10 10Z" stroke="#3AAFA9" stroke-width="2" stroke-linecap="round" stroke-linejoin="round"/><path d="M2 12h20" stroke="#3AAFA9" stroke-width="2" stroke-linecap="round" stroke-linejoin="round"/><path clip-rule="evenodd" d="M12 2a15.3 15.3 0 0 1 4 10 15.3 15.3 0 0 1-4 10 15.3 15.3 0 0 1-4-10 15.3 15.3 0 0 1 4-10v0Z" stroke="#3AAFA9" stroke-width="2" stroke-linecap="round" stroke-linejoin="round"/></svg><svg fill="none" viewBox="0 0 25 24" id="product-features-2" xmlns="http://www.w3.org/2000/svg"><path clip-rule="evenodd" d="m13.39 1.45 8 4a2 2 0 0 1 1.11 1.79v9.53a2 2 0 0 1-1.11 1.79l-8 4a2 2 0 0 1-1.79 0l-8-4a2 2 0 0 1-1.1-1.8V7.24a2 2 0 0 1 1.11-1.79l8-4a2 2 0 0 1 1.78 0Z" stroke="#3AAFA9" stroke-width="2" stroke-linecap="round" stroke-linejoin="round"/><path d="M2.82 6.16 12.5 11l9.68-4.84M12.5 22.76V11" stroke="#3AAFA9" stroke-width="2" stroke-linecap="round" stroke-linejoin="round"/></svg><svg fill="none" viewBox="0 0 24 24" id="product-features-3" xmlns="http://www.w3.org/2000/svg"><path clip-rule="evenodd" d="M14 2H6a2 2 0 0 0-2 2v16a2 2 0 0 0 2 2h12a2 2 0 0 0 2-2V8l-6-6Z" stroke="#3AAFA9" stroke-width="2" stroke-linecap="round" stroke-linejoin="round"/><path d="M14 2v6h6M16 13H8M16 17H8M10 9H8" stroke="#3AAFA9" stroke-width="2" stroke-linecap="round" stroke-linejoin="round"/></svg><svg fill="none" viewBox="0 0 16 17" id="search" xmlns="http://www.w3.org/2000/svg"><path clip-rule="evenodd" d="M7 12.5a5 5 0 1 0 0-10 5 5 0 0 0 0 10Z" stroke="#BDBDBD" stroke-width="2" stroke-linecap="round" stroke-linejoin="round"/><path d="m14 14.5-3.467-3.467" stroke="#BDBDBD" stroke-width="2" stroke-linecap="square" stroke-linejoin="round"/></svg><svg fill="none" viewBox="0 0 24 24" id="search-line" xmlns="http://www.w3.org/2000/svg"><path d="m18.031 16.617 4.283 4.282-1.415 1.415-4.282-4.283A8.96 8.96 0 0 1 11 20c-4.968 0-9-4.032-9-9s4.032-9 9-9 9 4.032 9 9a8.96 8.96 0 0 1-1.969 5.617Zm-2.006-.742A6.977 6.977 0 0 0 18 11c0-3.867-3.133-7-7-7s-7 3.133-7 7 3.133 7 7 7a6.977 6.977 0 0 0 4.875-1.975l.15-.15Z" fill="#000"/></svg><svg fill="none" viewBox="0 0 34 34" id="shield" xmlns="http://www.w3.org/2000/svg"><path clip-rule="evenodd" d="M17 30.763S28.01 25.258 28.01 17V5.99L17 3.236 5.99 5.989V17C5.99 25.258 17 30.763 17 30.763Z" stroke="#fff" stroke-width="2" stroke-linecap="round" stroke-linejoin="round"/></svg><svg fill="none" viewBox="0 0 24 24" id="user" xmlns="http://www.w3.org/2000/svg"><path d="M18.559 19.549a7.003 7.003 0 0 0-13.118 0m13.118 0A9.976 9.976 0 0 0 22 12c0-5.523-4.477-10-10-10S2 6.477 2 12a9.977 9.977 0 0 0 3.441 7.549m13.118 0A9.961 9.961 0 0 1 12 22a9.961 9.961 0 0 1-6.559-2.451M15 9a3 3 0 1 1-6 0 3 3 0 0 1 6 0Z" stroke="#141718" stroke-width="1.5" stroke-linejoin="round"/></svg><svg fill="none" viewBox="0 0 24 24" id="user-star-line" xmlns="http://www.w3.org/2000/svg"><path d="M12 14v2a6 6 0 0 0-6 6H4a8 8 0 0 1 8-8Zm0-1c-3.315 0-6-2.685-6-6s2.685-6 6-6 6 2.685 6 6-2.685 6-6 6Zm0-2c2.21 0 4-1.79 4-4s-1.79-4-4-4-4 1.79-4 4 1.79 4 4 4Zm6 10.5-2.939 1.545.561-3.273-2.377-2.317 3.286-.477L18 14l1.47 2.977 3.285.478-2.377 2.318.56 3.272L18 21.5Z" fill="#000"/></svg><svg viewBox="0 0 497 497" id="website" xmlns="http://www.w3.org/2000/svg"><path d="M497 128.5v312c0 11.046-8.954 20-20 20H20c-11.046 0-20-8.954-20-20v-312z" fill="#faf8f8"/><path d="M290.498 294.5c0-23.196-18.804-42-42-42a41.823 41.823 0 0 0-19.482 4.782c-13.386 7.021-19.327 21.053-19.327 37.218 0 23.196 15.613 36.457 38.809 36.457 16.214 0 30.282-3.645 37.282-17.099a41.814 41.814 0 0 0 4.718-19.358z" fill="#dc4955"/><path d="M286.468 312.47c-6.73 14.21-21.2 24.03-37.97 24.03-23.2 0-42-18.8-42-42 0-16.77 9.82-31.24 24.03-37.97-2.59 5.45-4.03 11.54-4.03 17.97 0 23.2 18.8 42 42 42 6.43 0 12.52-1.44 17.97-4.03z" fill="#d82f3c"/><path d="M429.496 294.5c0-23.196-18.804-42-42-42a41.823 41.823 0 0 0-19.482 4.782c-13.386 7.021-19.327 21.053-19.327 37.218 0 23.196 15.613 36.457 38.809 36.457 16.214 0 30.282-3.645 37.282-17.099a41.814 41.814 0 0 0 4.718-19.358z" fill="#b7e546"/><path d="M425.466 312.47c-6.73 14.21-21.2 24.03-37.97 24.03-23.2 0-42-18.8-42-42 0-16.77 9.82-31.24 24.03-37.97-2.59 5.45-4.03 11.54-4.03 17.97 0 23.2 18.8 42 42 42 6.43 0 12.52-1.44 17.97-4.03z" fill="#abd641"/><path d="M497 148.5v-20l-276.011-12.798L0 128.5v312c0 11.046 8.954 20 20 20h15c-8.28 0-15-6.72-15-15v-291a6 6 0 0 1 6-6z" fill="#f0e9e6"/><path d="M497 56.5V129H0V56.5c0-11.046 8.954-20 20-20h457c11.046 0 20 8.954 20 20z" fill="#5d748a"/><g fill="#3f597d"><path d="M227.758 108.5c-8.255 0-14.947-6.716-14.947-15s6.692-15 14.947-15h208.315c8.255 0 14.947 6.716 14.947 15s-6.692 15-14.947 15z"/><ellipse cx="160.869" cy="93.5" rx="14.947" ry="15"/><path d="m171.361 104.184 12.874-12.869-13.139 1.179zM150.592 82.608l12.562-12.516-2.693 10.408z"/><ellipse cx="98.034" cy="93.5" rx="14.947" ry="15"/><path d="m108.553 104.157 12.382-12.499-12.674.836zM87.757 82.608l12.371-12.459L97.626 80.5z"/><ellipse cx="32.947" cy="93.5" rx="14.947" ry="15"/><path d="M43.769 103.846 56.49 90.66l-13.139 1.381zM22.67 82.608 34.292 70.57l-1.753 9.93z"/></g><ellipse cx="173.849" cy="80.5" fill="#b7e546" rx="14.947" ry="15"/><path d="m217.514 82.577 12.971-12.991-3.025 14.276zM446.83 103.915l13.149-13.179-10.185 3.381z" fill="#3f597d"/><ellipse cx="110.946" cy="80.5" fill="#ffbf54" rx="14.947" ry="15"/><ellipse cx="45.495" cy="80.5" fill="#dc4955" rx="14.947" ry="15"/><path d="M240.737 95.5c-8.255 0-14.947-6.716-14.947-15s6.692-15 14.947-15h208.315c8.255 0 14.947 6.716 14.947 15s-6.692 15-14.947 15z" fill="#faf8f8"/><path d="m135.893 215 226.628 2c5.523 0 10-4.477 10-10l3.479-7v-30c0-5.523-4.477-10-10-10H142l-6.107 5c-5.523 0-10 4.477-10 10v30c0 5.523 4.477 10 10 10z" fill="#aad8de"/><path d="M376 200v10c0 5.523-4.477 10-10 10H132c-5.523 0-10-4.477-10-10v-40c0-5.523 4.477-10 10-10h10v33a7 7 0 0 0 7 7z" fill="#94ccd4"/><path d="M151.5 294.5c0-23.196-18.804-42-42-42a41.823 41.823 0 0 0-19.482 4.782c-13.386 7.021-19.327 21.053-19.327 37.218 0 23.196 15.613 36.457 38.809 36.457 16.214 0 30.282-3.645 37.282-17.099A41.814 41.814 0 0 0 151.5 294.5z" fill="#ffbf54"/><path d="M147.47 312.47c-6.73 14.21-21.2 24.03-37.97 24.03-23.2 0-42-18.8-42-42 0-16.77 9.82-31.24 24.03-37.97-2.59 5.45-4.03 11.54-4.03 17.97 0 23.2 18.8 42 42 42 6.43 0 12.52-1.44 17.97-4.03z" fill="#ffa442"/><path d="M149.5 374h-70a7.5 7.5 0 0 1 0-15h70a7.5 7.5 0 0 1 0 15zM149.5 404h-80a7.5 7.5 0 0 1 0-15h80a7.5 7.5 0 0 1 0 15zM149.5 434h-80a7.5 7.5 0 0 1 0-15h80a7.5 7.5 0 0 1 0 15zM288.5 374h-70a7.5 7.5 0 0 1 0-15h70c4.143 0 7.5 3.358 7.5 7.5s-3.357 7.5-7.5 7.5zM288.5 404h-80a7.5 7.5 0 0 1 0-15h80c4.143 0 7.5 3.358 7.5 7.5s-3.357 7.5-7.5 7.5zM288.5 434h-80a7.5 7.5 0 0 1 0-15h80c4.143 0 7.5 3.358 7.5 7.5s-3.357 7.5-7.5 7.5zM427.5 374h-70c-4.143 0-7.5-3.358-7.5-7.5s3.357-7.5 7.5-7.5h70c4.143 0 7.5 3.358 7.5 7.5s-3.357 7.5-7.5 7.5zM427.5 404h-80c-4.143 0-7.5-3.358-7.5-7.5s3.357-7.5 7.5-7.5h80c4.143 0 7.5 3.358 7.5 7.5s-3.357 7.5-7.5 7.5zM427.5 434h-80c-4.143 0-7.5-3.358-7.5-7.5s3.357-7.5 7.5-7.5h80c4.143 0 7.5 3.358 7.5 7.5s-3.357 7.5-7.5 7.5z" fill="#f0e9e6"/></svg><svg fill="none" viewBox="0 0 24 24" id="zoom" xmlns="http://www.w3.org/2000/svg"><path clip-rule="evenodd" d="M10.5 18a7.5 7.5 0 1 0 0-15 7.5 7.5 0 0 0 0 15Z" stroke="#fff" stroke-width="2" stroke-linecap="round" stroke-linejoin="round"/><path d="m21 21-5.2-5.2" stroke="#fff" stroke-width="2" stroke-linecap="round" stroke-linejoin="round"/></svg></svg>