<svg width="34" height="34" viewBox="0 0 34 34" fill="none" xmlns="http://www.w3.org/2000/svg">
<path fill-rule="evenodd" clip-rule="evenodd" d="M18.2248 2.47959L29.2355 7.98497C30.171 8.4498 30.7627 9.40405 30.7633 10.4486V23.5652C30.7627 24.6097 30.171 25.564 29.2355 26.0288L18.2248 31.5342C17.4494 31.9222 16.5365 31.9222 15.7611 31.5342L4.75037 26.0288C3.81583 25.5579 3.22911 24.5979 3.2364 23.5514V10.4486C3.23695 9.40405 3.82869 8.4498 4.76414 7.98497L15.7749 2.47959C16.5465 2.09616 17.4532 2.09616 18.2248 2.47959Z" stroke="white" stroke-width="2" stroke-linecap="round" stroke-linejoin="round"/>
<path d="M3.67725 8.96216L17.0003 15.6237L30.3233 8.96216" stroke="white" stroke-width="2" stroke-linecap="round" stroke-linejoin="round"/>
<path d="M17 31.8095V15.6237" stroke="white" stroke-width="2" stroke-linecap="round" stroke-linejoin="round"/>
<path d="M10.1182 5.30109L23.8816 12.1828" stroke="white" stroke-width="2" stroke-linecap="round" stroke-linejoin="round"/>
</svg>
