<svg width="40" height="40" viewBox="0 0 40 40" fill="none" xmlns="http://www.w3.org/2000/svg">
<path d="M3.3335 10.375V32.0417" stroke="#00ADA8" stroke-linecap="round" stroke-linejoin="round"/>
<path d="M36.6665 10.375V32.0417" stroke="#00ADA8" stroke-linecap="round" stroke-linejoin="round"/>
<path d="M9.16683 27.0417H20.0002V38.7083H9.16683C8.94582 38.7083 8.73385 38.6205 8.57757 38.4642C8.42129 38.308 8.3335 38.096 8.3335 37.875V27.875C8.3335 27.654 8.42129 27.442 8.57757 27.2857C8.73385 27.1295 8.94582 27.0417 9.16683 27.0417V27.0417Z" stroke="#00ADA8" stroke-linecap="round" stroke-linejoin="round"/>
<path d="M20 27.0417H30.8333C31.0543 27.0417 31.2663 27.1295 31.4226 27.2857C31.5789 27.442 31.6667 27.654 31.6667 27.875V37.875C31.6667 38.096 31.5789 38.308 31.4226 38.4642C31.2663 38.6205 31.0543 38.7083 30.8333 38.7083H20V27.0417Z" stroke="#00ADA8" stroke-linecap="round" stroke-linejoin="round"/>
<path d="M14.1668 15.375H24.1668C24.3878 15.375 24.5998 15.4628 24.7561 15.6191C24.9124 15.7754 25.0002 15.9873 25.0002 16.2083V27.0417H13.3335V16.2083C13.3335 15.9873 13.4213 15.7754 13.5776 15.6191C13.7339 15.4628 13.9458 15.375 14.1668 15.375V15.375Z" stroke="#00ADA8" stroke-linecap="round" stroke-linejoin="round"/>
<path d="M16.6665 15.375H21.6665V19.5417C21.6665 19.7627 21.5787 19.9746 21.4224 20.1309C21.2661 20.2872 21.0542 20.375 20.8332 20.375H17.4998C17.2788 20.375 17.0669 20.2872 16.9106 20.1309C16.7543 19.9746 16.6665 19.7627 16.6665 19.5417V15.375Z" stroke="#00ADA8" stroke-linecap="round" stroke-linejoin="round"/>
<path d="M11.6665 27.0417H16.6665V31.2083C16.6665 31.4293 16.5787 31.6413 16.4224 31.7976C16.2661 31.9539 16.0542 32.0417 15.8332 32.0417H12.4998C12.2788 32.0417 12.0669 31.9539 11.9106 31.7976C11.7543 31.6413 11.6665 31.4293 11.6665 31.2083V27.0417Z" stroke="#00ADA8" stroke-linecap="round" stroke-linejoin="round"/>
<path d="M23.3335 27.0417H28.3335V31.2083C28.3335 31.4293 28.2457 31.6413 28.0894 31.7976C27.9331 31.9539 27.7212 32.0417 27.5002 32.0417H24.1668C23.9458 32.0417 23.7339 31.9539 23.5776 31.7976C23.4213 31.6413 23.3335 31.4293 23.3335 31.2083V27.0417Z" stroke="#00ADA8" stroke-linecap="round" stroke-linejoin="round"/>
<path d="M37.4999 10.375C37.7209 10.375 37.9328 10.2872 38.0891 10.1309C38.2454 9.97465 38.3332 9.76269 38.3332 9.54167V7.64334C38.3334 7.46823 38.2785 7.29749 38.1762 7.15538C38.0738 7.01327 37.9293 6.90701 37.7632 6.85167L20.4999 1.37001C20.1713 1.26554 19.8184 1.26554 19.4899 1.37001L2.25654 6.86167C2.08449 6.91419 1.93404 7.02098 1.8277 7.16608C1.72136 7.31117 1.66482 7.48679 1.66654 7.66667V9.54167C1.66654 9.76269 1.75434 9.97465 1.91062 10.1309C2.0669 10.2872 2.27886 10.375 2.49988 10.375H37.4999Z" stroke="#00ADA8" stroke-linecap="round" stroke-linejoin="round"/>
</svg>
