<svg width="777" height="393" viewBox="0 0 777 393" fill="none" xmlns="http://www.w3.org/2000/svg">
<path style="mix-blend-mode:multiply" d="M493.539 98.5056V125.511H322.553V75.4175H200.034V364.511H322.553L624.835 366.295V98.5056H493.539Z" fill="url(#paint0_linear_3018_1648)"/>
<path d="M593.755 116.743H512.843C512.299 116.743 511.778 116.527 511.394 116.142C511.01 115.758 510.794 115.236 510.794 114.692C510.794 114.147 511.009 113.624 511.393 113.237C511.777 112.849 512.298 112.63 512.843 112.625H593.755C594.3 112.63 594.821 112.849 595.205 113.237C595.589 113.624 595.804 114.147 595.804 114.692C595.804 115.236 595.588 115.758 595.204 116.142C594.82 116.527 594.299 116.743 593.755 116.743Z" fill="white"/>
<path d="M593.755 132.746H512.843C512.298 132.742 511.777 132.522 511.393 132.135C511.009 131.747 510.794 131.224 510.794 130.679C510.794 130.135 511.01 129.614 511.394 129.229C511.778 128.844 512.299 128.628 512.843 128.628H593.755C594.299 128.628 594.82 128.844 595.204 129.229C595.588 129.614 595.804 130.135 595.804 130.679C595.804 131.224 595.589 131.747 595.205 132.135C594.821 132.522 594.3 132.742 593.755 132.746Z" fill="white"/>
<path d="M593.755 148.766H512.843C512.299 148.766 511.778 148.55 511.394 148.165C511.01 147.781 510.794 147.259 510.794 146.715C510.794 146.172 511.01 145.65 511.394 145.266C511.778 144.881 512.299 144.665 512.843 144.665H593.755C594.299 144.665 594.82 144.881 595.204 145.266C595.588 145.65 595.804 146.172 595.804 146.715C595.804 147.259 595.588 147.781 595.204 148.165C594.82 148.55 594.299 148.766 593.755 148.766Z" fill="white"/>
<path d="M593.755 164.803H512.843C512.299 164.803 511.778 164.587 511.394 164.202C511.01 163.817 510.794 163.296 510.794 162.752C510.794 162.207 511.009 161.684 511.393 161.296C511.777 160.909 512.298 160.689 512.843 160.685H593.755C594.3 160.689 594.821 160.909 595.205 161.296C595.589 161.684 595.804 162.207 595.804 162.752C595.804 163.296 595.588 163.817 595.204 164.202C594.82 164.587 594.299 164.803 593.755 164.803Z" fill="white"/>
<path d="M593.755 180.823H512.843C512.299 180.823 511.778 180.607 511.394 180.222C511.01 179.838 510.794 179.316 510.794 178.772C510.794 178.229 511.01 177.707 511.394 177.322C511.778 176.938 512.299 176.722 512.843 176.722H593.755C594.299 176.722 594.82 176.938 595.204 177.322C595.588 177.707 595.804 178.229 595.804 178.772C595.804 179.316 595.588 179.838 595.204 180.222C594.82 180.607 594.299 180.823 593.755 180.823Z" fill="white"/>
<path d="M593.755 196.859H512.843C512.299 196.859 511.778 196.643 511.394 196.259C511.01 195.874 510.794 195.353 510.794 194.809C510.794 194.265 511.01 193.744 511.394 193.359C511.778 192.975 512.299 192.759 512.843 192.759H593.755C594.299 192.759 594.82 192.975 595.204 193.359C595.588 193.744 595.804 194.265 595.804 194.809C595.804 195.353 595.588 195.874 595.204 196.259C594.82 196.643 594.299 196.859 593.755 196.859Z" fill="white"/>
<path d="M224.551 90.4873H214.041V101.006H224.551V90.4873Z" fill="white"/>
<path d="M245.787 90.4873H235.277V101.006H245.787V90.4873Z" fill="white"/>
<path d="M267.022 90.4873H256.513V101.006H267.022V90.4873Z" fill="white"/>
<path d="M288.259 90.4873H277.749V101.006H288.259V90.4873Z" fill="white"/>
<path d="M224.551 116.709H214.041V127.228H224.551V116.709Z" fill="white"/>
<path d="M245.787 116.709H235.277V127.228H245.787V116.709Z" fill="white"/>
<path d="M267.022 116.709H256.513V127.228H267.022V116.709Z" fill="white"/>
<path d="M288.259 116.709H277.749V127.228H288.259V116.709Z" fill="white"/>
<path d="M224.551 142.931H214.041V153.45H224.551V142.931Z" fill="white"/>
<path d="M245.787 142.931H235.277V153.45H245.787V142.931Z" fill="white"/>
<path d="M267.022 142.931H256.513V153.45H267.022V142.931Z" fill="white"/>
<path d="M288.259 142.931H277.749V153.45H288.259V142.931Z" fill="white"/>
<path style="mix-blend-mode:multiply" d="M324.368 389.983V386.165L338.958 375.58L342.14 357.46L345.288 339.456L348.502 321.285L351.65 303.282L354.015 289.779C354.238 288.517 354.898 287.375 355.879 286.552C356.859 285.729 358.098 285.278 359.378 285.278L350.168 375.563L339.025 386.165V392H326.45C326.18 392.009 325.911 391.963 325.658 391.866C325.406 391.769 325.176 391.622 324.982 391.433C324.788 391.245 324.633 391.02 324.528 390.771C324.422 390.521 324.368 390.254 324.368 389.983Z" fill="url(#paint1_linear_3018_1648)"/>
<g opacity="0.32">
<path d="M79.2071 359.443C78.4367 359.444 77.6931 359.16 77.1185 358.647C76.5439 358.133 76.1786 357.426 76.0925 356.659L44.6967 78.118C44.6545 77.3156 44.9202 76.5274 45.4394 75.9145C45.9586 75.3017 46.6921 74.9105 47.4899 74.8211C48.2877 74.7317 49.0895 74.9507 49.7313 75.4334C50.3731 75.9161 50.8064 76.626 50.9426 77.4178L82.3217 355.942C82.4155 356.771 82.1771 357.603 81.6588 358.256C81.1405 358.91 80.3846 359.33 79.5569 359.427L79.2071 359.443Z" fill="#8C9EA5"/>
<path d="M164.167 359.443C163.397 359.444 162.653 359.16 162.078 358.647C161.504 358.133 161.139 357.426 161.052 356.659L129.657 78.118C129.614 77.3156 129.88 76.5274 130.399 75.9145C130.919 75.3017 131.652 74.9105 132.45 74.8211C133.248 74.7317 134.049 74.9507 134.691 75.4334C135.333 75.9161 135.766 76.626 135.903 77.4178L167.282 355.942C167.33 356.353 167.297 356.77 167.184 357.167C167.072 357.565 166.881 357.937 166.624 358.261C166.367 358.585 166.049 358.854 165.687 359.054C165.325 359.255 164.928 359.381 164.517 359.427L164.167 359.443Z" fill="#8C9EA5"/>
<path d="M136.053 109.975H51.1095C50.3163 109.917 49.5745 109.561 49.0329 108.978C48.4914 108.395 48.1904 107.628 48.1904 106.832C48.1904 106.036 48.4914 105.27 49.0329 104.687C49.5745 104.104 50.3163 103.748 51.1095 103.69H136.053C136.484 103.658 136.918 103.716 137.326 103.86C137.734 104.004 138.108 104.23 138.425 104.525C138.742 104.82 138.995 105.177 139.168 105.574C139.34 105.971 139.43 106.399 139.43 106.832C139.43 107.265 139.34 107.694 139.168 108.091C138.995 108.488 138.742 108.845 138.425 109.14C138.108 109.435 137.734 109.661 137.326 109.805C136.918 109.948 136.484 110.006 136.053 109.975Z" fill="#8C9EA5"/>
<path d="M137.835 137.597H54.64C53.8096 137.597 53.0131 137.267 52.4259 136.679C51.8387 136.091 51.5088 135.294 51.5088 134.463C51.5088 133.632 51.8387 132.835 52.4259 132.247C53.0131 131.659 53.8096 131.329 54.64 131.329H137.835C138.665 131.329 139.462 131.659 140.049 132.247C140.636 132.835 140.966 133.632 140.966 134.463C140.966 135.294 140.636 136.091 140.049 136.679C139.462 137.267 138.665 137.597 137.835 137.597Z" fill="#8C9EA5"/>
<path d="M139.6 165.236H58.1876C57.3945 165.178 56.6526 164.822 56.1111 164.239C55.5696 163.656 55.2686 162.89 55.2686 162.094C55.2686 161.298 55.5696 160.531 56.1111 159.948C56.6526 159.365 57.3945 159.009 58.1876 158.951H139.6C140.032 158.92 140.465 158.978 140.873 159.121C141.281 159.265 141.656 159.491 141.972 159.786C142.289 160.081 142.542 160.438 142.715 160.835C142.888 161.232 142.977 161.661 142.977 162.094C142.977 162.527 142.888 162.955 142.715 163.352C142.542 163.749 142.289 164.106 141.972 164.401C141.656 164.696 141.281 164.922 140.873 165.066C140.465 165.21 140.032 165.268 139.6 165.236Z" fill="#8C9EA5"/>
<path d="M145.396 192.875H61.8849C61.0917 192.817 60.3498 192.461 59.8083 191.878C59.2668 191.295 58.9658 190.529 58.9658 189.733C58.9658 188.937 59.2668 188.171 59.8083 187.588C60.3498 187.005 61.0917 186.648 61.8849 186.591H145.413C145.844 186.559 146.278 186.617 146.686 186.761C147.094 186.904 147.468 187.131 147.785 187.426C148.102 187.72 148.355 188.077 148.527 188.474C148.7 188.871 148.789 189.3 148.789 189.733C148.789 190.166 148.7 190.594 148.527 190.991C148.355 191.388 148.102 191.745 147.785 192.04C147.468 192.335 147.094 192.562 146.686 192.705C146.278 192.849 145.844 192.907 145.413 192.875H145.396Z" fill="#8C9EA5"/>
<path d="M148.494 220.514H64.4503C63.6572 220.456 62.9153 220.1 62.3738 219.517C61.8322 218.934 61.5312 218.168 61.5312 217.372C61.5312 216.576 61.8322 215.809 62.3738 215.226C62.9153 214.644 63.6572 214.287 64.4503 214.229H148.494C149.288 214.287 150.029 214.644 150.571 215.226C151.112 215.809 151.413 216.576 151.413 217.372C151.413 218.168 151.112 218.934 150.571 219.517C150.029 220.1 149.288 220.456 148.494 220.514Z" fill="#8C9EA5"/>
<path d="M151.626 248.153H67.532C67.1005 248.185 66.6671 248.127 66.2589 247.983C65.8508 247.84 65.4766 247.613 65.1597 247.318C64.8428 247.024 64.5901 246.666 64.4173 246.269C64.2445 245.872 64.1553 245.444 64.1553 245.011C64.1553 244.578 64.2445 244.15 64.4173 243.753C64.5901 243.356 64.8428 242.998 65.1597 242.704C65.4766 242.409 65.8508 242.182 66.2589 242.039C66.6671 241.895 67.1005 241.837 67.532 241.869H151.626C152.058 241.837 152.491 241.895 152.899 242.039C153.307 242.182 153.681 242.409 153.998 242.704C154.315 242.998 154.568 243.356 154.741 243.753C154.914 244.15 155.003 244.578 155.003 245.011C155.003 245.444 154.914 245.872 154.741 246.269C154.568 246.666 154.315 247.024 153.998 247.318C153.681 247.613 153.307 247.84 152.899 247.983C152.491 248.127 152.058 248.185 151.626 248.153Z" fill="#8C9EA5"/>
<path d="M133.405 83.5357H42.0822C41.3254 83.5357 40.576 83.3865 39.8768 83.0967C39.1777 82.8068 38.5424 82.382 38.0072 81.8464C37.4721 81.3108 37.0476 80.6749 36.758 79.9751C36.4684 79.2754 36.3193 78.5253 36.3193 77.7679C36.3193 77.0104 36.4684 76.2604 36.758 75.5606C37.0476 74.8608 37.4721 74.225 38.0072 73.6894C38.5424 73.1538 39.1777 72.7289 39.8768 72.439C40.576 72.1492 41.3254 72 42.0822 72H133.405C134.933 72 136.399 72.6077 137.48 73.6894C138.56 74.7711 139.168 76.2381 139.168 77.7679C139.168 78.5253 139.018 79.2754 138.729 79.9751C138.439 80.6749 138.015 81.3108 137.48 81.8464C136.945 82.382 136.309 82.8068 135.61 83.0967C134.911 83.3865 134.161 83.5357 133.405 83.5357Z" fill="#B0BEC5"/>
<path d="M97.6112 359.443H97.2448C96.417 359.347 95.6611 358.926 95.1429 358.273C94.6246 357.62 94.3862 356.788 94.48 355.959L125.876 77.4346C125.968 76.6078 126.386 75.8518 127.035 75.3328C127.685 74.8139 128.514 74.5745 129.34 74.6673C130.166 74.7602 130.921 75.1776 131.44 75.8279C131.958 76.4782 132.198 77.3079 132.105 78.1347L100.726 356.659C100.636 357.424 100.27 358.13 99.6961 358.643C99.1222 359.156 98.3806 359.44 97.6112 359.443Z" fill="#B0BEC5"/>
<path d="M12.6346 359.443H12.2848C11.4571 359.347 10.7012 358.926 10.1829 358.273C9.66465 357.62 9.42625 356.788 9.51999 355.959L40.8991 77.4178C41.0353 76.626 41.4685 75.9161 42.1103 75.4334C42.7521 74.9507 43.554 74.7317 44.3518 74.8211C45.1496 74.9105 45.8831 75.3017 46.4023 75.9145C46.9215 76.5274 47.1872 77.3156 47.1449 78.118L15.7492 356.659C15.6667 357.427 15.3025 358.137 14.7271 358.651C14.1517 359.165 13.406 359.448 12.6346 359.443Z" fill="#B0BEC5"/>
<path d="M125.709 109.975H40.7658C39.9726 109.917 39.2307 109.561 38.6892 108.978C38.1477 108.395 37.8467 107.628 37.8467 106.832C37.8467 106.036 38.1477 105.27 38.6892 104.687C39.2307 104.104 39.9726 103.748 40.7658 103.69H125.709C126.141 103.658 126.574 103.716 126.982 103.86C127.39 104.004 127.765 104.23 128.082 104.525C128.398 104.82 128.651 105.177 128.824 105.574C128.997 105.971 129.086 106.399 129.086 106.832C129.086 107.265 128.997 107.694 128.824 108.091C128.651 108.488 128.398 108.845 128.082 109.14C127.765 109.435 127.39 109.661 126.982 109.805C126.574 109.948 126.141 110.006 125.709 109.975Z" fill="#B0BEC5"/>
<path d="M122.162 137.597H38.9838C38.1533 137.597 37.3569 137.267 36.7697 136.679C36.1824 136.091 35.8525 135.294 35.8525 134.463C35.8525 133.632 36.1824 132.835 36.7697 132.247C37.3569 131.659 38.1533 131.329 38.9838 131.329H122.162C122.992 131.329 123.789 131.659 124.376 132.247C124.963 132.835 125.293 133.632 125.293 134.463C125.293 135.294 124.963 136.091 124.376 136.679C123.789 137.267 122.992 137.597 122.162 137.597Z" fill="#B0BEC5"/>
<path d="M118.614 165.236H37.2013C36.4081 165.178 35.6663 164.822 35.1247 164.239C34.5832 163.656 34.2822 162.89 34.2822 162.094C34.2822 161.298 34.5832 160.531 35.1247 159.948C35.6663 159.365 36.4081 159.009 37.2013 158.951H118.614C119.407 159.009 120.149 159.365 120.69 159.948C121.232 160.531 121.533 161.298 121.533 162.094C121.533 162.89 121.232 163.656 120.69 164.239C120.149 164.822 119.407 165.178 118.614 165.236Z" fill="#B0BEC5"/>
<path d="M114.933 192.875H31.4054C30.6122 192.817 29.8704 192.461 29.3288 191.878C28.7873 191.295 28.4863 190.529 28.4863 189.733C28.4863 188.937 28.7873 188.17 29.3288 187.588C29.8704 187.005 30.6122 186.648 31.4054 186.591H114.933C115.726 186.648 116.468 187.005 117.01 187.588C117.551 188.17 117.852 188.937 117.852 189.733C117.852 190.529 117.551 191.295 117.01 191.878C116.468 192.461 115.726 192.817 114.933 192.875Z" fill="#B0BEC5"/>
<path d="M112.352 220.514H28.3244C27.5312 220.456 26.7893 220.1 26.2478 219.517C25.7063 218.934 25.4053 218.168 25.4053 217.372C25.4053 216.576 25.7063 215.809 26.2478 215.227C26.7893 214.644 27.5312 214.287 28.3244 214.23H112.352C112.783 214.198 113.217 214.256 113.625 214.4C114.033 214.543 114.407 214.77 114.724 215.064C115.041 215.359 115.294 215.716 115.466 216.113C115.639 216.51 115.728 216.939 115.728 217.372C115.728 217.805 115.639 218.233 115.466 218.63C115.294 219.027 115.041 219.384 114.724 219.679C114.407 219.974 114.033 220.2 113.625 220.344C113.217 220.488 112.783 220.546 112.352 220.514Z" fill="#B0BEC5"/>
<path d="M109.271 248.153H25.2433C24.4501 248.095 23.7082 247.739 23.1667 247.156C22.6252 246.573 22.3242 245.807 22.3242 245.011C22.3242 244.215 22.6252 243.449 23.1667 242.866C23.7082 242.283 24.4501 241.927 25.2433 241.869H109.337C109.769 241.837 110.202 241.895 110.61 242.039C111.019 242.182 111.393 242.409 111.71 242.704C112.026 242.998 112.279 243.356 112.452 243.753C112.625 244.15 112.714 244.578 112.714 245.011C112.714 245.444 112.625 245.872 112.452 246.269C112.279 246.666 112.026 247.024 111.71 247.318C111.393 247.613 111.019 247.84 110.61 247.983C110.202 248.127 109.769 248.185 109.337 248.153H109.271Z" fill="#B0BEC5"/>
</g>
<path d="M83.3612 323.169C76.5906 323.341 70.155 326.153 65.427 331.007C60.6989 335.86 58.0527 342.371 58.0527 349.149C58.0527 355.928 60.6989 362.438 65.427 367.292C70.155 372.146 76.5906 374.958 83.3612 375.13H302.882V323.169H83.3612Z" fill="#B0BEC5"/>
<path style="mix-blend-mode:multiply" d="M83.3612 323.169C76.5906 323.341 70.155 326.153 65.427 331.007C60.6989 335.86 58.0527 342.371 58.0527 349.149C58.0527 355.928 60.6989 362.438 65.427 367.292C70.155 372.146 76.5906 374.958 83.3612 375.13H302.882V323.169H83.3612Z" fill="url(#paint2_linear_3018_1648)"/>
<path d="M312.741 373.126C326.003 367.687 332.349 352.519 326.915 339.246C321.482 325.972 306.326 319.621 293.065 325.059C279.803 330.498 273.457 345.666 278.891 358.939C284.325 372.212 299.48 378.564 312.741 373.126Z" fill="#CFD8DC"/>
<path d="M302.882 367.862C313.212 367.862 321.586 359.48 321.586 349.141C321.586 338.802 313.212 330.42 302.882 330.42C292.552 330.42 284.178 338.802 284.178 349.141C284.178 359.48 292.552 367.862 302.882 367.862Z" fill="#B0BEC5"/>
<path style="mix-blend-mode:multiply" d="M302.882 367.862C313.212 367.862 321.586 359.48 321.586 349.141C321.586 338.802 313.212 330.42 302.882 330.42C292.552 330.42 284.178 338.802 284.178 349.141C284.178 359.48 292.552 367.862 302.882 367.862Z" fill="url(#paint3_linear_3018_1648)"/>
<path d="M55.3632 276.909C48.5926 277.081 42.157 279.894 37.4289 284.747C32.7009 289.601 30.0547 296.111 30.0547 302.89C30.0547 309.669 32.7009 316.179 37.4289 321.032C42.157 325.886 48.5926 328.699 55.3632 328.87H274.884V276.909H55.3632Z" fill="#B0BEC5"/>
<path style="mix-blend-mode:multiply" d="M55.3632 276.909C48.5926 277.081 42.157 279.894 37.4289 284.747C32.7009 289.601 30.0547 296.111 30.0547 302.89C30.0547 309.669 32.7009 316.179 37.4289 321.032C42.157 325.886 48.5926 328.699 55.3632 328.87H274.884V276.909H55.3632Z" fill="url(#paint4_linear_3018_1648)"/>
<path d="M293.263 321.261C303.397 311.119 303.397 294.674 293.263 284.531C283.129 274.388 266.699 274.388 256.565 284.531C246.431 294.674 246.431 311.119 256.565 321.261C266.699 331.404 283.129 331.404 293.263 321.261Z" fill="#CFD8DC"/>
<path d="M274.917 321.619C285.247 321.619 293.621 313.237 293.621 302.898C293.621 292.559 285.247 284.177 274.917 284.177C264.587 284.177 256.213 292.559 256.213 302.898C256.213 313.237 264.587 321.619 274.917 321.619Z" fill="#B0BEC5"/>
<path style="mix-blend-mode:multiply" d="M274.917 321.619C285.247 321.619 293.621 313.237 293.621 302.898C293.621 292.559 285.247 284.177 274.917 284.177C264.587 284.177 256.213 292.559 256.213 302.898C256.213 313.237 264.587 321.619 274.917 321.619Z" fill="url(#paint5_linear_3018_1648)"/>
<path d="M26.4491 323.169C19.6785 323.341 13.2429 326.153 8.51487 331.007C3.78684 335.86 1.14062 342.371 1.14062 349.149C1.14062 355.928 3.78684 362.438 8.51487 367.292C13.2429 372.146 19.6785 374.958 26.4491 375.13H245.97V323.169H26.4491Z" fill="#B0BEC5"/>
<path d="M256.071 373.093C269.27 367.504 275.444 352.265 269.86 339.054C264.276 325.844 249.05 319.665 235.851 325.253C222.652 330.842 216.479 346.081 222.062 359.292C227.646 372.502 242.872 378.681 256.071 373.093Z" fill="#CFD8DC"/>
<path d="M245.97 367.862C256.3 367.862 264.674 359.48 264.674 349.141C264.674 338.802 256.3 330.42 245.97 330.42C235.64 330.42 227.266 338.802 227.266 349.141C227.266 359.48 235.64 367.862 245.97 367.862Z" fill="#B0BEC5"/>
<path style="mix-blend-mode:multiply" d="M245.97 367.862C256.3 367.862 264.674 359.48 264.674 349.141C264.674 338.802 256.3 330.42 245.97 330.42C235.64 330.42 227.266 338.802 227.266 349.141C227.266 359.48 235.64 367.862 245.97 367.862Z" fill="url(#paint6_linear_3018_1648)"/>
<g opacity="0.32">
<path d="M727.362 347.65L739.4 287.564C740.183 283.658 737.111 279.744 732.522 278.825L673.208 266.941C668.619 266.021 664.26 268.446 663.477 272.353L651.439 332.438C650.863 335.84 651.198 339.333 652.41 342.562C653.622 345.792 655.668 348.642 658.338 350.822L675.039 365.559C677.449 367.629 680.35 369.044 683.465 369.668C686.579 370.292 689.802 370.104 692.824 369.122L713.929 361.96C717.23 360.972 720.212 359.129 722.571 356.615C724.931 354.102 726.583 351.009 727.362 347.65Z" fill="#90A4AE"/>
<path d="M732.99 155.335L702.949 305.271C702.613 306.95 701.625 308.427 700.202 309.379C698.779 310.33 697.037 310.678 695.359 310.346C693.682 310.006 692.208 309.014 691.262 307.587C690.315 306.161 689.973 304.417 690.309 302.738L720.35 152.803L732.99 155.335Z" fill="#37474F"/>
<path style="mix-blend-mode:multiply" d="M692.363 308.845C693.211 309.6 694.243 310.117 695.354 310.343C696.466 310.57 697.618 310.498 698.693 310.135C699.768 309.772 700.728 309.131 701.475 308.276C702.223 307.422 702.731 306.385 702.949 305.27L732.989 155.335L726.669 154.069L696.629 304.004C696.408 305.116 695.897 306.15 695.148 307C694.399 307.85 693.438 308.487 692.363 308.845Z" fill="url(#paint7_linear_3018_1648)"/>
<path d="M768.296 106.032L762.866 133.133C762.139 137.257 760.594 141.193 758.325 144.712C756.055 148.23 753.106 151.26 749.651 153.622C746.195 155.984 742.303 157.631 738.203 158.467C734.103 159.302 729.878 159.309 725.775 158.487C721.673 157.665 717.777 156.031 714.315 153.68C710.853 151.33 707.896 148.31 705.617 144.799C703.338 141.288 701.784 137.357 701.045 133.235C700.306 129.114 700.398 124.886 701.315 120.801L706.745 93.7001C706.946 92.7197 707.526 91.8588 708.36 91.3057C709.193 90.7526 710.211 90.5523 711.192 90.7488L765.346 101.599C766.324 101.795 767.185 102.372 767.739 103.204C768.292 104.035 768.493 105.053 768.296 106.032ZM708.729 122.286C707.486 128.489 708.756 134.932 712.26 140.197C715.764 145.461 721.214 149.117 727.412 150.358C733.61 151.6 740.048 150.327 745.31 146.818C750.571 143.31 754.226 137.854 755.468 131.651L760.155 108.26L713.415 98.8959L708.729 122.286Z" fill="#37474F"/>
<path d="M751.783 96.2119L724.739 90.7934C723.575 90.5603 722.443 91.3154 722.209 92.4799L720.503 100.996C720.27 102.16 721.024 103.293 722.187 103.526L749.232 108.945C750.395 109.178 751.527 108.423 751.761 107.258L753.467 98.7425C753.7 97.578 752.946 96.445 751.783 96.2119Z" fill="#FFD740"/>
<path style="mix-blend-mode:multiply" d="M651.95 341.245C653.16 344.968 655.368 348.287 658.335 350.838L675.035 365.575C677.445 367.646 680.347 369.061 683.461 369.685C686.576 370.309 689.798 370.121 692.82 369.138L713.925 361.976C717.646 360.764 720.962 358.553 723.513 355.583C720.907 341.46 708.745 329.248 692.234 325.94C675.724 322.631 659.799 329.2 651.95 341.245Z" fill="url(#paint8_linear_3018_1648)"/>
</g>
<path d="M432.762 365.961C422.768 365.961 417.988 353.492 425.567 347.024C426.727 346.029 427.995 345.168 429.347 344.457C432.086 343.084 435.081 342.297 438.14 342.145C441.2 341.992 444.257 342.479 447.119 343.573C448.93 344.243 450.89 344.404 452.786 344.04C454.683 343.676 456.444 342.8 457.878 341.506C462.448 337.647 468.206 335.48 474.184 335.372C479.862 335.352 485.499 336.328 490.84 338.256C492.991 338.959 495.309 338.964 497.463 338.27C499.617 337.575 501.496 336.216 502.832 334.388C514.491 318.401 533.545 308.266 553.182 304.649C565.057 302.465 577.615 302.465 588.891 306.832C597.444 310.072 604.687 316.05 609.494 323.836C610.644 325.733 612.349 327.23 614.378 328.125C616.407 329.02 618.662 329.268 620.837 328.837C625.193 328.065 629.672 328.376 633.88 329.742C638.088 331.108 641.896 333.488 644.971 336.672C646.598 338.469 648.779 339.668 651.167 340.079C653.555 340.49 656.012 340.089 658.145 338.939C661.94 336.673 666.225 335.358 670.637 335.105C673.186 335.03 675.721 335.499 678.076 336.479C680.43 337.459 682.55 338.928 684.294 340.789C685.637 342.215 687.312 343.285 689.17 343.901C691.028 344.518 693.01 344.663 694.937 344.323C697.963 343.834 701.065 344.374 703.748 345.857L703.898 345.94C713.342 351.458 709.194 366.028 698.252 366.028L432.762 365.961Z" fill="#CFD8DC"/>
<path style="mix-blend-mode:multiply" d="M432.762 365.961C422.768 365.961 417.988 353.492 425.567 347.024C426.727 346.029 427.995 345.168 429.347 344.457C432.086 343.084 435.081 342.297 438.14 342.145C441.2 341.992 444.257 342.479 447.119 343.573C448.93 344.243 450.89 344.404 452.786 344.04C454.683 343.676 456.444 342.8 457.878 341.506C462.448 337.647 468.206 335.48 474.184 335.372C479.862 335.352 485.499 336.328 490.84 338.256C492.991 338.959 495.309 338.964 497.463 338.27C499.617 337.575 501.496 336.216 502.832 334.388C514.491 318.401 533.545 308.266 553.182 304.649C565.057 302.465 577.615 302.465 588.891 306.832C597.444 310.072 604.687 316.05 609.494 323.836C610.644 325.733 612.349 327.23 614.378 328.125C616.407 329.02 618.662 329.268 620.837 328.837C625.193 328.065 629.672 328.376 633.88 329.742C638.088 331.108 641.896 333.488 644.971 336.672C646.598 338.469 648.779 339.668 651.167 340.079C653.555 340.49 656.012 340.089 658.145 338.939C661.94 336.673 666.225 335.358 670.637 335.105C673.186 335.03 675.721 335.499 678.076 336.479C680.43 337.459 682.55 338.928 684.294 340.789C685.637 342.215 687.312 343.285 689.17 343.901C691.028 344.518 693.01 344.663 694.937 344.323C697.963 343.834 701.065 344.374 703.748 345.857L703.898 345.94C713.342 351.458 709.194 366.028 698.252 366.028L432.762 365.961Z" fill="url(#paint9_linear_3018_1648)"/>
<path d="M714.941 354.659H416.006C413.569 354.659 411.593 356.637 411.593 359.077V370.712C411.593 373.152 413.569 375.13 416.006 375.13H714.941C717.378 375.13 719.355 373.152 719.355 370.712V359.077C719.355 356.637 717.378 354.659 714.941 354.659Z" fill="#455A64"/>
<path d="M298.497 219.472H275.458V280H257.885V219.472H164.555V202.681L255.151 6.25797H275.458V203.071H298.497V219.472ZM257.885 39.8412L180.956 203.071H257.885V39.8412ZM316.585 213.224V73.4243C316.585 33.2026 334.939 4.30546 376.723 4.30546C418.506 4.30546 436.86 33.2026 436.86 73.4243V213.224C436.86 253.055 418.506 282.343 376.723 282.343C334.939 282.343 316.585 253.055 316.585 213.224ZM334.548 72.2528V214.005C334.548 244.074 346.654 265.942 376.723 265.942C406.791 265.942 418.897 244.074 418.897 214.005V72.2528C418.897 42.5747 406.791 20.7065 376.723 20.7065C346.654 20.7065 334.548 42.5747 334.548 72.2528ZM589.101 219.472H566.061V280H548.489V219.472H455.159V202.681L545.755 6.25797H566.061V203.071H589.101V219.472ZM548.489 39.8412L471.56 203.071H548.489V39.8412Z" fill="#455A64"/>
<path d="M47.4412 259.244L34.8662 259.268L35.1183 390.712L47.6933 390.688L47.4412 259.244Z" fill="#37474F"/>
<path d="M25.833 385.249V386.683C25.833 387.757 26.2594 388.787 27.0184 389.547C27.7775 390.307 28.8069 390.734 29.8803 390.734H52.9316C53.4623 390.734 53.9878 390.629 54.478 390.425C54.9681 390.221 55.4131 389.922 55.7876 389.546C56.1621 389.17 56.4587 388.723 56.6603 388.232C56.8618 387.74 56.9645 387.214 56.9623 386.683V385.232L25.833 385.249Z" fill="#37474F"/>
<path d="M47.6685 379.165L35.1102 379.181L25.833 385.249L56.9623 385.182L47.6685 379.165Z" fill="#455A64"/>
<path style="mix-blend-mode:multiply" d="M47.6683 379.165L47.3519 259.256H42.7383L43.0381 379.148L47.5351 385.183V386.633C47.5351 387.707 47.1087 388.738 46.3497 389.497C45.5906 390.257 44.5612 390.684 43.4878 390.684H52.9315C53.4622 390.684 53.9877 390.579 54.4778 390.375C54.9679 390.171 55.413 389.873 55.7875 389.496C56.162 389.12 56.4586 388.673 56.6601 388.182C56.8617 387.69 56.9644 387.164 56.9622 386.633V385.183L47.6683 379.165Z" fill="url(#paint10_linear_3018_1648)"/>
<path d="M740.286 264.313L728.094 264.336L728.336 390.445L740.528 390.422L740.286 264.313Z" fill="#37474F"/>
<path d="M719.321 385.181V386.598C719.326 387.639 719.742 388.635 720.478 389.369C721.215 390.103 722.212 390.516 723.252 390.516H745.604C746.648 390.511 747.647 390.093 748.384 389.353C749.121 388.612 749.535 387.61 749.535 386.565V385.165L719.321 385.181Z" fill="#37474F"/>
<path d="M740.507 379.28L728.315 379.297L719.321 385.181L749.535 385.115L740.507 379.28Z" fill="#455A64"/>
<path style="mix-blend-mode:multiply" d="M740.657 379.28L740.357 264.356H735.86L736.16 379.28L740.524 385.131V386.598C740.526 387.115 740.427 387.627 740.231 388.105C740.036 388.583 739.748 389.018 739.384 389.385C739.021 389.752 738.589 390.044 738.113 390.243C737.637 390.443 737.126 390.547 736.61 390.549H745.754C746.798 390.545 747.798 390.127 748.534 389.386C749.271 388.646 749.684 387.643 749.684 386.598V385.198L740.657 379.28Z" fill="url(#paint11_linear_3018_1648)"/>
<path d="M751.463 264.509L23.8984 265.907L23.9512 293.429L751.515 292.031L751.463 264.509Z" fill="#FFD740"/>
<path d="M55.2472 265.857L27.7821 293.446H23.9347L23.9014 277.826L35.7935 265.907L55.2472 265.857Z" fill="#263238"/>
<path d="M91.6892 265.79L64.2408 293.379L44.7871 293.413L72.2522 265.84L91.6892 265.79Z" fill="#263238"/>
<path d="M128.132 265.724L100.683 293.296L81.2295 293.346L108.695 265.757L128.132 265.724Z" fill="#263238"/>
<path d="M164.591 265.657L137.126 293.229L117.688 293.279L145.137 265.69L164.591 265.657Z" fill="#263238"/>
<path d="M201.033 265.59L173.585 293.163L154.131 293.196L181.596 265.624L201.033 265.59Z" fill="#263238"/>
<path d="M237.492 265.524L210.027 293.096L190.59 293.129L218.038 265.557L237.492 265.524Z" fill="#263238"/>
<path d="M273.934 265.457L246.486 293.029L227.032 293.063L254.497 265.49L273.934 265.457Z" fill="#263238"/>
<path d="M310.393 265.39L282.928 292.963L263.491 292.996L290.94 265.424L310.393 265.39Z" fill="#263238"/>
<path d="M346.836 265.324L319.387 292.896L299.934 292.929L327.399 265.357L346.836 265.324Z" fill="#263238"/>
<path d="M383.295 265.257L355.83 292.829L336.393 292.863L363.841 265.29L383.295 265.257Z" fill="#263238"/>
<path d="M419.738 265.19L392.29 292.763L372.836 292.796L400.301 265.224L419.738 265.19Z" fill="#263238"/>
<path d="M456.197 265.107L428.732 292.696L409.295 292.729L436.76 265.157L456.197 265.107Z" fill="#263238"/>
<path d="M492.639 265.057L465.191 292.629L445.737 292.663L473.202 265.09L492.639 265.057Z" fill="#263238"/>
<path d="M529.098 264.974L501.633 292.563L482.196 292.596L509.661 265.007L529.098 264.974Z" fill="#263238"/>
<path d="M565.541 264.907L538.092 292.479L518.655 292.529L546.104 264.957L565.541 264.907Z" fill="#263238"/>
<path d="M602 264.84L574.535 292.412L555.098 292.463L582.563 264.873L602 264.84Z" fill="#263238"/>
<path d="M638.459 264.773L611.01 292.346L591.557 292.396L619.005 264.807L638.459 264.773Z" fill="#263238"/>
<path d="M674.901 264.707L647.453 292.279L627.999 292.313L655.464 264.74L674.901 264.707Z" fill="#263238"/>
<path d="M711.36 264.64L683.912 292.213L664.458 292.246L691.906 264.673L711.36 264.64Z" fill="#263238"/>
<path d="M747.803 264.573L720.354 292.146L700.9 292.179L728.365 264.607L747.803 264.573Z" fill="#263238"/>
<path d="M751.483 277.926L751.5 292.079L737.343 292.113L751.483 277.926Z" fill="#263238"/>
<path style="mix-blend-mode:multiply" opacity="0.32" d="M751.489 278.078L23.9248 279.476L23.9516 293.429L751.516 292.031L751.489 278.078Z" fill="url(#paint12_linear_3018_1648)"/>
<path d="M385.96 375.563H338.958L342.139 357.443L345.287 339.439L348.502 321.285L351.65 303.282L354.015 289.779C354.235 288.516 354.894 287.372 355.875 286.548C356.856 285.724 358.097 285.275 359.378 285.278H365.607C366.887 285.278 368.126 285.729 369.106 286.552C370.087 287.375 370.747 288.517 370.97 289.779L373.335 303.282L376.483 321.285L379.664 339.439L382.812 357.443L385.96 375.563Z" fill="#FFA726"/>
<path d="M400.551 386.165H324.368L338.958 375.58H385.96L400.551 386.165Z" fill="#FB8C00"/>
<path d="M324.368 386.166H400.551V387.833C400.551 388.956 400.105 390.033 399.312 390.827C398.518 391.621 397.442 392.067 396.32 392.067H328.615C327.493 392.067 326.417 391.621 325.624 390.827C324.831 390.033 324.385 388.956 324.385 387.833V386.166H324.368Z" fill="#FFA726"/>
<path d="M376.45 321.285H348.469L351.617 303.281H373.302L376.45 321.285Z" fill="#ECEFF1"/>
<path d="M382.779 357.443H342.14L345.288 339.439H379.631L382.779 357.443Z" fill="#ECEFF1"/>
<path style="mix-blend-mode:multiply" d="M400.55 389.983V386.165L385.96 375.58L382.778 357.459L379.631 339.456L376.449 321.302L373.301 303.298L370.936 289.795C370.713 288.534 370.053 287.392 369.073 286.569C368.092 285.746 366.853 285.294 365.573 285.294L374.817 375.58L385.96 386.182V392.017H398.468C398.74 392.026 399.01 391.98 399.264 391.881C399.517 391.783 399.748 391.634 399.942 391.444C400.137 391.254 400.291 391.027 400.395 390.776C400.5 390.525 400.552 390.255 400.55 389.983Z" fill="url(#paint13_linear_3018_1648)"/>
<defs>
<linearGradient id="paint0_linear_3018_1648" x1="412.426" y1="363.911" x2="412.426" y2="-52.0091" gradientUnits="userSpaceOnUse">
<stop stop-color="white" stop-opacity="0"/>
<stop offset="1" stop-color="#90A4AE"/>
</linearGradient>
<linearGradient id="paint1_linear_3018_1648" x1="381.164" y1="332.721" x2="306.609" y2="346.367" gradientUnits="userSpaceOnUse">
<stop stop-color="white" stop-opacity="0"/>
<stop offset="1" stop-color="white"/>
</linearGradient>
<linearGradient id="paint2_linear_3018_1648" x1="180.147" y1="306.449" x2="180.147" y2="361.077" gradientUnits="userSpaceOnUse">
<stop stop-color="white" stop-opacity="0"/>
<stop offset="1" stop-color="#B0BEC5"/>
</linearGradient>
<linearGradient id="paint3_linear_3018_1648" x1="349.584" y1="349.141" x2="282.162" y2="349.141" gradientUnits="userSpaceOnUse">
<stop stop-color="white" stop-opacity="0"/>
<stop offset="1" stop-color="#B0BEC5"/>
</linearGradient>
<linearGradient id="paint4_linear_3018_1648" x1="152.182" y1="273.825" x2="152.182" y2="339.272" gradientUnits="userSpaceOnUse">
<stop stop-color="white" stop-opacity="0"/>
<stop offset="1" stop-color="#B0BEC5"/>
</linearGradient>
<linearGradient id="paint5_linear_3018_1648" x1="321.603" y1="302.898" x2="254.181" y2="302.898" gradientUnits="userSpaceOnUse">
<stop stop-color="white" stop-opacity="0"/>
<stop offset="1" stop-color="#B0BEC5"/>
</linearGradient>
<linearGradient id="paint6_linear_3018_1648" x1="292.672" y1="349.141" x2="225.234" y2="349.141" gradientUnits="userSpaceOnUse">
<stop stop-color="white" stop-opacity="0"/>
<stop offset="1" stop-color="#B0BEC5"/>
</linearGradient>
<linearGradient id="paint7_linear_3018_1648" x1="680.907" y1="221.389" x2="753.538" y2="246.43" gradientUnits="userSpaceOnUse">
<stop stop-color="white" stop-opacity="0"/>
<stop offset="1"/>
</linearGradient>
<linearGradient id="paint8_linear_3018_1648" x1="687.498" y1="351.19" x2="692.521" y2="292.063" gradientUnits="userSpaceOnUse">
<stop stop-color="white" stop-opacity="0"/>
<stop offset="1"/>
</linearGradient>
<linearGradient id="paint9_linear_3018_1648" x1="594.388" y1="321.169" x2="518.311" y2="410.422" gradientUnits="userSpaceOnUse">
<stop stop-color="white" stop-opacity="0"/>
<stop offset="1" stop-color="#B0BEC5"/>
</linearGradient>
<linearGradient id="paint10_linear_3018_1648" x1="8.22856" y1="309.247" x2="111.438" y2="352.827" gradientUnits="userSpaceOnUse">
<stop stop-color="white" stop-opacity="0"/>
<stop offset="1"/>
</linearGradient>
<linearGradient id="paint11_linear_3018_1648" x1="702.738" y1="312.279" x2="801.979" y2="354.185" gradientUnits="userSpaceOnUse">
<stop stop-color="white" stop-opacity="0"/>
<stop offset="1"/>
</linearGradient>
<linearGradient id="paint12_linear_3018_1648" x1="241.081" y1="80.0504" x2="465.562" y2="394.434" gradientUnits="userSpaceOnUse">
<stop stop-color="white" stop-opacity="0"/>
<stop offset="1"/>
</linearGradient>
<linearGradient id="paint13_linear_3018_1648" x1="353.581" y1="335.522" x2="387.743" y2="340.264" gradientUnits="userSpaceOnUse">
<stop stop-color="white" stop-opacity="0"/>
<stop offset="1"/>
</linearGradient>
</defs>
</svg>
