<svg width="32" height="32" viewBox="0 0 32 32" fill="none" xmlns="http://www.w3.org/2000/svg">
<path fill-rule="evenodd" clip-rule="evenodd" d="M28 22.56V26.56C28.0031 27.3109 27.6894 28.0282 27.1361 28.5358C26.5829 29.0434 25.8412 29.2942 25.0934 29.2267C20.9905 28.7809 17.0494 27.3789 13.5867 25.1333C10.3651 23.0862 7.63382 20.3549 5.58671 17.1333C3.33335 13.6549 1.93103 9.69466 1.49338 5.57333C1.42601 4.82783 1.67507 4.08834 2.17973 3.53549C2.68439 2.98265 3.39817 2.66737 4.14671 2.66667H8.14671C9.48519 2.65349 10.626 3.63462 10.8134 4.96C10.9822 6.24009 11.2953 7.49697 11.7467 8.70667C12.113 9.68117 11.8787 10.7797 11.1467 11.52L9.45337 13.2133C11.3514 16.5514 14.1153 19.3153 17.4534 21.2133L19.1467 19.52C19.887 18.788 20.9855 18.5537 21.96 18.92C23.1697 19.3714 24.4266 19.6845 25.7067 19.8533C27.0475 20.0425 28.0336 21.2064 28 22.56Z" fill="#3AAFA9"/>
</svg>
