<svg width="27" height="20" viewBox="0 0 27 20" fill="none" xmlns="http://www.w3.org/2000/svg">
<path d="M13.3337 1.25C6.89095 1.25 1.66699 5.16797 1.66699 10C1.66699 14.832 6.89095 18.75 13.3337 18.75C19.7764 18.75 25.0003 14.832 25.0003 10C25.0003 5.16797 19.7764 1.25 13.3337 1.25ZM13.4743 14.3359C10.6097 14.3359 8.95866 12.9062 8.95866 10.5293V9.50781C8.95866 7.11328 10.6097 5.66406 13.4717 5.66406C15.9274 5.66406 17.7087 6.84961 17.7087 8.54297C17.7087 8.59375 17.654 8.63477 17.5863 8.63477H16.1097C16.0003 8.63477 15.9118 8.57227 15.9014 8.49023C15.7972 7.52344 14.8597 6.86133 13.4795 6.86133C11.779 6.86133 10.8206 7.80859 10.8206 9.50781V10.5352C10.8206 12.209 11.7816 13.1445 13.4795 13.1445C14.8545 13.1445 15.7894 12.5254 15.9014 11.625C15.9118 11.5449 16.0003 11.4824 16.1097 11.4824H17.5889C17.6566 11.4824 17.7113 11.5234 17.7113 11.5742C17.7113 13.1875 15.9222 14.3359 13.4743 14.3359Z" fill="#333333"/>
</svg>
