<svg width="40" height="40" viewBox="0 0 40 40" fill="none" xmlns="http://www.w3.org/2000/svg">
<path d="M36.6671 36.6666H10.9727V35.2777H35.2782V10.9721H36.6671V36.6666Z" fill="#3AAFA9"/>
<path d="M33.889 33.8888H6.80566V32.4999H32.5001V6.80548H33.889V33.8888Z" fill="#3AAFA9"/>
<path d="M29.7219 4.7222V29.7222H4.7219V4.7222H29.7219ZM31.1108 3.33331H3.33301V31.1111H31.1108V3.33331Z" fill="#3AAFA9"/>
<path d="M10.1783 25.2188L8.9873 24.5042L13.154 17.5598C13.2699 17.3674 13.472 17.2417 13.6956 17.225C13.9227 17.2056 14.1394 17.3 14.2824 17.4729L17.1595 20.925L22.1991 13.3653C22.3436 13.1486 22.5977 13.032 22.8561 13.0604C23.1151 13.0903 23.3352 13.2625 23.4269 13.507L27.5936 24.6181L26.2929 25.1056L22.6026 15.2639L17.7991 22.4688C17.6776 22.6514 17.4769 22.7653 17.2581 22.7771C17.0401 22.7861 16.8276 22.6966 16.688 22.5285L13.8415 19.1132L10.1783 25.2188Z" fill="#3AAFA9"/>
<path d="M11.6664 13.0556C10.1345 13.0556 8.88867 11.8097 8.88867 10.2778C8.88867 8.74583 10.1345 7.5 11.6664 7.5C13.1984 7.5 14.4442 8.74583 14.4442 10.2778C14.4442 11.8097 13.1984 13.0556 11.6664 13.0556ZM11.6664 8.88889C10.9005 8.88889 10.2776 9.51181 10.2776 10.2778C10.2776 11.0437 10.9005 11.6667 11.6664 11.6667C12.4324 11.6667 13.0553 11.0437 13.0553 10.2778C13.0553 9.51181 12.4324 8.88889 11.6664 8.88889Z" fill="#3AAFA9"/>
<path d="M31.1108 24.1666H3.33301V25.5555H31.1108V24.1666Z" fill="#3AAFA9"/>
</svg>
