<svg width="17" height="17" viewBox="0 0 17 17" fill="none" xmlns="http://www.w3.org/2000/svg">
<path fill-rule="evenodd" clip-rule="evenodd" d="M15 11.78V13.78C15.0015 14.1554 14.8447 14.5141 14.5681 14.7679C14.2914 15.0217 13.9206 15.1471 13.5467 15.1133C11.4952 14.8904 9.52469 14.1894 7.79335 13.0666C6.18257 12.0431 4.81691 10.6774 3.79335 9.06665C2.66667 7.32745 1.96552 5.34731 1.74669 3.28665C1.713 2.9139 1.83754 2.54415 2.08986 2.26773C2.34219 1.99131 2.69908 1.83367 3.07335 1.83332H5.07335C5.7426 1.82673 6.31302 2.3173 6.40669 2.97998C6.4911 3.62003 6.64765 4.24847 6.87335 4.85332C7.05651 5.34057 6.93936 5.88985 6.57335 6.25998L5.72669 7.10665C6.67572 8.77568 8.05766 10.1576 9.72669 11.1067L10.5734 10.26C10.9435 9.89397 11.4928 9.77683 11.98 9.95998C12.5849 10.1857 13.2133 10.3422 13.8534 10.4267C14.5237 10.5212 15.0168 11.1032 15 11.78Z" stroke="#3AAFA9" stroke-width="2" stroke-linecap="round"/>
</svg>
